<svg width="65" height="85" viewBox="0 0 65 85" fill="none" xmlns="http://www.w3.org/2000/svg">
<path d="M27.8404 16.6823L23.7404 6.09225C23.4242 5.24718 22.846 4.52536 22.0904 4.03225C21.7907 3.84805 21.4415 3.76075 21.0904 3.78225C20.9639 3.79283 20.8412 3.83034 20.7304 3.89225C20.1104 4.22225 19.9304 5.22225 20.3804 6.38225L25.2304 18.8423C25.3035 18.2153 25.6156 17.6408 26.1019 17.2384C26.5881 16.836 27.2109 16.6368 27.8404 16.6823Z" fill="#EDF2FB"/>
<path d="M27.5996 16.6822C27.6795 16.6772 27.7597 16.6772 27.8396 16.6822L27.6796 16.2622L27.5996 16.6822Z" fill="#C1D3FE"/>
<path d="M40.6998 23.2821L39.8598 22.8421C39.9126 22.5652 39.9394 22.284 39.9398 22.0021C39.9386 21.576 39.8984 21.1509 39.8198 20.7321C39.8198 20.7321 39.3598 17.5421 37.9698 16.0321C36.9376 15.0204 35.7043 14.2368 34.3498 13.7321L33.4798 13.4021L27.8398 16.6821C28.5067 16.7446 29.15 16.9602 29.7198 17.3121C30.4183 17.7227 31.0491 18.2388 31.5898 18.8421C32.9061 20.2831 33.8019 22.0574 34.1798 23.9721C34.2589 24.3908 34.2991 24.816 34.2998 25.2421C34.2994 25.524 34.2726 25.8052 34.2198 26.0821L35.0598 26.5621C35.278 26.701 35.4604 26.8892 35.5924 27.1115C35.7244 27.3339 35.8023 27.5841 35.8198 27.8421V30.4821L41.4798 27.2421V24.6021C41.4615 24.3366 41.3815 24.0789 41.2461 23.8498C41.1107 23.6206 40.9236 23.4262 40.6998 23.2821Z" fill="#C1D3FE"/>
<path d="M62.9998 39.6822L41.4798 27.2422L35.8398 30.5222L57.3598 42.9522C57.7689 43.2231 58.1093 43.5855 58.3541 44.0107C58.5988 44.436 58.7412 44.9124 58.7698 45.4022L58.6698 82.6022C58.6802 82.7053 58.6802 82.8091 58.6698 82.9122V82.9922C58.6556 83.054 58.6355 83.1142 58.6098 83.1722C58.6127 83.1921 58.6127 83.2123 58.6098 83.2322C58.5858 83.2824 58.5555 83.3294 58.5198 83.3722C58.5198 83.3722 58.5198 83.3722 58.4598 83.3722C58.4278 83.4075 58.3908 83.4378 58.3498 83.4622L63.9898 80.1922C64.1353 80.09 64.2509 79.9509 64.3247 79.7892C64.3985 79.6275 64.4279 79.449 64.4098 79.2722L64.5098 42.0722C64.4641 41.5831 64.3035 41.1117 64.0411 40.6963C63.7787 40.281 63.4219 39.9336 62.9998 39.6822Z" fill="#C1D3FE"/>
<path d="M2.02028 11.0122L23.5703 23.4522V25.2122C23.5837 25.4755 23.6585 25.732 23.7887 25.9612C23.9189 26.1904 24.101 26.3859 24.3203 26.5322L29.2103 20.1722L7.66027 7.73219C7.51725 7.62875 7.34939 7.56501 7.17375 7.54744C6.99811 7.52988 6.82095 7.55912 6.66027 7.63219L1.03027 10.9122C1.18966 10.841 1.36491 10.8128 1.5386 10.8303C1.71228 10.8479 1.87834 10.9106 2.02028 11.0122Z" fill="#C1D3FE"/>
<path d="M57.3605 42.9521L35.8205 30.5221V32.2821C35.8205 32.7621 35.4805 32.9621 35.0505 32.7221L24.3205 26.5321C24.1012 26.3858 23.9191 26.1902 23.7889 25.961C23.6587 25.7318 23.5839 25.4754 23.5705 25.2121V23.4521L2.02047 11.0121C1.24047 10.5621 0.60047 10.9221 0.60047 11.8221L0.480469 49.0121C0.504492 49.5044 0.644792 49.9839 0.889875 50.4115C1.13496 50.8391 1.47785 51.2026 1.89047 51.4721L57.2405 83.4121C58.0305 83.8721 58.6605 83.5021 58.6705 82.6021L58.7705 45.4021C58.7418 44.9123 58.5994 44.4359 58.3547 44.0106C58.11 43.5854 57.7696 43.223 57.3605 42.9521Z" fill="#EDF2FB"/>
<path d="M23.6696 28.782C24.08 29.0539 24.4212 29.4179 24.666 29.845C24.9108 30.2721 25.0524 30.7505 25.0796 31.242L24.9996 57.842C24.9996 58.742 24.3696 59.102 23.5796 58.652L6.47957 48.842C6.06753 48.5734 5.72435 48.2117 5.47771 47.7862C5.23106 47.3606 5.08783 46.8831 5.05957 46.392L5.13957 19.752C5.13957 18.852 5.77957 18.482 6.56957 18.942L23.6696 28.782Z" fill="#6BB4F7"/>
<path d="M24.2196 59.3822C23.9056 59.3729 23.5992 59.2834 23.3296 59.1222L6.26961 49.2722C5.78169 48.9602 5.3755 48.536 5.08498 48.0349C4.79446 47.5339 4.62804 46.9707 4.59961 46.3922L4.67961 19.7522C4.6612 19.4879 4.71357 19.2235 4.83134 18.9863C4.9491 18.749 5.12801 18.5474 5.34961 18.4022C5.58785 18.2845 5.85291 18.2318 6.11804 18.2494C6.38317 18.267 6.63897 18.3542 6.85961 18.5022L23.9196 28.3522C24.4064 28.6669 24.8111 29.0934 25.0998 29.5961C25.3885 30.0987 25.553 30.6631 25.5796 31.2422L25.4796 57.8422C25.4994 58.1042 25.4486 58.3666 25.3325 58.6023C25.2164 58.838 25.0393 59.0382 24.8196 59.1822C24.6407 59.3005 24.4337 59.3694 24.2196 59.3822ZM5.96961 19.2422C5.92688 19.232 5.88234 19.232 5.83961 19.2422C5.77779 19.3045 5.73118 19.3802 5.70343 19.4635C5.67568 19.5467 5.66753 19.6353 5.67961 19.7222L5.59961 46.3622C5.62896 46.7628 5.74968 47.1513 5.95249 47.498C6.1553 47.8447 6.43482 48.1403 6.76961 48.3622L23.8296 58.2122C23.8903 58.2705 23.9681 58.3076 24.0516 58.318C24.1351 58.3284 24.2197 58.3116 24.2928 58.27C24.3659 58.2283 24.4236 58.1642 24.4573 58.0871C24.4909 58.01 24.4988 57.9241 24.4796 57.8422L24.5796 31.2422C24.5529 30.8421 24.4343 30.4536 24.2331 30.1068C24.032 29.7599 23.7536 29.4641 23.4196 29.2422L6.35961 19.3722C6.24295 19.2961 6.10862 19.2513 5.96961 19.2422Z" fill="#011627"/>
<path d="M29.7203 17.3121C30.4188 17.7226 31.0496 18.2387 31.5903 18.8421C32.9066 20.283 33.8024 22.0574 34.1803 23.9721C34.2594 24.3908 34.2996 24.8159 34.3003 25.2421C34.2999 25.5239 34.2731 25.8052 34.2203 26.0821L35.0603 26.5621C35.2784 26.7009 35.4609 26.8891 35.5929 27.1115C35.7249 27.3338 35.8028 27.5841 35.8203 27.8421V32.2421C35.8203 32.7221 35.4803 32.9221 35.0503 32.6821L24.3203 26.5321C24.101 26.3858 23.919 26.1902 23.7887 25.961C23.6585 25.7318 23.5837 25.4753 23.5703 25.2121V20.8421C23.5703 20.3521 23.9103 20.1621 24.3303 20.4021L25.1703 20.8821C25.1225 20.5777 25.0991 20.2701 25.1003 19.9621C25.1013 19.585 25.1449 19.2093 25.2303 18.8421C25.3128 18.2224 25.629 17.6578 26.1142 17.2636C26.5994 16.8695 27.2169 16.6758 27.8403 16.7221C28.5039 16.7723 29.147 16.9742 29.7203 17.3121Z" fill="#EDF2FB"/>
<path d="M43.9897 10.4421C43.7271 10.1063 43.4051 9.8216 43.0397 9.60215C42.8455 9.46049 42.6168 9.37368 42.3775 9.35081C42.1382 9.32794 41.8972 9.36985 41.6797 9.47215L36.0397 12.7421C36.2588 12.6443 36.4997 12.6058 36.7384 12.6304C36.9771 12.6549 37.2051 12.7418 37.3997 12.8821C37.7674 13.0985 38.0899 13.3837 38.3497 13.7221C39.2697 14.8621 39.5797 16.3821 39.0497 17.1321L34.1797 23.9721L39.8197 20.6921L44.6797 13.8421C45.2197 13.1121 44.9097 11.5821 43.9897 10.4421Z" fill="#C1D3FE"/>
<path d="M31.5898 18.8421L35.7398 13.0221C36.0998 12.5221 36.7398 12.5021 37.4098 12.8821C37.7744 13.0989 38.0936 13.3841 38.3498 13.7221C39.2698 14.8621 39.5798 16.3821 39.0498 17.1321L34.1798 23.9721L31.5898 18.8421Z" fill="#EDF2FB"/>
<path d="M33.4805 13.4023L29.3805 2.84225C29.0693 1.9914 28.4857 1.26719 27.7205 0.782252C27.4251 0.587378 27.0734 0.495942 26.7205 0.522252C26.5794 0.536738 26.4431 0.581052 26.3205 0.652252L20.7305 3.90225C20.8524 3.83109 20.9895 3.78996 21.1305 3.78225C21.4816 3.76074 21.8308 3.84804 22.1305 4.03225C22.8861 4.52536 23.4643 5.24718 23.7805 6.09225L27.8805 16.6823L33.4805 13.4023Z" fill="#C1D3FE"/>
<path d="M43.0798 67.3222C43.2849 67.4554 43.4555 67.6355 43.5772 67.8476C43.6989 68.0598 43.7684 68.2979 43.7798 68.5422C43.7798 68.9922 43.4598 69.1722 43.0698 68.9522L31.7198 62.3922C31.5133 62.2596 31.3413 62.0798 31.2178 61.8677C31.0944 61.6556 31.0231 61.4172 31.0098 61.1722C31.0098 60.7122 31.3298 60.5422 31.7198 60.7622L43.0798 67.3222Z" fill="#011627"/>
<path d="M47.4001 46.1321C47.6068 46.2669 47.7788 46.4485 47.9021 46.6622C48.0255 46.8759 48.0967 47.1157 48.1101 47.3621C48.1101 47.8121 47.7901 47.9921 47.4001 47.7721L31.7901 38.7721C31.5836 38.6395 31.4116 38.4597 31.2881 38.2476C31.1647 38.0355 31.0934 37.7971 31.0801 37.5521C31.0801 37.0921 31.4001 36.9121 31.7901 37.1421L47.4001 46.1321Z" fill="#011627"/>
<path d="M39.5503 60.3822C39.7555 60.5154 39.926 60.6955 40.0477 60.9076C40.1694 61.1198 40.2389 61.3579 40.2503 61.6022C40.2503 62.0622 39.9303 62.2322 39.5403 62.0122L31.7303 57.5022C31.5249 57.3669 31.3544 57.1849 31.2328 56.9712C31.1111 56.7574 31.0417 56.5179 31.0303 56.2722C31.0303 55.8322 31.3503 55.6422 31.7403 55.8722L39.5503 60.3822Z" fill="#011627"/>
<path d="M45.9299 64.0622C46.1355 64.1981 46.3067 64.38 46.4299 64.5935C46.5531 64.8069 46.625 65.0461 46.6399 65.2922C46.6399 65.7422 46.3199 65.9222 45.9299 65.6922L42.3799 63.6922C42.1735 63.5595 42.0014 63.3798 41.878 63.1677C41.7546 62.9556 41.6832 62.7172 41.6699 62.4722C41.6699 62.0222 41.9899 61.8422 42.3799 62.0622L45.9299 64.0622Z" fill="#011627"/>
<path d="M50.91 62.0322C51.1149 62.1681 51.2849 62.3502 51.4065 62.5638C51.5281 62.7775 51.5978 63.0167 51.61 63.2622C51.61 63.7122 51.3 63.9022 50.9 63.6722L31.75 52.6122C31.5422 52.4786 31.3694 52.2972 31.2459 52.0833C31.1224 51.8693 31.0518 51.6289 31.04 51.3822C31.04 50.9322 31.36 50.7522 31.75 50.9822L50.91 62.0322Z" fill="#011627"/>
<path d="M43.1303 48.5621C43.3425 48.703 43.5178 48.8928 43.6414 49.1156C43.7649 49.3383 43.8332 49.5875 43.8403 49.8421C43.8403 50.2921 43.5103 50.4721 43.1203 50.2421L31.7703 43.6421C31.5663 43.5078 31.3966 43.3274 31.275 43.1155C31.1534 42.9036 31.0833 42.6661 31.0703 42.4221C31.0703 41.9721 31.3903 41.7921 31.7803 42.0121L43.1303 48.5621Z" fill="#011627"/>
<path d="M63.25 39.2421L41.96 26.9521V24.6021C41.9465 24.2515 41.8485 23.9093 41.6744 23.6046C41.5003 23.3 41.2552 23.0418 40.96 22.8521L40.41 22.5421C40.4252 22.3491 40.4252 22.1552 40.41 21.9621C40.4056 21.5802 40.3722 21.199 40.31 20.8221L45.06 14.1521C45.74 13.2021 45.43 11.4721 44.35 10.1521C44.054 9.75215 43.6839 9.41268 43.26 9.15214C42.9982 8.98192 42.6972 8.88154 42.3856 8.86053C42.074 8.83953 41.7623 8.8986 41.48 9.03214L35.84 12.3121C35.8082 12.333 35.7781 12.3564 35.75 12.3821C35.6079 12.4772 35.4828 12.5955 35.38 12.7321L35 13.2721C34.6454 13.1178 34.2723 13.0102 33.89 12.9521L29.89 2.64214C29.5335 1.68426 28.8732 0.869434 28.01 0.322136C27.6378 0.0943019 27.206 -0.0171301 26.77 0.0021357C26.5554 0.0212349 26.3475 0.0860182 26.16 0.192136L20.48 3.48214C20.2761 3.6025 20.1045 3.77067 19.98 3.97214C19.7865 4.37643 19.6861 4.81893 19.6861 5.26714C19.6861 5.71534 19.7865 6.15784 19.98 6.56214L23.81 16.4621L7.91 7.30214C7.69059 7.15114 7.43451 7.06215 7.16875 7.04455C6.90299 7.02695 6.6374 7.08139 6.4 7.20214L0.75 10.4921C0.532081 10.6397 0.357138 10.8424 0.242965 11.0795C0.128792 11.3166 0.0794639 11.5798 0.0999994 11.8421L0 49.0321C0.0224404 49.6122 0.185193 50.1781 0.474308 50.6814C0.763423 51.1848 1.17028 51.6105 1.66 51.9221L56.99 83.8421C57.2596 84.0033 57.566 84.0929 57.88 84.1021C58.0966 84.1001 58.3094 84.0452 58.5 83.9421L64.14 80.6721C64.3587 80.5241 64.5353 80.3219 64.6528 80.0854C64.7702 79.8488 64.8243 79.5858 64.81 79.3221L64.91 42.1321C64.8834 41.553 64.7189 40.9887 64.4302 40.486C64.1415 39.9833 63.7368 39.5569 63.25 39.2421ZM40.48 23.7221C40.6263 23.8204 40.7482 23.9508 40.8366 24.1033C40.925 24.2557 40.9774 24.4263 40.99 24.6021V26.9521L36.35 29.6521V27.8421C36.3399 27.4907 36.2433 27.1473 36.0689 26.842C35.8945 26.5368 35.6476 26.2793 35.35 26.0921L34.77 25.8421C34.78 25.6523 34.78 25.462 34.77 25.2721C34.7666 24.9373 34.7398 24.6032 34.69 24.2721L39.37 21.5621C39.37 21.7021 39.37 21.8621 39.37 22.0021C39.3665 22.2569 39.3431 22.511 39.3 22.7621C39.2811 22.8616 39.2942 22.9645 39.3373 23.0561C39.3804 23.1477 39.4513 23.2233 39.54 23.2721L40.48 23.7221ZM25.48 21.2721C25.5577 21.2211 25.619 21.1485 25.6563 21.0633C25.6935 20.9781 25.7053 20.8839 25.69 20.7921C25.6512 20.5104 25.6311 20.2265 25.63 19.9421C25.6309 19.6058 25.6678 19.2706 25.74 18.9421C25.7907 18.4368 26.0385 17.9718 26.4297 17.6479C26.821 17.3241 27.3241 17.1675 27.83 17.2121C28.4138 17.2579 28.9788 17.4394 29.48 17.7421C30.1357 18.1267 30.7263 18.6128 31.23 19.1821C32.4823 20.5497 33.3365 22.2338 33.7 24.0521C33.77 24.445 33.8067 24.8431 33.81 25.2421C33.811 25.4938 33.7876 25.745 33.74 25.9921C33.7228 26.094 33.7377 26.1987 33.7824 26.2918C33.8272 26.385 33.8997 26.4619 33.99 26.5121L34.82 26.9921C34.9663 27.0904 35.0882 27.2208 35.1766 27.3733C35.265 27.5257 35.3174 27.6963 35.33 27.8721V32.2921L24.57 26.0921C24.4266 25.9917 24.3073 25.8607 24.2209 25.7085C24.1344 25.5563 24.0828 25.3867 24.07 25.2121V20.8021L24.91 21.2921C24.9962 21.346 25.0965 21.3728 25.1981 21.3693C25.2996 21.3657 25.3978 21.3319 25.48 21.2721ZM41.93 9.90214C42.0725 9.84842 42.2264 9.83216 42.377 9.85493C42.5275 9.87769 42.6698 9.9387 42.79 10.0321C43.1042 10.2215 43.3791 10.4693 43.6 10.7621C44.44 11.7621 44.6 13.0721 44.28 13.5721L39.48 20.3121L35.93 22.3721L39.45 17.3721C40.13 16.4221 39.82 14.7021 38.74 13.3721C38.4432 12.9728 38.0734 12.6335 37.65 12.3721H37.6L41.93 9.90214ZM36.15 13.3121C36.2064 13.2387 36.2828 13.1831 36.37 13.1521H36.57C36.7752 13.1707 36.9736 13.2357 37.15 13.3421C37.4615 13.531 37.7359 13.775 37.96 14.0621C38.8 15.0621 38.96 16.3821 38.64 16.8721L34.4 22.8721C33.9511 21.4073 33.2132 20.0472 32.23 18.8721L36.15 13.3121ZM34.35 14.1121L31.52 18.1121C31.0571 17.6272 30.5365 17.2007 29.97 16.8421C29.5359 16.5922 29.0676 16.4069 28.58 16.2921L32.34 14.1121C32.6893 13.9264 33.0874 13.853 33.48 13.9021C33.7787 13.9294 34.0718 14.0002 34.35 14.1121ZM26.62 1.11214C26.6826 1.0804 26.7503 1.06009 26.82 1.05214C27.0512 1.04622 27.2784 1.11264 27.47 1.24214C28.1365 1.67009 28.6428 2.30646 28.91 3.05214L32.77 13.0521C32.4413 13.0998 32.1252 13.2119 31.84 13.3821L27.94 15.6421L24.21 6.01214C23.8575 5.05756 23.2002 4.24572 22.34 3.70214L26.62 1.11214ZM20.82 4.55214L20.91 4.41214C20.9962 4.37401 21.0869 4.34712 21.18 4.33214C21.4155 4.31557 21.6493 4.38287 21.84 4.52214C22.5013 4.95137 23.0064 5.5827 23.28 6.32214L27.13 16.3221C26.748 16.3875 26.3841 16.5326 26.0619 16.748C25.7397 16.9634 25.4665 17.2442 25.26 17.5721L20.89 6.20214C20.7541 5.94135 20.6773 5.65379 20.6652 5.35995C20.6531 5.06611 20.706 4.77322 20.82 4.50214V4.55214ZM6.91 8.07213C7.01 8.00214 7.2 8.07213 7.41 8.16214L24.41 17.9521L24.76 18.8621C24.6862 19.214 24.6494 19.5726 24.65 19.9321C24.5009 19.7947 24.3117 19.7086 24.1102 19.6864C23.9086 19.6642 23.7052 19.7071 23.5298 19.8088C23.3543 19.9105 23.216 20.0656 23.1351 20.2516C23.0542 20.4375 23.0349 20.6444 23.08 20.8421V22.6221L2.48 10.6621L6.91 8.07213ZM58.17 82.6021C58.1808 82.6898 58.1711 82.7789 58.1416 82.8622C58.1121 82.9455 58.0636 83.0208 58 83.0821C57.913 83.1055 57.8218 83.1086 57.7334 83.0913C57.645 83.074 57.5617 83.0366 57.49 82.9821L2.16 51.0321C1.82706 50.8092 1.54948 50.5131 1.34844 50.1664C1.1474 49.8198 1.02822 49.4318 1 49.0321L1.1 11.8421C1.08919 11.7544 1.09891 11.6654 1.12842 11.5821C1.15792 11.4988 1.20639 11.4235 1.27 11.3621C1.30915 11.3505 1.35085 11.3505 1.39 11.3621C1.52548 11.3733 1.65607 11.418 1.77 11.4921L23.07 23.7921V25.2621C23.081 25.6133 23.1779 25.9565 23.3522 26.2616C23.5266 26.5667 23.773 26.8244 24.07 27.0121L34.79 33.2021C34.9723 33.309 35.1788 33.3675 35.39 33.3721C35.548 33.3728 35.7033 33.3314 35.84 33.2521C35.9947 33.1561 36.1202 33.0197 36.203 32.8575C36.2858 32.6954 36.3228 32.5137 36.31 32.3321V31.4321L57.11 43.4321C57.4451 43.6529 57.7243 43.9484 57.9256 44.2955C58.1269 44.6426 58.2448 45.0317 58.27 45.4321L58.17 82.6021ZM63.81 79.3221C63.81 79.5621 63.74 79.7421 63.64 79.8021L59.17 82.4021L59.27 45.4021C59.246 44.8238 59.0825 44.2599 58.7934 43.7584C58.5044 43.257 58.0984 42.8328 57.61 42.5221L36.82 30.5221L41.48 27.8421L62.75 40.1121C63.0829 40.3351 63.3605 40.6312 63.5616 40.9778C63.7626 41.3245 63.8818 41.7124 63.91 42.1121L63.81 79.3221Z" fill="#011627"/>
</svg>
