<svg width="294" height="85" viewBox="0 0 294 85" fill="none" xmlns="http://www.w3.org/2000/svg">
<g clip-path="url(#clip0)">
<path d="M0.5 59.5L52.6431 36.5184C105.308 13.3068 165.42 13.908 217.61 38.1683L263.5 59.5" stroke="#3167BC" stroke-width="2" stroke-linejoin="round" stroke-dasharray="15 7"/>
<path d="M264.272 73.3435C270.982 73.3163 277.798 72.2408 284.207 70.3121C279.989 65.0667 276.513 59.1196 273.997 52.9343C273.64 52.1039 274.685 49.103 275.154 50.2272C277.999 57.1695 282.103 63.8861 287.058 69.5238C287.086 69.5972 287.136 69.62 287.164 69.6934L287.192 69.7668L287.22 69.8402C287.453 70.6758 287.203 72.4509 286.542 72.7017C279.313 75.2359 271.391 76.6054 263.761 76.6455C262.893 76.6812 263.229 73.3615 264.272 73.3435Z" fill="#3167BC"/>
<path d="M253.686 68.5827C260.346 68.5328 267.213 67.48 273.593 65.4779C269.376 60.2325 265.9 54.2855 263.361 48.1508C263.004 47.3204 264.049 44.3195 264.517 45.4436C267.363 52.386 271.467 59.1026 276.421 64.7402C276.472 64.763 276.472 64.763 276.449 64.8137C276.5 64.8364 276.528 64.9099 276.505 64.9605C276.834 65.7175 276.566 67.6673 275.855 67.8954C268.626 70.4296 260.704 71.7991 253.074 71.8392C252.279 71.8471 252.643 68.6008 253.686 68.5827Z" fill="#3167BC"/>
</g>
<defs>
<clipPath id="clip0">
<rect width="292.777" height="84.6173" fill="white" transform="translate(0.5)"/>
</clipPath>
</defs>
</svg>
