<svg width="561" height="394" viewBox="0 0 561 394" fill="none" xmlns="http://www.w3.org/2000/svg">
<path d="M0 393.555H533.778C533.778 393.555 558.076 358.461 506.128 300.872C506.128 300.872 460.045 248.681 527.075 198.29C594.105 147.899 542.994 48.9021 532.102 39.0039C521.21 29.1056 448.315 -55.4791 324.287 60.5999C324.287 60.5999 276.529 134.387 177.66 57.0006C78.7907 -20.3854 0.851838 91.1944 15.0957 155.983C29.3395 220.771 99.7152 365.657 0 393.555Z" fill="url(#paint0_linear)"/>
<path d="M385 212.759H295V215.985H385V212.759Z" fill="#36475D"/>
<path d="M385.122 212.759L400 162.221H352.674L338 212.759H385.122Z" fill="url(#paint1_linear)"/>
<path d="M534 215.985H278V221.362H534V215.985Z" fill="#7D90AA"/>
<path d="M323.835 221.362H490V392.507H479.981V235.776H333.022V393.408H323L323.835 221.362Z" fill="#36475D"/>
<path d="M484.468 158.174C484.468 158.174 489.895 139.295 468.19 132.553C468.19 132.553 442.308 130.755 445.23 106.032C445.23 106.032 447.317 98.3936 458.171 92.9996C469.025 87.6056 468.19 73.2216 468.19 61.0851C468.19 48.9485 476.119 17.037 491.983 24.6755C507.846 32.314 502.837 41.7565 501.584 59.7366C500.332 77.7166 512.438 76.8176 514.108 77.2671C515.778 77.7166 530.038 95.0613 507.011 111.429C497.827 117.953 493.235 124.914 491.148 157.278C489.06 189.642 484.468 158.174 484.468 158.174Z" fill="url(#paint2_linear)"/>
<path d="M505 152.543H474V215.985H505V152.543Z" fill="url(#paint3_linear)"/>
<path d="M489.573 213.413V215.986H431.382C431.382 215.986 423.607 209.654 431.634 202.007H490V204.38C490 204.38 486.844 207.907 489.573 213.413Z" fill="#2D2B95"/>
<path d="M490 204.157C490 204.157 487.028 208.078 489.63 212.76H432.993C432.993 212.76 430.391 207.067 433.611 204.284L490 204.157Z" fill="#4985FE"/>
<path d="M489.573 184.38V186.952H431.382C431.382 186.952 423.607 180.621 431.634 172.974H490V175.346C490 175.346 486.844 178.873 489.573 184.38Z" fill="#36475D"/>
<path d="M490 175.125C490 175.125 487.028 179.536 489.63 184.802H432.993C432.993 184.802 430.391 178.398 433.611 175.267L490 175.125Z" fill="white"/>
<path d="M429.427 199.233V202.007H487.618C487.618 202.007 495.393 195.188 487.366 186.953H429V189.508C429 189.508 432.145 193.303 429.427 199.233Z" fill="#E70000"/>
<path d="M429 190.178C429 190.178 431.972 194.099 429.37 198.781H486.007C486.007 198.781 488.609 193.088 485.389 190.305L429 190.178Z" fill="#B8B9B8"/>
<path d="M416.286 82.1889C427.575 70.0503 427.575 50.3697 416.286 38.2311C404.997 26.0924 386.695 26.0924 375.406 38.2311C364.117 50.3697 364.117 70.0503 375.406 82.1889C386.695 94.3275 404.997 94.3275 416.286 82.1889Z" fill="url(#paint4_linear)"/>
<path d="M397 62.757C397 62.438 396.941 62.1261 396.831 61.8609C396.722 61.5956 396.565 61.3889 396.383 61.2668C396.2 61.1447 395.999 61.1128 395.805 61.175C395.611 61.2373 395.433 61.3909 395.293 61.6165C395.153 61.842 395.058 62.1294 395.019 62.4423C394.981 62.7552 395 63.0795 395.076 63.3742C395.152 63.6689 395.28 63.9208 395.444 64.0981C395.609 64.2753 395.802 64.3699 396 64.3699C396.131 64.3703 396.262 64.329 396.383 64.2481C396.504 64.1672 396.615 64.0484 396.708 63.8985C396.801 63.7487 396.874 63.5707 396.924 63.3748C396.975 63.1789 397 62.9689 397 62.757Z" fill="#231F20"/>
<path d="M395.645 39.6382L396 62.8934L386 71.8968" stroke="#231F20" stroke-width="5" stroke-miterlimit="10"/>
<path d="M27.2965 221.362C27.2965 221.362 10.5625 277.599 74.5702 312.246C74.5702 312.246 113.058 326.644 162 322.144C162 322.144 141.082 343.288 117.239 341.041C117.239 341.041 97.1584 374.335 128.116 392.332H77.0775C77.0775 392.332 121.004 375.235 78.3326 333.842C78.3326 333.842 36.8433 311.646 31.0617 301.448C25.2047 291.109 2.61657 258.714 27.2965 221.362Z" fill="#D0D0D0"/>
<path d="M61.5686 304.159L147 281.272C147 281.272 95.7406 245.805 91.9869 226.495C88.2332 207.185 42.3946 190.13 27.805 221.556C13.2154 252.983 44.0644 294.281 61.5686 304.159Z" fill="#C2C2C2"/>
<path d="M147.273 281.578C147.273 281.578 183.468 296.956 162.424 322.736C162.424 322.736 101.819 333.139 61 304.645L147.273 281.578Z" fill="#E3DBDF"/>
<path d="M268 378.354H260V393.408H268V378.354Z" fill="#36475D"/>
<path d="M317 378.354H310V393.408H317V378.354Z" fill="#36475D"/>
<path d="M323 312.761H253V381.579H323V312.761Z" fill="#3167BC"/>
<path d="M253.034 312.761V303.422C253.034 303.422 251.646 295.034 266.638 294.585H309.812C309.812 294.585 322.028 293.087 323 301.475V312.707L253.034 312.761Z" fill="#219653"/>
<path opacity="0.4" d="M132.671 158.995H211L193.088 218.136H115L132.671 158.995Z" fill="url(#paint5_linear)"/>
<path d="M145 203.082H192" stroke="#36475D" stroke-width="3" stroke-miterlimit="10"/>
<path d="M191 199.856L193 202.336L191.155 205.232" stroke="#36475D" stroke-width="3" stroke-miterlimit="10"/>
<path d="M144 203.082L154 166.522" stroke="#36475D" stroke-width="3" stroke-miterlimit="10"/>
<path d="M152 167.286L154.434 165.447L156 168.673" stroke="#36475D" stroke-width="3" stroke-miterlimit="10"/>
<path d="M166.817 167.598H172L162.186 202.007H157L166.817 167.598Z" fill="#E70000"/>
<path d="M174.751 178.35H180L173.249 202.006H168L174.751 178.35Z" fill="#FAE800"/>
<path d="M188.015 174.049H193L184.985 202.006H180L188.015 174.049Z" fill="#186BFE"/>
<path d="M148 189.103L170.26 179.657L177.586 183.494L199 174.049" stroke="#36475D" stroke-width="3" stroke-miterlimit="10"/>
<path opacity="0.6" d="M137.645 162.221H207L191.142 213.834H122L137.645 162.221Z" fill="white"/>
<path d="M68 294.38L72.9348 290.18C72.9348 290.18 80.1315 294.981 80.8854 295.731C81.6393 296.481 84.8607 305.856 84.9977 306.606C85.1348 307.356 78.9663 308.257 78.0753 305.631C77.1843 303.006 68.5483 297.456 68 294.38Z" fill="#FCBC96"/>
<path d="M143 192.43C143 192.43 145.791 181.612 146.589 181.009C147.386 180.407 156.554 176.288 157.349 176.202C158.144 176.117 157.988 178.092 157.988 178.092C157.988 178.092 151.458 185.046 150.972 189.596C150.487 194.146 147.307 197.412 146.35 196.467C145.393 195.522 143 192.43 143 192.43Z" fill="#FCBC96"/>
<path d="M125.285 257.164C125.285 257.164 131.251 258.988 136.282 255.138C141.314 251.288 198.153 228.804 198.153 228.804C198.153 228.804 205.793 223.742 216.79 236.503L227.784 249.265L257.787 281.672L237.568 279.545L202.905 251.288L159.297 273.469L315 286.23L314.72 295.953L114.85 296.56C114.85 296.56 101.153 297.776 100.035 290.18C98.9164 282.584 125.285 257.164 125.285 257.164Z" fill="#36465C"/>
<path d="M251 280.502L207.517 241.028C207.517 241.028 203.057 239.521 198.598 243.137C194.138 246.753 154 266.039 154 266.039" stroke="#2B3947" stroke-width="2" stroke-miterlimit="10"/>
<path d="M315 291.255L132.617 283.153L117 278.352" stroke="#2B3947" stroke-width="2" stroke-miterlimit="10"/>
<path d="M114 281.578L131 282.653" stroke="#2B3947" stroke-width="2" stroke-miterlimit="10"/>
<path d="M52.1303 213.835L30.4581 250.838C30.4581 250.838 26.159 256.268 32.3246 264.112C38.4903 271.955 65.2099 294.481 65.2099 294.481L71 288.448C71 288.448 42.0411 254.86 39.0508 254.057L57.5477 225.7L52.1303 213.835Z" fill="#4985FE"/>
<path d="M85 199.874C85 199.874 122.763 227.662 125.006 229.662C125.006 229.662 127.623 232.262 129.678 227.062C131.733 221.862 141.643 194.479 141.643 194.479C141.643 194.479 147.063 200.276 148 200.075L134.913 240.256C134.913 240.256 130.239 245.854 123.509 240.658C116.779 235.461 90.6082 214.669 90.6082 214.669L85 199.874Z" fill="#4985FE"/>
<path d="M110.16 285.681C84.7301 271.684 58 206.103 58 206.103L62.1543 200.105L77.8611 197.706L81.0185 198.905C88.0714 228.497 120 270.485 120 270.485L111.09 285.879L110.16 285.681Z" fill="white"/>
<path d="M60.9938 203.082L53 214.767C53 214.767 75.0517 279.882 102.801 299.858L113 283.079C113 283.079 64.5716 226.542 60.9938 203.082Z" fill="#2E50A5"/>
<path d="M79 197.706C79 197.706 98.0707 258.525 120.566 270.825L128 257.721C128 257.721 97.6999 242.798 90.4497 209.531L85.2435 199.853L79 197.706Z" fill="#2E50A5"/>
<path d="M60.5027 203.082C60.5027 203.082 65.2575 216.409 67 218.591L61.0077 220.287L57 206.965L60.5027 203.082Z" fill="#4985FE"/>
<path d="M81.3335 198.643L84.7669 199.853C84.7669 199.853 86.4849 209.532 87 210.137L84.0792 212.76L79 197.706L81.3335 198.643Z" fill="#4985FE"/>
<path d="M72.218 188.522L73.504 194.646L78.9994 197.451C78.9994 197.451 79.2337 207.144 70.6977 206.249C70.6977 206.249 67.8915 207.016 62.6276 199.617L64.9681 197.579C64.9681 197.579 64.5273 189.252 62 184.802L72.218 188.522Z" fill="#F9B28F"/>
<path d="M75.9408 156.238C75.9408 156.238 84.0707 162.667 81.4962 181.649C81.4962 181.649 79.4637 195.274 68.0819 190.069L61.849 185.58C61.849 185.58 56.1582 172.311 57.1066 167.413C58.0551 162.514 74.0438 153.635 75.9408 156.238Z" fill="#FCBC96"/>
<path d="M76.3961 156.007C76.3961 156.007 75.4792 159.801 68.5254 159.801C61.5715 159.801 56.9951 170.392 61.3876 177.984C65.7801 185.575 61.5715 184.778 61.5715 184.778C61.5715 184.778 53.1517 173.189 53.1517 169.793C53.1517 166.397 50.7716 160.002 64.8659 154.607C64.8659 154.607 75.6632 152.608 71.6358 145.017C71.6358 145.017 79.1414 149.212 76.3961 156.007Z" fill="#FE8800"/>
<path d="M55 159.245L59.7723 155.77C59.7723 155.77 62.1557 166.599 66.0088 170.479C69.8618 174.358 61.2392 176.2 61.2392 176.2C61.2392 176.2 55.9192 167.825 55 159.245Z" fill="#7D90AA"/>
<path d="M66 183.727C69.3137 183.727 72 180.598 72 176.737C72 172.877 69.3137 169.748 66 169.748C62.6863 169.748 60 172.877 60 176.737C60 180.598 62.6863 183.727 66 183.727Z" fill="#36475D"/>
<path d="M317.06 296.144V285.39L324 276.201V299.857C324 299.857 316.243 298.684 317.06 296.144Z" fill="#FCBC96"/>
<defs>
<linearGradient id="paint0_linear" x1="1.22368e+06" y1="299562" x2="96817.4" y2="299562" gradientUnits="userSpaceOnUse">
<stop stop-color="#D3E3F3"/>
<stop offset="0.39" stop-color="#D3E3F3"/>
<stop offset="1" stop-color="#D3E3F3"/>
</linearGradient>
<linearGradient id="paint1_linear" x1="400" y1="187.488" x2="338" y2="187.488" gradientUnits="userSpaceOnUse">
<stop stop-color="#36475D"/>
<stop offset="0.24" stop-color="#5B6A7E"/>
<stop offset="0.58" stop-color="#8895A7"/>
<stop offset="0.85" stop-color="#A4AFC1"/>
<stop offset="1" stop-color="#AEB9CA"/>
</linearGradient>
<linearGradient id="paint2_linear" x1="482.5" y1="23.5088" x2="482.5" y2="171.898" gradientUnits="userSpaceOnUse">
<stop stop-color="#04BBBB"/>
<stop offset="1" stop-color="#8CC5F9" stop-opacity="0"/>
</linearGradient>
<linearGradient id="paint3_linear" x1="474" y1="184.263" x2="505" y2="184.263" gradientUnits="userSpaceOnUse">
<stop stop-color="#06006C"/>
<stop offset="0.29" stop-color="#444799"/>
<stop offset="0.78" stop-color="#A8BAE1"/>
<stop offset="1" stop-color="#D0E8FE"/>
</linearGradient>
<linearGradient id="paint4_linear" x1="424.751" y1="60.2096" x2="366.94" y2="60.2096" gradientUnits="userSpaceOnUse">
<stop stop-color="#ECF0F7"/>
<stop offset="0.31" stop-color="#D4DBE6"/>
<stop offset="0.75" stop-color="#B8C2D2"/>
<stop offset="1" stop-color="#AEB9CA"/>
</linearGradient>
<linearGradient id="paint5_linear" x1="115" y1="188.567" x2="211" y2="188.567" gradientUnits="userSpaceOnUse">
<stop stop-color="#AEB9CA"/>
<stop offset="0.12" stop-color="#B2BFD0"/>
<stop offset="1" stop-color="#D0E8FE"/>
</linearGradient>
</defs>
</svg>
