<svg width="55" height="91" viewBox="0 0 55 91" fill="none" xmlns="http://www.w3.org/2000/svg">
<path d="M36.9196 14.7755L12.7496 0.845479C12.2815 0.535333 11.7147 0.410563 11.1596 0.495479C11.0112 0.52321 10.8689 0.577406 10.7396 0.655479L5.09961 3.92548C5.42097 3.77933 5.77528 3.72086 6.12656 3.75598C6.47783 3.79111 6.81355 3.91859 7.09961 4.12548L31.1996 18.0455C32.0379 18.5899 32.7321 19.3288 33.2231 20.1995C33.7141 21.0701 33.9874 22.0465 34.0196 23.0455C34.0324 23.3734 33.9554 23.6986 33.7967 23.9859C33.6381 24.2732 33.404 24.5116 33.1196 24.6755L33.1896 24.7355L38.9196 21.4955C39.2055 21.2917 39.4328 21.0162 39.5785 20.6967C39.7242 20.3772 39.7832 20.025 39.7496 19.6755C39.6974 18.6935 39.4138 17.7378 38.922 16.8863C38.4301 16.0347 37.7441 15.3115 36.9196 14.7755Z" fill="#C1D3FE"/>
<path d="M41.8102 28.2454L36.1402 24.9654V23.0754L33.1402 24.7154C32.8222 24.8673 32.4698 24.9325 32.1186 24.9044C31.7674 24.8763 31.4299 24.7559 31.1402 24.5554C31.0704 24.5174 30.992 24.4982 30.9125 24.4995C30.8331 24.5008 30.7554 24.5226 30.6869 24.5629C30.6184 24.6032 30.5616 24.6605 30.5218 24.7293C30.4821 24.7981 30.4608 24.876 30.4602 24.9554V27.9554C30.4577 28.0369 30.4779 28.1174 30.5185 28.188C30.5591 28.2586 30.6186 28.3166 30.6902 28.3554L36.1402 31.5054C36.319 31.6147 36.4835 31.7457 36.6302 31.8954L36.6902 31.9454C37.205 32.4872 37.5038 33.1986 37.5302 33.9454L37.4102 73.0754C37.4275 73.2497 37.3988 73.4255 37.3268 73.5853C37.2549 73.745 37.1422 73.883 37.0002 73.9854L42.6402 70.7154C42.7838 70.6121 42.8974 70.4725 42.9694 70.3108C43.0415 70.1492 43.0693 69.9714 43.0502 69.7954L43.1602 30.6754C43.143 30.1926 43.0117 29.7207 42.777 29.2983C42.5424 28.8759 42.211 28.5151 41.8102 28.2454Z" fill="#C1D3FE"/>
<path d="M2.11035 11.8553L7.11035 14.7453C7.18083 14.7827 7.25967 14.8015 7.33945 14.8C7.41922 14.7985 7.49729 14.7767 7.56632 14.7367C7.63534 14.6967 7.69304 14.6398 7.73399 14.5713C7.77493 14.5028 7.79777 14.425 7.80035 14.3453V11.4453C7.80035 11.0053 7.10035 10.6253 7.10035 10.6253C6.48103 10.2575 5.94609 9.76349 5.53035 9.17529L1.11035 11.7353C1.27275 11.665 1.45088 11.6391 1.62656 11.6602C1.80224 11.6813 1.96919 11.7486 2.11035 11.8553Z" fill="#C1D3FE"/>
<path d="M36.1801 31.5253L30.7301 28.3753C30.6585 28.3365 30.5991 28.2785 30.5584 28.2079C30.5178 28.1373 30.4976 28.0567 30.5001 27.9753V24.9753C30.5008 24.8959 30.522 24.818 30.5617 24.7492C30.6015 24.6804 30.6584 24.6231 30.7268 24.5828C30.7953 24.5425 30.873 24.5207 30.9525 24.5194C31.0319 24.518 31.1103 24.5373 31.1801 24.5753C32.6001 25.3953 33.9801 24.7453 34.0501 23.1053C34.0179 22.1063 33.7446 21.1299 33.2536 20.2593C32.7626 19.3887 32.0684 18.6497 31.2301 18.1053L7.14008 4.13532C5.54008 3.21532 4.25008 3.97532 4.27008 5.81532C4.33151 6.78556 4.61952 7.72788 5.111 8.56668C5.60247 9.40549 6.28372 10.1174 7.10008 10.6453C7.10008 10.6453 7.80008 11.0253 7.80008 11.4653V14.3453C7.7975 14.4251 7.77466 14.5028 7.73372 14.5713C7.69277 14.6398 7.63507 14.6967 7.56604 14.7367C7.49702 14.7767 7.41894 14.7985 7.33917 14.8C7.2594 14.8015 7.18056 14.7827 7.11008 14.7453L2.11008 11.8553C1.33008 11.4053 0.700079 11.7753 0.690079 12.6653L0.580078 51.7953C0.608337 52.2864 0.751563 52.7639 0.998213 53.1895C1.24486 53.615 1.58804 53.9767 2.00008 54.2453L36.0501 73.9153C36.8301 74.3653 37.4701 73.9953 37.4701 73.0953L37.5901 33.9653C37.563 33.4765 37.4212 33.0009 37.1763 32.5771C36.9313 32.1532 36.5901 31.7929 36.1801 31.5253Z" fill="#EDF2FB"/>
<path d="M42.06 27.8154L36.64 24.6754V23.3654L39.12 21.9254C39.4851 21.6815 39.778 21.344 39.968 20.9482C40.158 20.5524 40.2381 20.1128 40.2 19.6754C40.1525 18.6049 39.8478 17.5616 39.3117 16.6338C38.7755 15.706 38.0238 14.9211 37.12 14.3454L13 0.445373C12.4268 0.072215 11.7352 -0.0739618 11.06 0.0353736C10.8593 0.0720035 10.6665 0.14305 10.49 0.245374L4.85 3.49537C4.79132 3.52753 4.74018 3.57186 4.7 3.62537C4.37849 3.88942 4.12589 4.22757 3.9639 4.61077C3.80191 4.99398 3.73537 5.41078 3.77 5.82537C3.81113 6.96228 4.15647 8.06734 4.77 9.02537L0.77 11.3254C0.554745 11.4714 0.380873 11.6706 0.26524 11.9037C0.149606 12.1367 0.0961323 12.3956 0.110001 12.6554L0 51.7854C0.0268577 52.3656 0.19254 52.9308 0.483131 53.4337C0.773723 53.9366 1.18074 54.3624 1.67 54.6754L35.8 74.3454C36.0691 74.5078 36.3758 74.5975 36.69 74.6054C36.9036 74.6046 37.1135 74.5496 37.3 74.4454L42.92 71.1654C43.1405 71.0198 43.318 70.8178 43.4341 70.5804C43.5501 70.343 43.6005 70.0788 43.58 69.8154L43.69 30.6954C43.6701 30.1196 43.5115 29.5571 43.2277 29.0557C42.944 28.5543 42.5434 28.1288 42.06 27.8154ZM10.99 1.08537C11.0731 1.03578 11.1646 1.00189 11.26 0.985373C11.696 0.932485 12.1364 1.03904 12.5 1.28537L36.62 15.2054C37.3654 15.7013 37.986 16.3628 38.4336 17.1382C38.8811 17.9136 39.1434 18.7819 39.2 19.6754C39.2314 19.9374 39.1945 20.2031 39.0929 20.4467C38.9913 20.6902 38.8284 20.9034 38.62 21.0654L34.51 23.4454C34.51 23.3254 34.51 23.2154 34.51 23.0954C34.4858 21.9991 34.1933 20.9254 33.6581 19.9684C33.123 19.0113 32.3614 18.2 31.44 17.6054L7.39 3.70537C7.23963 3.60779 7.08257 3.52091 6.92 3.44537L10.99 1.08537ZM6.86 11.0854C7.03449 11.1757 7.18524 11.3059 7.3 11.4654L7.36 14.3054L2.52 11.5154L5.41 9.83537C5.81871 10.3315 6.30908 10.7542 6.86 11.0854ZM36.3 73.4454L2.25 53.8154C1.91727 53.5913 1.6393 53.2952 1.43674 52.9489C1.23419 52.6027 1.11225 52.2152 1.08 51.8154L1.19 12.6854C1.18221 12.5994 1.1934 12.5127 1.22277 12.4315C1.25215 12.3503 1.29899 12.2765 1.36 12.2154C1.39936 12.2052 1.44064 12.2052 1.48 12.2154C1.61484 12.2222 1.74567 12.2636 1.86 12.3354L6.86 15.2254C7.01202 15.3131 7.18446 15.3593 7.36 15.3593C7.53554 15.3593 7.70798 15.3131 7.86 15.2254C8.00313 15.1383 8.12209 15.0167 8.20596 14.8717C8.28983 14.7266 8.33592 14.5629 8.34 14.3954V11.4454C8.34 10.7354 7.53 10.2754 7.39 10.1954C6.64756 9.71057 6.02801 9.05979 5.58025 8.29444C5.1325 7.52909 4.8688 6.67013 4.81 5.78537C4.77337 5.51712 4.80763 5.24395 4.90939 4.99306C5.01115 4.74218 5.17685 4.52232 5.39 4.35537C5.642 4.25232 5.91647 4.21657 6.18646 4.25164C6.45645 4.2867 6.71268 4.39137 6.93 4.55537L30.99 18.4454C31.755 18.9484 32.3878 19.6279 32.8351 20.4268C33.2823 21.2256 33.531 22.1203 33.56 23.0354C33.5743 23.2727 33.5242 23.5095 33.4151 23.7207C33.306 23.9319 33.1418 24.1097 32.94 24.2354C32.6981 24.341 32.4331 24.3827 32.1704 24.3565C31.9077 24.3302 31.6562 24.2368 31.44 24.0854C31.293 24.0149 31.1311 23.9813 30.9682 23.9877C30.8053 23.9941 30.6464 24.0403 30.5054 24.1221C30.3645 24.2039 30.2456 24.319 30.1593 24.4572C30.0729 24.5955 30.0217 24.7528 30.01 24.9154V27.9154C30.0082 28.0841 30.0518 28.2501 30.1362 28.3962C30.2207 28.5422 30.3429 28.6628 30.49 28.7454L35.92 31.9554C36.2514 32.18 36.5278 32.4765 36.7287 32.8228C36.9295 33.169 37.0496 33.5562 37.08 33.9554L36.96 73.0854C36.9925 73.1723 36.9929 73.2679 36.9612 73.3551C36.9295 73.4423 36.8678 73.5154 36.7871 73.5612C36.7064 73.6069 36.612 73.6224 36.5209 73.6049C36.4298 73.5873 36.3479 73.5379 36.29 73.4654L36.3 73.4454ZM42.61 69.7854C42.61 70.0254 42.55 70.2154 42.45 70.2654L37.98 72.8654L38.09 33.9354C38.0627 33.3592 37.8978 32.7979 37.609 32.2985C37.3202 31.7992 36.9159 31.3763 36.43 31.0654L31 27.9454L30.94 24.9454C31.3153 25.1819 31.7422 25.3246 32.1843 25.3611C32.6265 25.3977 33.0709 25.3271 33.48 25.1554L35.64 23.9054V24.9054C35.6208 25.0136 35.6378 25.1252 35.6884 25.2228C35.7391 25.3205 35.8204 25.3987 35.92 25.4454L41.6 28.7254C41.9345 28.9467 42.2133 29.2424 42.4145 29.5893C42.6158 29.9363 42.734 30.3251 42.76 30.7254L42.61 69.7854Z" fill="#011627"/>
<path d="M42.7796 55.7653C39.6196 53.9453 36.7796 53.7653 34.6996 54.9753L29.0596 58.2453C31.1296 57.0453 33.9796 57.2453 37.1396 59.0353C43.4096 62.6653 48.4696 71.4453 48.4496 78.6353C48.4496 82.2153 47.1796 84.7353 45.1396 85.9153L50.7796 82.6353C52.7796 81.4453 54.0796 78.9353 54.0896 75.3553C54.1096 68.1553 49.0496 59.3853 42.7796 55.7653Z" fill="#F7DA61"/>
<path d="M45.1324 85.9213C49.5591 83.3491 49.5485 75.0702 45.1089 67.4299C40.6692 59.7895 33.4817 55.681 29.0551 58.2532C24.6285 60.8255 24.6391 69.1043 29.0787 76.7447C33.5183 84.385 40.7058 88.4935 45.1324 85.9213Z" fill="#FFEC8D"/>
<path d="M37.8098 71.7353V64.9953C38.4751 65.5349 39.0432 66.1842 39.4898 66.9153C40.0636 67.7816 40.3919 68.7872 40.4398 69.8253C40.4543 70.0689 40.5251 70.3058 40.6466 70.5174C40.768 70.7291 40.9368 70.9098 41.1398 71.0453C41.5298 71.2653 41.8498 71.0953 41.8598 70.6353C41.7909 69.0738 41.3002 67.5601 40.4398 66.2553C39.7594 65.1304 38.87 64.146 37.8198 63.3553V62.2453C37.8065 62.0002 37.7352 61.7618 37.6117 61.5497C37.4883 61.3376 37.3163 61.1579 37.1098 61.0253C36.7198 60.7953 36.3998 61.0253 36.3998 61.4253V62.5353C35.9926 62.3415 35.5499 62.2335 35.0992 62.218C34.6484 62.2025 34.1994 62.2799 33.7798 62.4453C33.2962 62.7082 32.9018 63.1092 32.6471 63.5973C32.3924 64.0853 32.2889 64.6381 32.3498 65.1853C32.4195 66.7513 32.9063 68.2704 33.7598 69.5853C34.4505 70.6942 35.3425 71.6642 36.3898 72.4453V79.1853C35.7268 78.6433 35.159 77.9943 34.7098 77.2653C34.1183 76.4041 33.7726 75.3981 33.7098 74.3553C33.6976 74.1098 33.6278 73.8705 33.5063 73.6569C33.3847 73.4433 33.2146 73.2612 33.0098 73.1253C32.6198 72.9053 32.2998 73.1253 32.2998 73.5353C32.3584 75.1002 32.8462 76.6189 33.7098 77.9253C34.3903 79.0501 35.2796 80.0345 36.3298 80.8253V81.9353C36.3431 82.1803 36.4144 82.4187 36.5379 82.6308C36.6613 82.8429 36.8333 83.0226 37.0398 83.1553C37.4298 83.3853 37.7498 83.1553 37.7498 82.7553V81.6353C38.1562 81.8399 38.6007 81.958 39.0551 81.9821C39.5095 82.0062 39.964 81.9358 40.3898 81.7753C40.8743 81.5106 41.269 81.1078 41.5236 80.618C41.7783 80.1283 41.8814 79.5738 41.8198 79.0253C41.7562 77.4612 41.2688 75.9438 40.4098 74.6353C39.7347 73.5126 38.8524 72.5285 37.8098 71.7353ZM34.7098 68.8653C34.134 68.0006 33.8087 66.9934 33.7698 65.9553C33.7324 65.589 33.8082 65.22 33.987 64.8981C34.1658 64.5763 34.439 64.317 34.7698 64.1553C35.0358 64.0436 35.3213 63.9861 35.6098 63.9861C35.8983 63.9861 36.1838 64.0436 36.4498 64.1553V70.7553C35.7686 70.2266 35.1805 69.5878 34.7098 68.8653ZM39.4798 80.0153C38.9379 80.2349 38.3317 80.2349 37.7898 80.0153V73.4153C38.4548 73.9552 39.0229 74.6045 39.4698 75.3353C40.0453 76.1964 40.3707 77.2003 40.4098 78.2353C40.4465 78.5905 40.3779 78.9486 40.2125 79.2651C40.0472 79.5817 39.7924 79.8425 39.4798 80.0153Z" fill="#011627"/>
<path d="M43.03 55.3353C39.81 53.4753 36.76 53.1953 34.45 54.5453L28.8 57.8253C26.52 59.1553 25.26 61.8953 25.25 65.5253C25.25 72.8853 30.42 81.8653 36.81 85.5253C38.4216 86.5238 40.2654 87.0856 42.16 87.1553C43.2845 87.1668 44.392 86.8804 45.37 86.3253L51.03 83.0353C53.32 81.7053 54.58 78.9653 54.59 75.3253C54.61 68.0153 49.42 59.0253 43.03 55.3353ZM37.31 84.6953C31.19 81.1653 26.23 72.5653 26.25 65.5353C26.25 62.2453 27.35 59.8053 29.33 58.6753C30.1572 58.2016 31.0969 57.9598 32.05 57.9753C33.7735 58.0337 35.452 58.5403 36.92 59.4453C43.01 63.0053 47.97 71.6053 47.92 78.6353C47.92 81.9253 46.82 84.3653 44.84 85.4953C42.86 86.6253 40.2 86.3653 37.31 84.6953ZM50.53 82.2153L47.79 83.8053C48.59 82.206 48.9784 80.4325 48.92 78.6453C48.92 71.2853 43.76 62.3053 37.36 58.6453C35.7948 57.6846 34.014 57.1311 32.18 57.0353L34.92 55.4453C36.92 54.2853 39.6 54.5653 42.5 56.2353C48.62 59.7753 53.58 68.3653 53.56 75.4053C53.58 78.6353 52.49 81.0653 50.53 82.2153Z" fill="#011627"/>
</svg>
