<svg width="83" height="88" viewBox="0 0 83 88" fill="none" xmlns="http://www.w3.org/2000/svg">
<path d="M24.0002 33.8819C28.7002 36.6019 32.5002 43.1819 32.4802 48.5819V63.2119C32.4802 64.1019 31.8402 64.4719 31.0602 64.0219L1.8702 47.1819C1.45891 46.9148 1.11613 46.5549 0.869478 46.1311C0.622826 45.7072 0.479206 45.2314 0.450195 44.7419V30.1119C0.450195 24.7119 4.29019 22.5319 8.9802 25.2419L24.0002 33.8819Z" fill="#EDF2FB"/>
<path d="M29.6405 30.6117L14.6405 21.9717C12.2805 20.6017 10.1305 20.4717 8.64047 21.3717L2.98047 24.6917C4.53047 23.7917 6.67047 23.9217 9.03047 25.2817L24.0305 33.9217C28.7305 36.6417 32.5305 43.2217 32.5105 48.6217V63.2517C32.526 63.4244 32.4964 63.5982 32.4245 63.7559C32.3526 63.9137 32.241 64.0501 32.1005 64.1517L37.7405 60.8817C37.8825 60.7792 37.9952 60.6412 38.0671 60.4815C38.1391 60.3218 38.1678 60.146 38.1505 59.9717V45.3417C38.1405 39.9017 34.3405 33.3217 29.6405 30.6117Z" fill="#C1D3FE"/>
<path d="M29.89 30.1719L14.89 21.5319C12.44 20.1219 10.11 19.9119 8.34 20.9419L2.72 24.2319C0.97 25.2319 0 27.3319 0 30.1119V44.7419C0.0284273 45.3204 0.194851 45.8836 0.485372 46.3847C0.775893 46.8857 1.18208 47.3099 1.67 47.6219L30.79 64.4519C31.0591 64.6144 31.3658 64.704 31.68 64.7119C31.8942 64.716 32.1053 64.6606 32.29 64.5519L37.94 61.2719C38.1597 61.1279 38.3368 60.9277 38.4529 60.692C38.569 60.4563 38.6198 60.1939 38.6 59.9319V45.3019C38.64 39.7519 34.72 32.9619 29.89 30.1719ZM31.27 63.5819L2.12 46.7519C1.78727 46.5279 1.5093 46.2317 1.30674 45.8855C1.10419 45.5392 0.982252 45.1518 0.95 44.7519V30.1219C0.95 27.7119 1.75 25.9219 3.19 25.1219C3.80012 24.7798 4.49066 24.6072 5.19 24.6219C6.46368 24.6529 7.70619 25.0222 8.79 25.6919L23.79 34.3319C28.34 36.9619 32.04 43.3319 32.02 48.5919V63.2119C32.0236 63.3046 32.0045 63.3968 31.9645 63.4804C31.9244 63.5641 31.8645 63.6367 31.79 63.6919C31.7008 63.7164 31.6071 63.7191 31.5167 63.7C31.4262 63.6809 31.3416 63.6404 31.27 63.5819ZM37.58 59.9319C37.58 60.1719 37.52 60.3519 37.41 60.4019L32.94 63.0019V48.5819C32.94 43.0319 29.04 36.2419 24.21 33.4519L9.21 24.8119C8.16861 24.1708 7.00285 23.7584 5.79 23.6019L8.88 21.8119C10.33 20.9619 12.31 21.1719 14.43 22.4019L29.43 31.0419C33.98 33.6719 37.68 40.0419 37.66 45.3019L37.58 59.9319Z" fill="#011627"/>
<path d="M22.9825 27.0531C26.6017 24.9489 26.592 18.1799 22.9607 11.9341C19.3294 5.68833 13.4517 2.33091 9.8325 4.43512C6.21327 6.53932 6.22302 13.3083 9.8543 19.5541C13.4856 25.7999 19.3633 29.1573 22.9825 27.0531Z" fill="#EDF2FB"/>
<path d="M22.2202 1.78189C19.6302 0.291893 17.2802 0.151893 15.5902 1.13189L9.9502 4.41189C11.6502 3.41189 13.9502 3.56189 16.5902 5.06189C21.7402 8.06189 25.9002 15.2419 25.8802 21.1619C25.8802 24.1019 24.8802 26.1619 23.1602 27.1619L28.7902 23.8719C30.4702 22.8719 31.5002 20.8719 31.5102 17.8719C31.5402 11.9719 27.3802 4.76189 22.2202 1.78189Z" fill="#C1D3FE"/>
<path d="M22.4697 1.35175C19.7897 -0.188245 17.2697 -0.418245 15.3397 0.691755L9.67969 3.99176C7.78969 5.10176 6.73969 7.37175 6.67969 10.3918C6.67969 16.4618 10.9397 23.8818 16.2297 26.9318C17.5633 27.7605 19.0905 28.2259 20.6597 28.2818C21.6014 28.2921 22.5292 28.0541 23.3497 27.5918L28.9997 24.3018C30.9097 23.1918 31.9997 20.9218 31.9997 17.8918C32.0397 11.8218 27.7897 4.40175 22.4697 1.35175ZM16.7897 26.0618C11.7897 23.1718 7.71969 16.1418 7.78969 10.3918C7.78969 7.73175 8.67969 5.75176 10.2697 4.83176C10.9389 4.45973 11.6941 4.27007 12.4597 4.28175C13.8356 4.34435 15.1721 4.76114 16.3397 5.49176C21.3397 8.38175 25.3997 15.4118 25.3397 21.1618C25.3397 23.8318 24.4497 25.8018 22.8597 26.7218C21.2697 27.6418 19.1197 27.4118 16.7897 26.0618ZM28.5597 23.4418L25.5597 25.1718C26.1251 23.9157 26.4019 22.5489 26.3697 21.1718C26.3697 15.1018 22.1097 7.69175 16.8297 4.64175C15.6135 3.90291 14.2462 3.44826 12.8297 3.31175L15.8297 1.58175C17.4397 0.641755 19.6197 0.871755 21.9597 2.23175C26.9597 5.12175 31.0297 12.1418 30.9597 17.9018C31.0197 20.5418 30.1397 22.5218 28.5497 23.4418H28.5597Z" fill="#011627"/>
<path d="M68.1801 61.2418C72.8801 63.9518 76.6801 70.5318 76.6601 75.9418V85.5218C76.6601 86.4218 76.0301 86.7818 75.2401 86.3318L52.2401 73.0818C51.8299 72.8121 51.4887 72.4499 51.2438 72.0244C50.9989 71.5989 50.8572 71.122 50.8301 70.6318V61.0518C50.8301 55.6418 54.6701 53.4618 59.3701 56.1718L68.1801 61.2418Z" fill="#EDF2FB"/>
<path d="M73.79 57.9618L65.01 52.9018C63.7914 52.1274 62.3738 51.7243 60.93 51.7418C60.2268 51.7657 59.5402 51.9614 58.93 52.3118L53.29 55.5818C54.84 54.6918 56.98 54.8118 59.35 56.1718L68.12 61.2418C72.82 63.9518 76.62 70.5318 76.6 75.9418V85.5218C76.6174 85.6961 76.5886 85.8719 76.5167 86.0316C76.4447 86.1913 76.3321 86.3293 76.19 86.4318L81.83 83.1618C81.9737 83.0584 82.0873 82.9188 82.1593 82.7571C82.2314 82.5955 82.2592 82.4177 82.24 82.2418V72.6618C82.31 67.2618 78.52 60.6918 73.79 57.9618Z" fill="#C1D3FE"/>
<path d="M74.0701 57.5317L65.2901 52.4717C63.9885 51.652 62.4782 51.225 60.9401 51.2417C60.1665 51.2701 59.4115 51.4863 58.7401 51.8717L53.0901 55.1617C51.3401 56.1617 50.3701 58.2717 50.3701 61.0517V70.6317C50.3983 71.2091 50.5635 71.7714 50.8522 72.2722C51.1408 72.7731 51.5446 73.1979 52.0301 73.5117L75.0301 86.7617C75.2972 86.9299 75.6046 87.0231 75.9201 87.0317C76.1367 87.0296 76.3496 86.9747 76.5401 86.8717L82.1801 83.5917C82.3899 83.441 82.5566 83.238 82.6636 83.0029C82.7706 82.7678 82.8142 82.5088 82.7901 82.2517V72.6917C82.7901 67.1117 78.9001 60.3217 74.0701 57.5317ZM52.5001 72.6917C52.1651 72.4709 51.8859 72.1754 51.6846 71.8283C51.4833 71.4812 51.3653 71.0921 51.3401 70.6917V61.1117C51.3401 58.7017 52.1401 56.9117 53.5701 56.1117C54.18 55.7691 54.8707 55.5964 55.5701 55.6117C56.8359 55.6678 58.0657 56.0502 59.1401 56.7217L67.9301 61.6917C72.4801 64.3217 76.1801 70.6917 76.1601 75.9617V85.5417C76.1722 85.6286 76.164 85.7172 76.1363 85.8004C76.1085 85.8837 76.0619 85.9594 76.0001 86.0217C75.9131 86.0451 75.8219 86.0482 75.7335 86.0309C75.6451 86.0135 75.5618 85.9762 75.4901 85.9217L52.5001 72.6917ZM81.7901 82.2417C81.8022 82.3286 81.794 82.4172 81.7663 82.5004C81.7385 82.5837 81.6919 82.6594 81.6301 82.7217L77.1501 85.3217V75.9417C77.1501 70.3917 73.2501 63.6017 68.4201 60.8117L59.6501 55.7417C58.5815 55.0969 57.3889 54.6846 56.1501 54.5317L59.2301 52.7417C59.7642 52.4353 60.3648 52.2637 60.9801 52.2417C62.3278 52.2366 63.6491 52.6146 64.7901 53.3317L73.5701 58.4017C78.1201 61.0217 81.7901 67.4217 81.7901 72.6917V82.2417Z" fill="#011627"/>
<path d="M63.85 38.9519C66.0365 40.3733 67.8551 42.2924 69.157 44.552C70.4589 46.8116 71.207 49.3475 71.34 51.9519C71.33 56.6919 67.95 58.6919 63.79 56.2419C61.6017 54.8217 59.7811 52.9031 58.4775 50.6434C57.1738 48.3837 56.4242 45.8473 56.29 43.2419C56.31 38.4719 59.69 36.5519 63.85 38.9519Z" fill="#EDF2FB"/>
<path d="M69.4902 35.6915C67.3902 34.4815 65.4902 34.3715 64.1302 35.1715L58.4902 38.4215C59.8602 37.6215 61.7502 37.7315 63.8502 38.9415C66.0367 40.3629 67.8553 42.282 69.1572 44.5416C70.4591 46.8012 71.2072 49.3371 71.3402 51.9415C71.3402 54.3215 70.5002 55.9415 69.1502 56.7715L74.7902 53.4915C76.1402 52.7015 76.9802 51.0315 76.9802 48.6615C76.8426 46.0623 76.0923 43.5324 74.7906 41.2783C73.4889 39.0243 71.6727 37.11 69.4902 35.6915Z" fill="#C1D3FE"/>
<path d="M69.7896 35.242C67.5996 33.982 65.5196 33.792 63.9296 34.712L58.2796 38.002C56.7196 38.912 55.8496 40.772 55.8496 43.242C55.8496 48.172 59.3096 54.242 63.5996 56.672C64.6874 57.3544 65.9362 57.7373 67.2196 57.782C67.9938 57.7916 68.7566 57.5948 69.4296 57.212L75.0896 53.922C76.6596 53.012 77.5296 51.142 77.5296 48.662C77.4996 43.692 74.0196 37.692 69.7896 35.242ZM64.0496 55.812C61.9355 54.4384 60.1759 52.5848 58.9143 50.4021C57.6526 48.2194 56.9246 45.7695 56.7896 43.252C56.7896 41.142 57.4796 39.582 58.7396 38.852C59.2646 38.5573 59.8576 38.4056 60.4596 38.412C61.5718 38.4695 62.6501 38.814 63.5896 39.412C65.6987 40.7868 67.4535 42.6398 68.7116 44.8205C69.9696 47.0012 70.6953 49.448 70.8296 51.962C70.8296 54.082 70.1296 55.652 68.8296 56.372C67.5296 57.092 65.8996 56.882 64.0496 55.812ZM74.5396 53.062L71.2896 54.942C71.6717 53.9888 71.8587 52.9687 71.8396 51.942C71.8396 47.012 68.3796 40.942 64.0996 38.522C63.1807 37.9713 62.1605 37.6109 61.0996 37.462L64.3396 35.582C65.6096 34.842 67.3396 35.032 69.1996 36.112C71.32 37.4852 73.0852 39.3411 74.3505 41.5276C75.6159 43.7142 76.3455 46.1693 76.4796 48.692C76.4796 50.772 75.7896 52.332 74.5396 53.062Z" fill="#011627"/>
<path d="M46.7164 75.7565C51.143 73.1843 51.1325 64.9054 46.6929 57.2651C42.2532 49.6247 35.0657 45.5162 30.6391 48.0884C26.2125 50.6607 26.2231 58.9396 30.6627 66.5799C35.1023 74.2202 42.2898 78.3287 46.7164 75.7565Z" fill="#6BB4F7"/>
<path d="M42.9397 46.4218C39.7897 44.6018 36.9396 44.4218 34.8596 45.6318L30.6396 48.0818C32.6996 46.8818 35.5596 47.0818 38.7096 48.8718C44.9796 52.4918 50.0497 61.2618 50.0297 68.4618C50.0297 72.0418 48.7496 74.5618 46.7096 75.7418L50.9296 73.2818C52.9296 72.0918 54.2396 69.5818 54.2496 66.0018C54.2796 58.8118 49.2097 50.0418 42.9397 46.4218Z" fill="#258DC1"/>
<path d="M43.19 45.9818C39.98 44.1318 36.93 43.8518 34.61 45.1918L30.37 47.6918C28.09 48.9918 26.79 51.6918 26.79 55.3618C26.79 62.6918 31.99 71.6918 38.39 75.4018C39.9976 76.4012 41.8384 76.9631 43.73 77.0318C44.8577 77.0432 45.9684 76.7569 46.95 76.2018L51.2 73.6918C53.48 72.4018 54.79 69.6918 54.79 66.0218C54.79 58.6918 49.59 49.6918 43.19 45.9818ZM38.89 74.5318C32.79 71.0018 27.79 62.4018 27.79 55.3718C27.79 52.0818 28.9 49.6518 30.87 48.5118C31.6941 48.0394 32.6302 47.7976 33.58 47.8118C35.296 47.8844 36.9638 48.4012 38.42 49.3118C44.54 52.8418 49.51 61.4418 49.49 68.4718C49.49 71.7618 48.38 74.1918 46.41 75.3318C44.44 76.4718 41.79 76.1918 38.89 74.5318ZM50.69 72.8618L49.36 73.6918C50.1679 72.094 50.5697 70.3218 50.53 68.5318C50.53 61.1718 45.36 52.1918 38.96 48.5318C37.4063 47.541 35.6286 46.9565 33.79 46.8318L35.12 46.0618C37.12 44.9018 39.81 45.1818 42.7 46.8518C48.79 50.3918 53.79 58.9818 53.79 66.0218C53.79 69.2918 52.66 71.6918 50.69 72.8618Z" fill="#011627"/>
<path d="M38.6798 61.4716C40.2024 62.43 41.458 63.7578 42.3298 65.3316C42.6098 65.8116 42.6098 66.3316 42.3298 66.4816C42.2497 66.5192 42.1609 66.5344 42.0729 66.5256C41.9849 66.5168 41.9009 66.4843 41.8298 66.4316C41.6171 66.3017 41.4414 66.1192 41.3198 65.9016C40.69 64.7574 39.7777 63.7934 38.6698 63.1016C38.2879 62.8293 37.8413 62.662 37.3745 62.6164C36.9077 62.5708 36.4372 62.6484 36.0098 62.8416C35.9282 62.8748 35.8395 62.8867 35.7521 62.8762C35.6646 62.8657 35.5812 62.8332 35.5098 62.7816C35.3025 62.6525 35.1307 62.4738 35.0098 62.2616C34.7298 61.7716 34.7298 61.2616 35.0098 61.1116C35.5996 60.8455 36.2489 60.7387 36.8928 60.8019C37.5368 60.865 38.153 61.096 38.6798 61.4716Z" fill="#011627"/>
<path d="M38.6905 57.7516C40.879 59.1119 42.6802 61.013 43.9205 63.2716C44.2005 63.7416 44.2005 64.2716 43.9205 64.4216C43.8441 64.4646 43.758 64.4871 43.6705 64.4871C43.5829 64.4871 43.4968 64.4646 43.4205 64.4216C43.2108 64.2911 43.0386 64.1085 42.9205 63.8916C41.9114 62.0645 40.4518 60.5257 38.6805 59.4216C38.072 58.9877 37.361 58.7198 36.6175 58.6444C35.874 58.569 35.1236 58.6887 34.4405 58.9916C34.3648 59.0365 34.2784 59.0602 34.1905 59.0602C34.1025 59.0602 34.0161 59.0365 33.9405 58.9916C33.7288 58.8681 33.5556 58.688 33.4405 58.4716C33.1605 57.9916 33.1605 57.4716 33.4405 57.3116C34.8905 56.3816 36.7905 56.6916 38.6905 57.7516Z" fill="#011627"/>
<path d="M38.6703 64.9518C37.3603 64.1918 36.2903 64.8018 36.2803 66.3118C36.3257 67.1333 36.5639 67.9325 36.9757 68.6448C37.3874 69.3571 37.9611 69.9624 38.6503 70.4118C39.9603 71.1618 41.0303 70.5618 41.0303 69.0518C40.9883 68.2306 40.7526 67.4311 40.3424 66.7185C39.9323 66.0059 39.3593 65.4005 38.6703 64.9518Z" fill="#011627"/>
<path d="M38.6997 54.0116C41.5478 55.7859 43.8926 58.2616 45.5097 61.2016C45.7897 61.6816 45.7897 62.2016 45.5097 62.3516C45.4344 62.3976 45.3479 62.4219 45.2597 62.4219C45.1715 62.4219 45.085 62.3976 45.0097 62.3516C44.8 62.2169 44.6279 62.0311 44.5097 61.8116C43.125 59.3075 41.1212 57.2003 38.6897 55.6916C36.5897 54.4716 34.4797 54.1716 32.8597 55.0916C32.7841 55.1365 32.6977 55.1602 32.6097 55.1602C32.5217 55.1602 32.4354 55.1365 32.3597 55.0916C32.1501 54.9611 31.9778 54.7785 31.8597 54.5616C31.5897 54.0916 31.5897 53.5616 31.8597 53.4116C33.7897 52.2416 36.2297 52.5816 38.6997 54.0116Z" fill="#011627"/>
</svg>
