<svg width="87" height="71" viewBox="0 0 87 71" fill="none" xmlns="http://www.w3.org/2000/svg">
<g clip-path="url(#clip0)">
<path d="M86.4004 29.1055C86.3846 29.2812 86.3227 29.4496 86.2208 29.5936C86.1189 29.7376 85.9808 29.8521 85.8204 29.9255L62.5604 43.4455C62.1236 43.6677 61.6405 43.7835 61.1504 43.7835C60.6603 43.7835 60.1772 43.6677 59.7404 43.4455L43.4704 34.0555L43.4004 56.8855L59.6704 66.2655C60.1092 66.487 60.5939 66.6024 61.0854 66.6024C61.5769 66.6024 62.0616 66.487 62.5004 66.2655L85.7504 52.7555C85.9108 52.6821 86.0489 52.5676 86.1508 52.4236C86.2527 52.2796 86.3146 52.1112 86.3304 51.9355L86.4004 29.1055Z" fill="#C1D3FE"/>
<path d="M70.1897 17.6354L56.7097 9.8554C56.4912 9.7447 56.2497 9.68701 56.0047 9.68701C55.7598 9.68701 55.5182 9.7447 55.2997 9.8554L54.5997 10.2654L28.5197 25.4154L27.8097 25.8354C27.7309 25.8712 27.6627 25.927 27.6119 25.9971C27.561 26.0672 27.5293 26.1493 27.5197 26.2354L27.4697 49.0554C27.4775 49.1446 27.5096 49.23 27.5624 49.3023C27.6153 49.3746 27.687 49.431 27.7697 49.4654L41.2297 57.2554C41.4475 57.3685 41.6893 57.4275 41.9347 57.4275C42.1801 57.4275 42.4219 57.3685 42.6397 57.2554L43.3497 56.8454L43.4697 34.0554L69.4697 18.8654L70.1797 18.4554C70.5797 18.2354 70.5797 17.8654 70.1897 17.6354Z" fill="#EDF2FB"/>
<path d="M27.5198 26.2358C27.5294 26.1497 27.5611 26.0676 27.6119 25.9975C27.6628 25.9273 27.731 25.8716 27.8098 25.8358L28.5198 25.4158L12.1998 15.9958C12.0375 15.9238 11.8973 15.8099 11.7936 15.6658C11.69 15.5216 11.6265 15.3525 11.6098 15.1758L11.5498 37.9958C11.5648 38.1743 11.6275 38.3455 11.7312 38.4915C11.835 38.6375 11.9761 38.753 12.1398 38.8258L27.4698 47.6658L27.5198 26.2358Z" fill="#C1D3FE"/>
<path d="M28.5201 25.4157L12.2001 15.9957C11.4201 15.5457 11.4101 14.8157 12.2001 14.3657L35.4701 0.845687C35.9079 0.621063 36.393 0.503906 36.8851 0.503906C37.3772 0.503906 37.8622 0.621063 38.3001 0.845687L54.6201 10.2657L28.5201 25.4157Z" fill="#EDF2FB"/>
<path d="M69.4697 18.8657L85.7897 28.2857C85.9592 28.3458 86.1059 28.4569 86.2096 28.6037C86.3133 28.7506 86.369 28.9259 86.369 29.1057C86.369 29.2855 86.3133 29.4609 86.2096 29.6077C86.1059 29.7546 85.9592 29.8657 85.7897 29.9257L62.5597 43.4457C62.1229 43.6679 61.6398 43.7837 61.1497 43.7837C60.6597 43.7837 60.1765 43.6679 59.7397 43.4457L43.4697 34.0557" fill="#EDF2FB"/>
<path d="M86.0598 27.8556L70.4698 18.8656C70.6153 18.7819 70.7373 18.6629 70.8247 18.5196C70.9121 18.3763 70.962 18.2133 70.9698 18.0456C70.9603 17.8696 70.9045 17.6991 70.8079 17.5516C70.7113 17.4041 70.5774 17.2847 70.4198 17.2056L56.9598 9.42563C56.6667 9.26634 56.3384 9.18289 56.0048 9.18289C55.6712 9.18289 55.3429 9.26634 55.0498 9.42563L54.5998 9.68563L38.5298 0.40563C38.0153 0.139108 37.4443 0 36.8648 0C36.2853 0 35.7143 0.139108 35.1998 0.40563L11.9398 13.9256C11.7073 14.0419 11.5087 14.2162 11.3633 14.4316C11.2179 14.6471 11.1306 14.8965 11.1098 15.1556L11.0498 37.9956C11.0623 38.2621 11.1471 38.5201 11.2951 38.7421C11.4431 38.9641 11.6486 39.1416 11.8898 39.2556L26.9598 47.9556V49.0556C26.9693 49.2317 27.0252 49.4021 27.1217 49.5497C27.2183 49.6972 27.3522 49.8165 27.5098 49.8956L40.9898 57.6756C41.2829 57.8349 41.6112 57.9184 41.9448 57.9184C42.2784 57.9184 42.6067 57.8349 42.8998 57.6756L43.3598 57.4156L59.4698 66.6956C59.9836 66.9646 60.5549 67.1051 61.1348 67.1051C61.7147 67.1051 62.286 66.9646 62.7998 66.6956L85.9998 53.1856C86.237 53.0702 86.439 52.8934 86.585 52.6736C86.7309 52.4538 86.8154 52.199 86.8298 51.9356C86.8298 51.9356 86.8998 29.5856 86.8998 29.1156C86.8831 28.8502 86.7967 28.594 86.6492 28.3727C86.5017 28.1515 86.2984 27.9731 86.0598 27.8556ZM12.4698 14.7956L35.6998 1.27563C36.0625 1.0981 36.461 1.00581 36.8648 1.00581C37.2686 1.00581 37.6671 1.0981 38.0298 1.27563L53.5998 10.2756L28.5198 24.8456L12.4698 15.5656C12.2598 15.4456 12.1298 15.2956 12.1298 15.1756C12.1298 15.0556 12.2398 14.9156 12.4698 14.7956ZM12.1198 22.5456L27.0398 31.1256V35.9656L12.0798 27.3856L12.1198 22.5456ZM12.1198 28.5456L27.0398 37.1256V41.9656L12.0598 33.3756L12.1198 28.5456ZM27.5798 25.4356C27.4339 25.5172 27.3107 25.6341 27.2216 25.7756C27.1325 25.9172 27.0803 26.0787 27.0698 26.2456V29.9856L12.0898 21.3956V16.5156L27.5798 25.4356ZM12.4398 38.4356C12.2298 38.3156 12.0998 38.1656 12.0998 38.0456V34.5256L26.9698 43.1056V46.8056L12.4398 38.4356ZM43.2198 33.6356C43.1428 33.6776 43.0788 33.7399 43.0348 33.8157C42.9907 33.8915 42.9682 33.978 42.9698 34.0656L42.8498 56.5556L42.3898 56.8256C42.2467 56.8899 42.0917 56.9232 41.9348 56.9232C41.778 56.9232 41.6229 56.8899 41.4798 56.8256L27.9498 49.0556L28.0598 26.2556L55.5498 10.2556C55.6939 10.1889 55.851 10.1547 56.0098 10.1556C56.1655 10.1535 56.3196 10.1877 56.4598 10.2556L69.8998 18.0556L43.2198 33.6356ZM85.8298 51.9356C85.8298 52.0556 85.7098 52.1956 85.4998 52.3156L62.2498 65.8356C61.8871 66.0132 61.4886 66.1055 61.0848 66.1055C60.681 66.1055 60.2825 66.0132 59.9198 65.8356L43.8498 56.5556V52.8556L59.4798 61.8556C59.9935 62.1189 60.5625 62.2562 61.1398 62.2562C61.7171 62.2562 62.2861 62.1189 62.7998 61.8556L85.7998 48.3756L85.8298 51.9356ZM85.8298 47.2356L62.3098 61.0556C61.9488 61.233 61.552 61.3253 61.1498 61.3253C60.7476 61.3253 60.3508 61.233 59.9898 61.0556L43.8698 51.7056V46.8656L59.4798 55.8656C59.9935 56.1289 60.5625 56.2662 61.1398 56.2662C61.7171 56.2662 62.2861 56.1289 62.7998 55.8656L85.7998 42.3756L85.8298 47.2356ZM85.8298 41.2356L62.3098 55.0556C61.9488 55.233 61.552 55.3253 61.1498 55.3253C60.7476 55.3253 60.3508 55.233 59.9898 55.0556L43.8798 45.7156V40.8756L59.4698 49.8756C59.9835 50.1389 60.5525 50.2762 61.1298 50.2762C61.7071 50.2762 62.2761 50.1389 62.7898 49.8756L85.8598 36.3756L85.8298 41.2356ZM85.8298 35.2356L62.3098 49.0556C61.9488 49.233 61.552 49.3253 61.1498 49.3253C60.7476 49.3253 60.3508 49.233 59.9898 49.0556L43.8998 39.7256V34.8856L59.4798 43.8856C59.9935 44.1489 60.5625 44.2862 61.1398 44.2862C61.7171 44.2862 62.2861 44.1489 62.7998 43.8856L85.8898 30.4556L85.8298 35.2356ZM85.5098 29.5156L62.3098 43.0556C61.9488 43.233 61.552 43.3253 61.1498 43.3253C60.7476 43.3253 60.3508 43.233 59.9898 43.0556L44.4098 34.0556L69.4698 19.4456L85.5398 28.7156C85.7498 28.8356 85.8798 28.9856 85.8798 29.1056C85.8798 29.2256 85.7698 29.3756 85.5598 29.4956L85.5098 29.5156Z" fill="#011627"/>
<path d="M22.6405 52.6957C17.5405 49.7557 9.31048 49.7557 4.25048 52.6957C-0.809515 55.6357 -0.749515 60.4057 4.31049 63.3457C9.37049 66.2857 17.6405 66.2857 22.7005 63.3457C27.7605 60.4057 27.7305 55.6357 22.6405 52.6957Z" fill="#F7DA61"/>
<path d="M22.4803 58.039C22.4883 55.1616 18.4654 52.8178 13.4949 52.8039C8.52434 52.79 4.4884 55.1114 4.48037 57.9888C4.47233 60.8661 8.49524 63.21 13.4658 63.2239C18.4363 63.2377 22.4723 60.9164 22.4803 58.039Z" fill="#FFEC8D"/>
<path d="M26.4697 58.1257C26.4697 60.0157 25.1797 61.8957 22.6997 63.3457C17.6397 66.2857 9.40973 66.2857 4.30973 63.3457C1.77973 61.8857 0.469727 59.9757 0.469727 58.0557V62.0557C0.469727 64.0557 1.73973 65.9657 4.29973 67.4357C9.39973 70.3557 17.6297 70.3557 22.6897 67.4357C25.1997 65.9757 26.4697 64.0557 26.4697 62.1757V58.1257Z" fill="#DBBE42"/>
<path d="M20.0696 53.8956C18.0196 52.8555 15.7533 52.3135 13.4546 52.3135C11.1558 52.3135 8.88952 52.8555 6.83956 53.8956C4.98956 54.9756 3.96957 56.4356 3.97957 58.0556C3.98957 59.6756 4.97957 61.0556 6.88956 62.1856C8.91656 63.2493 11.1811 63.7793 13.4696 63.7256C15.7728 63.7708 18.0489 63.2233 20.0796 62.1356C21.9596 61.0556 22.9796 59.6056 22.9796 58.0556C22.9796 56.5056 21.9396 54.9756 20.0696 53.8956ZM19.6096 61.2756C17.7164 62.2374 15.623 62.7386 13.4996 62.7386C11.3761 62.7386 9.2827 62.2374 7.38956 61.2756C5.82957 60.3756 4.97957 59.2156 4.97957 58.0056C4.97957 56.7956 5.81957 55.6556 7.34957 54.7656C9.2287 53.7561 11.3369 53.2497 13.4696 53.2956C15.6017 53.2547 17.7087 53.7608 19.5896 54.7656C21.1396 55.6556 21.9996 56.8156 21.9996 58.0356C21.9996 59.2556 21.1396 60.3856 19.6096 61.2756Z" fill="#011627"/>
<path d="M22.89 52.2656C17.66 49.2656 9.19 49.2656 4 52.2656C1.4 53.7756 0 55.8156 0 58.0056V62.1156C0 64.3156 1.45 66.3656 4.09 67.8756C6.97813 69.4003 10.2046 70.1708 13.47 70.1156C16.7568 70.181 20.006 69.4066 22.91 67.8656C25.5 66.3656 26.91 64.3456 26.91 62.1756C26.91 62.1756 26.91 58.0556 26.91 58.0356C26.97 55.8356 25.52 53.7856 22.89 52.2656ZM25.96 62.1756C25.96 63.9756 24.71 65.6856 22.44 66.9956C17.52 69.8356 9.47 69.8356 4.55 67.0556C2.23 65.7256 0.96 63.9856 0.96 62.1556V61.0556C1.77163 62.189 2.82766 63.1254 4.05 63.7956C6.94648 65.3384 10.1888 66.1163 13.47 66.0556C16.7582 66.1224 20.0085 65.3442 22.91 63.7956C24.0923 63.1387 25.1163 62.2307 25.91 61.1356L25.96 62.1756ZM22.47 62.9056C17.55 65.7656 9.53 65.7656 4.58 62.9056C2.27 61.5656 1 59.8256 0.99 57.9856C0.98 56.1456 2.23 54.4456 4.47 53.1256C7.23365 51.6439 10.3352 50.9064 13.47 50.9856C16.6037 50.9173 19.7025 51.6541 22.47 53.1256C24.78 54.4656 26.05 56.2056 26.05 58.0356C26.05 59.8656 24.72 61.5856 22.47 62.9056Z" fill="#011627"/>
<path d="M28.6405 46.6957C23.5405 43.7557 15.3105 43.7557 10.2505 46.6957C5.19048 49.6357 5.25049 54.4057 10.3105 57.3457C15.3705 60.2857 23.6405 60.2857 28.7005 57.3457C33.7605 54.4057 33.7305 49.6357 28.6405 46.6957Z" fill="#F7DA61"/>
<path d="M28.4764 52.0424C28.4844 49.165 24.4615 46.8212 19.491 46.8073C14.5204 46.7934 10.4845 49.1148 10.4765 51.9922C10.4684 54.8696 14.4913 57.2134 19.4619 57.2273C24.4324 57.2412 28.4684 54.9198 28.4764 52.0424Z" fill="#FFEC8D"/>
<path d="M32.4697 52.1257C32.4697 54.0157 31.1797 55.8957 28.6997 57.3457C23.6397 60.2857 15.4097 60.2857 10.3097 57.3457C7.77973 55.8857 6.46973 53.9757 6.46973 52.0557V56.0557C6.46973 57.9857 7.74973 59.9157 10.3097 61.3857C15.4097 64.3057 23.6397 64.3057 28.6997 61.3857C31.1997 59.9757 32.4697 58.0557 32.4697 56.1757V52.1257Z" fill="#DBBE42"/>
<path d="M26.0696 47.8956C24.0196 46.8555 21.7533 46.3135 19.4546 46.3135C17.1558 46.3135 14.8895 46.8555 12.8396 47.8956C10.9896 48.9756 9.96957 50.4356 9.97957 52.0056C9.98957 53.5756 10.9796 55.0056 12.8896 56.1356C14.9119 57.2167 17.1767 57.7639 19.4696 57.7256C21.7728 57.7708 24.0489 57.2233 26.0796 56.1356C27.9596 55.0556 28.9796 53.6056 28.9796 52.0556C28.9796 50.5056 27.9396 48.9756 26.0696 47.8956ZM25.6096 55.2756C23.7164 56.2374 21.623 56.7386 19.4996 56.7386C17.3761 56.7386 15.2827 56.2374 13.3896 55.2756C11.8296 54.3756 10.9796 53.2156 10.9796 52.0056C10.9796 50.7956 11.8196 49.6556 13.3496 48.7656C15.2287 47.7561 17.3369 47.2497 19.4696 47.2956C21.6017 47.2547 23.7087 47.7608 25.5896 48.7656C27.1396 49.6556 27.9996 50.7656 27.9996 52.0356C27.9996 53.3056 27.1396 54.3856 25.6096 55.2756Z" fill="#011627"/>
<path d="M28.89 46.2656C23.66 43.2656 15.19 43.2656 10 46.2656C7.4 47.7756 6 49.8156 6 52.0056V56.1156C6 58.3156 7.45 60.3656 10.09 61.8756C12.9781 63.4003 16.2046 64.1708 19.47 64.1156C22.7568 64.181 26.006 63.4066 28.91 61.8656C31.5 60.3656 32.91 58.3456 32.91 56.1756C32.91 56.1756 32.91 52.0556 32.91 52.0356C32.97 49.8356 31.52 47.7856 28.89 46.2656ZM31.96 56.1756C31.96 57.9756 30.71 59.6856 28.44 60.9956C23.52 63.8356 15.47 63.8356 10.55 61.0556C8.23 59.7256 6.96 57.9856 6.96 56.1556V55.0556C7.77163 56.189 8.82766 57.1254 10.05 57.7956C12.9465 59.3384 16.1888 60.1163 19.47 60.0556C22.7582 60.1224 26.0085 59.3442 28.91 57.7956C30.0923 57.1387 31.1163 56.2307 31.91 55.1356L31.96 56.1756ZM28.47 56.9056C23.55 59.7656 15.53 59.7656 10.58 56.9056C8.27 55.5656 7 53.8256 6.99 51.9856C6.98 50.1456 8.25 48.4356 10.53 47.1156C13.2768 45.6475 16.3563 44.9138 19.47 44.9856C22.6037 44.9173 25.7025 45.6541 28.47 47.1256C30.78 48.4656 32.05 50.2056 32.05 52.0356C32.05 53.8656 30.72 55.5856 28.47 56.9056Z" fill="#011627"/>
<path d="M27.4697 45.1257V49.1257C27.4697 51.0357 26.2097 52.9257 23.6997 54.3857C18.6397 57.3057 10.4097 57.3057 5.30973 54.3857C2.73973 52.9657 1.46973 51.0557 1.46973 49.1057V45.0557" stroke="#011627" stroke-linecap="round" stroke-linejoin="round"/>
<path d="M23.6405 39.6957C18.5405 36.7557 10.3105 36.7557 5.25048 39.6957C0.190485 42.6357 0.250485 47.4057 5.31049 50.3457C10.3705 53.2857 18.6405 53.2857 23.7005 50.3457C28.7605 47.4057 28.7305 42.6357 23.6405 39.6957Z" fill="#F7DA61"/>
<path d="M23.4725 45.0429C23.4805 42.1655 19.4576 39.8217 14.4871 39.8078C9.51653 39.7939 5.48059 42.1153 5.47256 44.9927C5.46452 47.87 9.48743 50.2139 14.458 50.2278C19.4285 50.2416 23.4645 47.9203 23.4725 45.0429Z" fill="#FFEC8D"/>
<path d="M27.4697 45.1257C27.4697 47.0157 26.1797 48.8957 23.6997 50.3457C18.6397 53.2857 10.4097 53.2857 5.30973 50.3457C2.77973 48.8857 1.46973 46.9757 1.46973 45.0557V49.0557C1.46973 51.0557 2.73973 52.9657 5.29973 54.4357C10.3997 57.3557 18.6297 57.3557 23.6897 54.4357C26.1997 52.9757 27.4697 51.0557 27.4697 49.1757V45.1757V45.1257Z" fill="#DBBE42"/>
<path d="M21.0696 40.8956C19.0196 39.8555 16.7533 39.3135 14.4546 39.3135C12.1558 39.3135 9.88952 39.8555 7.83956 40.8956C5.98956 41.9756 4.96957 43.4356 4.97957 45.0556C4.98957 46.6756 5.97957 48.0556 7.88956 49.1856C9.91656 50.2493 12.1811 50.7793 14.4696 50.7256C16.7728 50.7708 19.0489 50.2233 21.0796 49.1356C22.9596 48.0556 23.9796 46.6056 23.9796 45.0556C23.9796 43.5056 22.9396 41.9756 21.0696 40.8956ZM20.6096 48.2756C18.7164 49.2374 16.623 49.7386 14.4996 49.7386C12.3761 49.7386 10.2827 49.2374 8.38956 48.2756C6.82957 47.3756 5.97957 46.2156 5.97957 45.0056C5.97957 43.7956 6.81957 42.6556 8.34957 41.7656C10.2287 40.7561 12.3369 40.2497 14.4696 40.2956C16.6017 40.2547 18.7087 40.7608 20.5896 41.7656C22.1396 42.6556 22.9996 43.7656 22.9996 45.0356C22.9996 46.3056 22.1396 47.3856 20.6096 48.2756Z" fill="#011627"/>
<path d="M23.89 39.2656C18.66 36.2656 10.19 36.2656 5 39.2656C2.4 40.7756 1 42.8156 1 45.0056V49.1156C1 51.3156 2.45 53.3656 5.09 54.8756C7.97813 56.4003 11.2046 57.1708 14.47 57.1156C17.7568 57.181 21.006 56.4066 23.91 54.8656C26.5 53.3656 27.91 51.3456 27.91 49.1756C27.91 49.1756 27.91 45.0556 27.91 45.0356C27.97 42.8356 26.52 40.7856 23.89 39.2656ZM26.96 49.1756C26.96 50.9756 25.71 52.6856 23.44 53.9956C18.52 56.8356 10.47 56.8356 5.55 54.0556C3.23 52.7256 1.96 50.9856 1.96 49.1556V48.0556C2.77163 49.189 3.82766 50.1254 5.05 50.7956C7.94648 52.3384 11.1888 53.1163 14.47 53.0556C17.7582 53.1224 21.0085 52.3442 23.91 50.7956C25.0923 50.1387 26.1163 49.2307 26.91 48.1356L26.96 49.1756ZM23.47 49.9056C18.55 52.7656 10.53 52.7656 5.58 49.9056C3.27 48.5656 2 46.8256 1.99 44.9856C1.98 43.1456 3.23 41.4456 5.47 40.1256C8.23365 38.6439 11.3352 37.9064 14.47 37.9856C17.6037 37.9173 20.7025 38.6541 23.47 40.1256C25.78 41.4656 27.05 43.2056 27.05 45.0356C27.05 46.8656 25.72 48.5856 23.47 49.9056Z" fill="#011627"/>
</g>
<defs>
<clipPath id="clip0">
<rect width="86.9" height="70.1194" fill="white"/>
</clipPath>
</defs>
</svg>
