<svg width="187" height="173" viewBox="0 0 187 173" fill="none" xmlns="http://www.w3.org/2000/svg">
<path d="M116.54 30.7437L92.8198 16.0179C92.3349 15.6357 91.7634 15.4005 91.1651 15.337C90.5668 15.2735 89.9636 15.384 89.4185 15.6569L10.5615 65.0317C11.1057 64.7603 11.707 64.6485 12.3044 64.7077C12.9017 64.7669 13.4739 64.9948 13.9628 65.3685L37.6826 80.1184C40.0357 81.7815 41.6841 84.3753 42.2699 87.3369L121.127 37.9622C120.534 35.0036 118.888 32.4124 116.54 30.7437Z" fill="#EDF2FB"/>
<path d="M42.2704 87.3129C41.6846 84.3512 40.0363 81.7574 37.6831 80.0943L13.9634 65.3443L13.0683 64.9112H12.7997C12.6189 64.8406 12.4313 64.7921 12.2403 64.7668H11.9494H11.4571H11.1886C11.0211 64.7949 10.861 64.8605 10.7187 64.9593C10.3755 65.1431 10.0749 65.407 9.83869 65.7317C9.60253 66.0564 9.43682 66.4338 9.35367 66.8362L0.40282 101.582C0.281671 102.222 0.376889 102.887 0.671346 103.458C0.939629 104.099 1.37491 104.642 1.92446 105.022L49.4982 134.619C49.6843 134.762 49.9073 134.839 50.136 134.839C50.3647 134.839 50.5877 134.762 50.7737 134.619C50.9347 134.407 51.0436 134.155 51.0905 133.886C51.1375 133.616 51.1209 133.339 51.0422 133.079L42.2704 87.3129Z" fill="#EDF2FB"/>
<path d="M129.899 83.7999L121.127 38.0344L42.27 87.3129L51.0419 133.078L129.899 83.7999Z" fill="#C1D3FE"/>
<path d="M50.7734 134.618L129.63 85.3398L129.474 85.4602L50.6392 134.739H50.7958" fill="#7B8307"/>
<path d="M51.0415 133.078L129.898 83.8C129.977 84.0604 129.994 84.3378 129.947 84.6068C129.9 84.8759 129.791 85.128 129.63 85.34L50.7729 134.618C50.9339 134.406 51.0429 134.154 51.0898 133.885C51.1367 133.616 51.1201 133.339 51.0415 133.078Z" fill="#7B8307"/>
<path d="M131.787 83.9319L123.038 38.0459C122.378 34.7599 120.536 31.8881 117.914 30.0574L94.1714 15.3075C93.519 14.8327 92.7616 14.5516 91.9758 14.4925C91.19 14.4333 90.4035 14.5982 89.696 14.9706C89.696 14.9706 10.7271 64.2974 10.7048 64.3455C9.88836 64.892 9.29623 65.7524 9.04886 66.7517L0.0980121 101.497C-0.103417 102.407 0.00785216 103.364 0.411291 104.192C0.785885 105.054 1.38427 105.781 2.13433 106.285L49.7305 135.905C50.1241 136.154 50.5717 136.287 51.0283 136.29C51.5019 136.302 51.9605 136.112 52.3038 135.761C52.5247 135.535 52.7002 135.262 52.8195 134.96C52.9388 134.658 52.9994 134.333 52.9975 134.005L131.317 85.1109C131.489 84.9801 131.624 84.8008 131.707 84.5927C131.79 84.3846 131.818 84.1559 131.787 83.9319ZM90.7701 17.0399C91.1422 16.8992 91.5406 16.8585 91.9307 16.9214C92.3207 16.9843 92.6905 17.1489 93.0078 17.4008L116.728 32.1267C118.574 33.4398 119.936 35.4061 120.576 37.685L43.6886 85.8087C42.8337 83.1628 41.1793 80.901 38.9894 79.3842L15.0012 64.4177L90.7701 17.0399ZM3.23081 104.264C2.87603 103.988 2.5976 103.614 2.42523 103.181C2.25224 102.888 2.17363 102.541 2.20146 102.195L11.1523 67.4495C11.1971 67.2042 11.2927 66.9729 11.4322 66.7729C11.5717 66.5729 11.7514 66.4094 11.9579 66.2945C12.3323 66.1612 12.731 66.1267 13.1204 66.1937C13.5098 66.2607 13.8786 66.4273 14.1956 66.6795L38.0048 81.5257C40.0777 83.0116 41.5305 85.3074 42.0551 87.9261L50.8269 133.644C50.8365 133.707 50.8365 133.772 50.8269 133.836L3.23081 104.264ZM52.6171 131.454L44.3152 88.1427L121.136 40.1634L129.438 83.4747L52.6171 131.454Z" fill="#E1EBF2"/>
<path d="M172.482 66.8362L148.763 52.1104C148.278 51.7282 147.706 51.493 147.108 51.4296C146.51 51.3661 145.906 51.4766 145.361 51.7495L66.5044 101.124C67.0486 100.853 67.6499 100.741 68.2472 100.8C68.8446 100.859 69.4168 101.087 69.9057 101.461L93.6255 116.211C95.9364 117.897 97.5426 120.487 98.1009 123.429L177.07 74.0547C176.477 71.0962 174.83 68.5049 172.482 66.8362Z" fill="#EDF2FB"/>
<path d="M98.2122 123.406C97.6539 120.463 96.0477 117.873 93.7368 116.187L70.0171 101.437L69.122 101.004H68.8535C68.6726 100.933 68.485 100.885 68.294 100.86H68.0031H67.5108H67.2423C67.0748 100.888 66.9147 100.953 66.7724 101.052C66.4292 101.236 66.1286 101.5 65.8924 101.824C65.6562 102.149 65.4905 102.527 65.4074 102.929L56.4565 137.674C56.3354 138.314 56.4306 138.98 56.7251 139.551C56.9933 140.192 57.4286 140.735 57.9782 141.115L105.44 170.711C105.626 170.854 105.849 170.931 106.078 170.931C106.307 170.931 106.53 170.854 106.716 170.711C106.877 170.499 106.985 170.247 107.032 169.978C107.079 169.709 107.063 169.431 106.984 169.171L98.2122 123.406Z" fill="#EDF2FB"/>
<path d="M185.842 119.893L177.07 74.1272L98.2129 123.382L106.985 169.171L185.842 119.893Z" fill="#C1D3FE"/>
<path d="M106.716 170.711L185.573 121.433H185.417L106.582 170.831H106.739" fill="#7B8307"/>
<path d="M106.984 169.171L185.841 119.893C185.92 120.153 185.937 120.43 185.89 120.699C185.843 120.968 185.734 121.22 185.573 121.433L106.716 170.711C106.877 170.499 106.986 170.247 107.033 169.978C107.08 169.709 107.063 169.432 106.984 169.171Z" fill="#7B8307"/>
<path d="M186.938 119.772L178.189 73.8864C177.529 70.6004 175.687 67.7286 173.064 65.8979L149.322 51.148C148.67 50.6733 147.912 50.3922 147.127 50.333C146.341 50.2739 145.554 50.4388 144.847 50.8112C144.847 50.8112 65.878 100.138 65.8556 100.186C65.0392 100.732 64.4471 101.593 64.1997 102.592L55.2489 137.337C55.0475 138.247 55.1587 139.204 55.5622 140.032C55.9368 140.894 56.5351 141.621 57.2852 142.126L104.881 171.746C105.275 171.995 105.723 172.127 106.179 172.131C106.653 172.143 107.111 171.952 107.455 171.601C107.676 171.375 107.851 171.102 107.97 170.8C108.09 170.498 108.15 170.173 108.148 169.845L186.468 120.951C186.64 120.821 186.775 120.641 186.858 120.433C186.941 120.225 186.969 119.996 186.938 119.772ZM145.921 52.8805C146.293 52.7397 146.691 52.699 147.082 52.7619C147.472 52.8248 147.841 52.9895 148.159 53.2414L171.878 67.9672C173.725 69.2804 175.087 71.2466 175.727 73.5255L98.8395 121.649C97.9846 119.003 96.3302 116.741 94.1403 115.225L70.1521 100.258L145.921 52.8805ZM58.3817 140.105C58.0269 139.829 57.7485 139.454 57.5761 139.022C57.4061 138.718 57.3352 138.363 57.3747 138.011L66.3256 103.266C66.3703 103.021 66.466 102.789 66.6055 102.589C66.745 102.389 66.9247 102.226 67.1311 102.111C67.5055 101.978 67.9042 101.943 68.2936 102.01C68.6831 102.077 69.0518 102.244 69.3688 102.496L93.1557 117.366C95.2286 118.852 96.6814 121.148 97.206 123.767L105.978 169.484C105.987 169.548 105.987 169.613 105.978 169.677L58.3817 140.105ZM107.768 167.294L99.4661 123.983L176.287 75.8595L184.589 119.171L107.768 167.294Z" fill="#E1EBF2"/>
<path d="M127.437 66.8365L121.619 69.5795C121.652 70.1966 121.652 70.8152 121.619 71.4323C121.733 72.6927 121.537 73.9633 121.05 75.1163C120.563 76.2693 119.802 77.2642 118.844 78.0012L125.244 74.0551C126.202 73.3181 126.962 72.3231 127.449 71.1701C127.936 70.0171 128.133 68.7466 128.019 67.4862C128.019 67.2455 128.019 67.0049 128.019 66.7402L127.437 66.8365Z" fill="#F7DA61"/>
<path d="M47.775 27.447L41.6884 29.4923C42.047 30.937 42.235 32.4245 42.2478 33.9197C42.3393 35.1629 42.1297 36.4103 41.6395 37.5404C41.1493 38.6706 40.3952 39.6449 39.4507 40.3684L45.761 36.4222C46.7188 35.6852 47.4793 34.6903 47.9664 33.5372C48.4534 32.3842 48.6498 31.1137 48.5358 29.8532C48.5288 29.0476 48.469 28.2436 48.3568 27.447H47.775Z" fill="#F7DA61"/>
<path d="M32.7376 16.3065C34.6322 17.5642 36.2876 19.1972 37.6158 21.1189L43.0087 19.2902L43.9261 17.1728C42.5924 15.2565 40.9381 13.6245 39.0479 12.3604C38.0877 11.6137 36.9609 11.1536 35.7818 11.0268C34.6027 10.9 33.4134 11.1111 32.3348 11.6385L26.0244 15.5125C27.1088 14.9952 28.3014 14.7962 29.4806 14.9357C30.6598 15.0751 31.7836 15.5482 32.7376 16.3065Z" fill="#F7DA61"/>
<path d="M67.8245 6.53741C70.5779 8.46381 72.8714 11.0596 74.5195 14.1151C76.1677 17.1706 77.1244 20.6001 77.3124 24.1266L104.769 53.5542C106.537 51.942 109.245 51.8699 112.221 53.7467C114.79 55.4386 116.94 57.7752 118.486 60.5562L122.044 58.8959L124.797 56.4897C123.251 53.7087 121.101 51.3722 118.531 49.6802C117.571 48.9335 116.444 48.4734 115.265 48.3466C114.086 48.2198 112.897 48.4309 111.818 48.9584L111.102 49.4155L83.6227 20.1805C83.4348 16.654 82.4781 13.2245 80.8299 10.169C79.1817 7.11347 76.8883 4.51767 74.1348 2.59127C73.1726 1.84845 72.0447 1.39262 70.8657 1.27007C69.6866 1.14751 68.4984 1.3626 67.4217 1.89348L61.1113 5.81555C62.19 5.28808 63.3793 5.07702 64.5584 5.20381C65.7374 5.33059 66.8643 5.79071 67.8245 6.53741Z" fill="#F7DA61"/>
<path d="M153.574 36.1817C152.614 35.435 151.487 34.9749 150.308 34.8481C149.129 34.7213 147.939 34.9324 146.861 35.4598L140.461 39.4059C141.538 38.875 142.726 38.66 143.905 38.7825C145.084 38.9051 146.212 39.3609 147.174 40.1037C149.938 42.041 152.238 44.6523 153.886 47.7253C155.535 50.7983 156.486 54.2463 156.662 57.7889C156.796 59.0543 156.615 60.3352 156.14 61.5015C155.664 62.6679 154.91 63.6782 153.954 64.4299L160.287 60.4117C161.245 59.6747 162.005 58.6797 162.492 57.5267C162.979 56.3737 163.176 55.1033 163.062 53.8428C162.89 50.3026 161.94 46.8565 160.291 43.7868C158.642 40.717 156.34 38.1109 153.574 36.1817Z" fill="#F7DA61"/>
<path d="M147.241 40.1036C141.982 36.8553 137.686 39.478 137.686 45.9507C137.7 47.7316 137.964 49.5 138.469 51.1961L118.486 60.5562C116.94 57.7752 114.79 55.4386 112.221 53.7467C109.222 51.8699 106.537 51.942 104.769 53.5542L77.3123 24.1266C77.1244 20.6001 76.1677 17.1706 74.5195 14.1151C72.8713 11.0596 70.5778 8.46384 67.8244 6.53744C62.5658 3.26503 58.2917 5.88777 58.2694 12.3845C58.2694 12.8898 58.2694 13.395 58.2694 13.9244L37.6377 20.9264C36.2861 19.0716 34.624 17.5048 32.7371 16.3065C27.4785 13.0582 23.182 15.6809 23.1597 22.1776C23.3628 25.7113 24.3354 29.1442 25.999 32.1994C27.6627 35.2547 29.9707 37.8468 32.7371 39.7668C37.9957 43.0392 42.2697 40.4165 42.2921 33.9198C42.2647 32.4225 42.0617 30.935 41.6879 29.4924L61.2231 22.8754C62.8009 25.8191 65.0299 28.2986 67.7125 30.0939C70.711 31.9467 73.3963 31.8986 75.1417 30.2624L102.666 59.6178C102.858 63.1492 103.819 66.5828 105.47 69.642C107.122 72.7012 109.419 75.3007 112.176 77.231C117.412 80.4793 121.686 77.8566 121.709 71.3599C121.741 70.7428 121.741 70.1242 121.709 69.5072L142.81 59.6178C144.07 61.2306 145.585 62.591 147.286 63.6361C152.544 66.9085 156.841 64.2858 156.841 57.7891C156.652 54.2357 155.684 50.7807 154.016 47.7068C152.347 44.6329 150.026 42.0275 147.241 40.1036Z" fill="#FFEC8D"/>
<path d="M154.111 35.1227C152.975 34.2519 151.641 33.7274 150.251 33.6046C148.86 33.4817 147.465 33.7652 146.212 34.4249L139.812 38.4432C138.709 39.2816 137.829 40.4155 137.26 41.7325C136.691 43.0494 136.452 44.5035 136.567 45.9505C136.573 47.4937 136.761 49.0299 137.127 50.5222L125.692 55.888C124.053 52.9548 121.791 50.481 119.091 48.6695C117.96 47.797 116.631 47.2693 115.245 47.1422C113.858 47.0151 112.465 47.2934 111.214 47.9476L84.7418 19.6751C84.4569 16.0328 83.404 12.5081 81.6631 9.36875C79.9222 6.22934 77.539 3.55768 74.6945 1.55655C73.5596 0.684347 72.227 0.157016 70.8371 0.0299931C69.4471 -0.0970299 68.0509 0.180945 66.7954 0.834701L60.4179 4.85301C59.3092 5.69236 58.4242 6.82925 57.8511 8.15056C57.2779 9.47188 57.0365 10.9316 57.1508 12.3843C57.1397 12.6088 57.1397 12.8337 57.1508 13.0581L45.5819 16.9801C43.9031 14.7442 41.9099 12.8039 39.6743 11.2294C38.5383 10.3586 37.2045 9.83408 35.8141 9.71125C34.4236 9.58842 33.0281 9.87185 31.7752 10.5316L25.3977 14.5258C24.2831 15.3662 23.3928 16.506 22.8157 17.8317C22.2385 19.1574 21.9946 20.6226 22.1083 22.0812C22.2995 25.8332 23.3111 29.4837 25.0607 32.7364C26.8104 35.9891 29.2488 38.7522 32.178 40.8013C33.3085 41.6738 34.6373 42.2015 36.0239 42.3285C37.4104 42.4556 38.8032 42.1773 40.0547 41.5231L46.3874 37.577C47.524 36.7453 48.4327 35.6014 49.019 34.2643C49.6054 32.9271 49.848 31.4455 49.7216 29.9735C49.7094 29.3377 49.6646 28.7031 49.5874 28.0726L60.7759 24.2949C62.403 27.0641 64.6003 29.3939 67.1982 31.1044C68.3287 31.9769 69.6575 32.5046 71.0441 32.6317C72.4306 32.7587 73.8234 32.4804 75.0749 31.8262L101.569 60.171C101.818 63.8267 102.855 67.3698 104.599 70.5191C106.343 73.6684 108.746 76.3372 111.617 78.3135C113.067 79.2757 114.725 79.8147 116.428 79.8776C117.493 79.8848 118.542 79.5946 119.471 79.0354L125.804 75.0652C126.94 74.2391 127.849 73.0998 128.436 71.7663C129.023 70.4329 129.265 68.9545 129.138 67.4858V67.3414L142.564 61.0613C143.752 62.4861 145.133 63.7108 146.659 64.6946C147.792 65.5623 149.12 66.0871 150.506 66.214C151.891 66.341 153.283 66.0656 154.536 65.4164L160.869 61.4462C162.007 60.6163 162.917 59.4728 163.504 58.1352C164.09 56.7976 164.332 55.3151 164.203 53.8427C164.013 50.0877 162.999 46.4344 161.245 43.1809C159.491 39.9275 157.047 37.1663 154.111 35.1227ZM67.9142 2.92808C68.832 2.50069 69.8381 2.34018 70.8317 2.46265C71.8254 2.58512 72.7716 2.98626 73.5756 3.62586C76.1697 5.43792 78.3314 7.88028 79.8862 10.7559C81.441 13.6315 82.3454 16.8598 82.5265 20.1804C82.5247 20.3381 82.5536 20.4946 82.6114 20.6396C82.6693 20.7847 82.7546 20.9151 82.8621 21.0225L110.252 50.4019C110.425 50.5874 110.65 50.7067 110.893 50.7414C111.135 50.7762 111.382 50.7246 111.594 50.5944L112.31 50.1372C113.228 49.7098 114.234 49.5493 115.228 49.6718C116.222 49.7943 117.168 50.1954 117.972 50.835C120.245 52.3544 122.166 54.4118 123.588 56.8505L118.912 59.0641C117.331 56.4841 115.237 54.3143 112.78 52.7118C111.65 51.8393 110.321 51.3116 108.934 51.1846C107.548 51.0575 106.155 51.3358 104.904 51.99L78.4315 23.5249C78.1465 19.8826 77.0937 16.358 75.3528 13.2186C73.6119 10.0792 71.2287 7.40756 68.3841 5.40643C67.5546 4.9051 66.6666 4.52479 65.7436 4.27553L67.9142 2.92808ZM32.9164 12.5528C33.8361 12.1288 34.8433 11.9723 35.837 12.099C36.8306 12.2257 37.7759 12.6311 38.5778 13.2746C40.3057 14.4383 41.8222 15.9304 43.0532 17.6779L37.996 19.4826C36.6718 17.7536 35.0825 16.2806 33.2968 15.1274C32.4648 14.6138 31.5782 14.2099 30.6563 13.9243L32.9164 12.5528ZM45.291 35.5558L43.0532 37.0476C43.3 36.0505 43.4278 35.0236 43.4337 33.9918C43.4318 32.7706 43.3118 31.553 43.0756 30.3585L47.4168 28.8907C47.4389 29.2753 47.4389 29.661 47.4168 30.0457C47.5364 31.0834 47.4033 32.1368 47.0307 33.1027C46.6581 34.0685 46.0586 34.9138 45.291 35.5558ZM124.685 72.9959L122.447 74.3674C122.686 73.402 122.807 72.4069 122.805 71.4078C122.805 71.0469 122.805 70.6619 122.805 70.301L126.833 68.4242C126.84 69.3152 126.649 70.1952 126.275 70.9906C125.902 71.7859 125.356 72.4736 124.685 72.9959ZM153.372 63.3712C152.455 63.7883 151.453 63.9411 150.464 63.8145C149.475 63.6879 148.534 63.2863 147.733 62.6493C146.185 61.6592 144.808 60.3894 143.661 58.8957C143.509 58.6938 143.3 58.5513 143.065 58.4904C142.83 58.4295 142.584 58.4535 142.363 58.5588L121.172 68.4963C120.947 68.5953 120.759 68.772 120.637 68.9985C120.516 69.225 120.467 69.4885 120.5 69.7476C120.533 70.3165 120.533 70.887 120.5 71.4559C120.726 72.5188 120.628 73.6317 120.22 74.6298C119.812 75.6279 119.116 76.4583 118.235 76.9981C117.354 77.5378 116.335 77.7583 115.328 77.6269C114.322 77.4955 113.381 77.0191 112.646 76.2683C110.051 74.4576 107.888 72.0156 106.333 69.1397C104.778 66.2639 103.875 63.0348 103.695 59.7138C103.697 59.5524 103.669 59.3922 103.611 59.2432C103.553 59.0942 103.468 58.9596 103.36 58.8476L76.0147 29.396C75.8013 29.1657 75.5116 29.0359 75.2092 29.0351C75.0765 29.0339 74.945 29.061 74.8221 29.1147C74.6992 29.1683 74.5874 29.2476 74.4931 29.3479C73.0386 30.6713 70.8009 30.551 68.3394 29.0351C65.8234 27.3369 63.7273 25.0087 62.2304 22.2497C62.1081 22.0159 61.9139 21.8352 61.6811 21.7386C61.4484 21.642 61.1916 21.6355 60.9549 21.7203L41.4197 28.3373C41.1399 28.4268 40.9037 28.6304 40.7615 28.9047C40.6194 29.1789 40.5825 29.502 40.6589 29.8051C41.002 31.1378 41.1826 32.5128 41.1959 33.8955C41.3088 34.9516 41.1615 36.0211 40.7687 36.9966C40.376 37.9722 39.7516 38.8196 38.9582 39.4538C38.041 39.8709 37.0385 40.0237 36.0497 39.8971C35.0608 39.7705 34.1197 39.3689 33.3192 38.732C30.7171 36.9062 28.551 34.4476 26.996 31.555C25.4411 28.6625 24.541 25.4171 24.3683 22.0812C24.2596 21.029 24.4089 19.9645 24.8015 18.9935C25.194 18.0226 25.8162 17.1791 26.6061 16.547C27.5248 16.1181 28.5328 15.9589 29.5274 16.0858C30.522 16.2126 31.4675 16.6208 32.2675 17.2689C34.0003 18.4256 35.5179 19.9187 36.7429 21.6722C36.8842 21.8611 37.0744 22.0007 37.2894 22.0735C37.5045 22.1463 37.7348 22.149 37.9513 22.0812L58.583 15.0793C58.8307 14.9972 59.0442 14.8251 59.1871 14.5925C59.3299 14.3599 59.3932 14.0812 59.3662 13.804C59.3662 13.3227 59.3662 12.8415 59.3662 12.3843C59.2596 11.3323 59.41 10.2686 59.8024 9.29811C60.1948 8.32762 60.8157 7.48389 61.6039 6.85014C62.5211 6.43303 63.5236 6.28024 64.5124 6.40682C65.5013 6.53341 66.4424 6.935 67.2429 7.57199C69.837 9.38405 71.9986 11.8264 73.5534 14.702C75.1082 17.5776 76.0127 20.8059 76.1938 24.1265C76.2003 24.4433 76.3206 24.745 76.5294 24.9686L103.986 54.3962C104.195 54.5974 104.466 54.7086 104.747 54.7086C105.028 54.7086 105.299 54.5974 105.508 54.3962C106.962 53.0487 109.2 53.169 111.661 54.709C114.079 56.3059 116.098 58.5107 117.547 61.1335C117.686 61.3783 117.905 61.5599 118.16 61.6441C118.415 61.7283 118.691 61.7093 118.934 61.5906L138.917 52.399C139.175 52.2861 139.384 52.0713 139.501 51.7986C139.617 51.5259 139.632 51.2157 139.543 50.9313C139.078 49.3752 138.829 47.7534 138.805 46.1189C138.689 45.0695 138.835 44.0057 139.228 43.0371C139.621 42.0686 140.248 41.2303 141.043 40.6088C141.957 40.1795 142.962 40.0201 143.953 40.1469C144.944 40.2738 145.886 40.6824 146.682 41.3306C149.29 43.1441 151.46 45.5965 153.016 48.4866C154.572 51.3768 155.469 54.6225 155.633 57.9573C155.717 58.9853 155.554 60.0194 155.158 60.9595C154.762 61.8996 154.147 62.7137 153.372 63.3231V63.3712ZM159.705 59.4251L157.467 60.7966C157.707 59.8311 157.827 58.8361 157.825 57.837C157.64 54.0863 156.634 50.4357 154.888 47.1826C153.142 43.9295 150.706 41.1659 147.778 39.1169C146.946 38.6034 146.06 38.1995 145.138 37.9139L147.375 36.5423C148.294 36.1134 149.302 35.9543 150.297 36.0811C151.291 36.2079 152.237 36.6161 153.037 37.2642C155.645 39.0776 157.816 41.53 159.372 44.4202C160.927 47.3104 161.824 50.556 161.988 53.8909C162.086 54.94 161.927 55.9984 161.526 56.9609C161.126 57.9233 160.498 58.7563 159.705 59.3769V59.4251Z" fill="#011627" fill-opacity="0.2"/>
</svg>
