<svg width="70" height="87" viewBox="0 0 70 87" fill="none" xmlns="http://www.w3.org/2000/svg">
<g clip-path="url(#clip0)">
<path d="M49.0203 9.70631L33.4203 0.706312C33.2772 0.602869 33.1094 0.539129 32.9338 0.521565C32.7581 0.504001 32.581 0.53324 32.4203 0.606312L26.7803 3.87631C26.941 3.80324 27.1181 3.774 27.2937 3.79156C27.4694 3.80913 27.6372 3.87287 27.7803 3.97631L43.3803 12.9763C43.7957 13.2413 44.1414 13.6021 44.3885 14.0284C44.6356 14.4548 44.7768 14.9341 44.8003 15.4263V34.9863C44.8165 35.1615 44.7862 35.338 44.7125 35.4977C44.6388 35.6575 44.5242 35.795 44.3803 35.8963L50.0203 32.6163C50.1642 32.515 50.2788 32.3775 50.3525 32.2177C50.4263 32.0579 50.4565 31.8815 50.4403 31.7063V12.1463C50.4128 11.6564 50.2699 11.18 50.0231 10.7559C49.7763 10.3318 49.4327 9.97217 49.0203 9.70631Z" fill="#D1AA99"/>
<path d="M4.13953 23.5562C4.76242 23.9591 5.27987 24.5052 5.64867 25.1489C6.01747 25.7925 6.22692 26.5151 6.25953 27.2562V28.8562L6.18953 53.3162V54.9362C6.18953 56.2862 5.18953 56.8362 4.05953 56.1562L2.63953 55.3362C2.02177 54.935 1.50766 54.3934 1.13922 53.7556C0.770767 53.1177 0.558424 52.4018 0.519531 51.6662L0.589532 23.9462C0.589532 22.5962 1.58953 22.0562 2.72953 22.7362L4.13953 23.5562Z" fill="#EDF2FB"/>
<path d="M9.74024 20.3761L8.37023 19.5561C8.15222 19.4002 7.89706 19.3042 7.63029 19.2779C7.36353 19.2516 7.09453 19.2958 6.85023 19.4061L1.24023 22.6861C1.48293 22.5713 1.75201 22.5237 2.01937 22.5483C2.28674 22.573 2.54259 22.6689 2.76023 22.8261L4.17023 23.6461C4.78559 24.049 5.29732 24.5913 5.66391 25.2289C6.03051 25.8666 6.24166 26.5816 6.28023 27.3161V28.9361L6.16024 53.3561V54.9861C6.18687 55.2475 6.14349 55.5112 6.03453 55.7502C5.92557 55.9892 5.75497 56.1949 5.54023 56.3461L11.1502 53.0761C11.365 52.9249 11.5356 52.7192 11.6445 52.4802C11.7535 52.2412 11.7969 51.9775 11.7702 51.7161V50.0861L11.8402 25.6661V24.0361C11.8012 23.3043 11.5909 22.5918 11.2261 21.956C10.8614 21.3203 10.3524 20.7792 9.74024 20.3761Z" fill="#C1D3FE"/>
<path d="M29.0604 46.916L28.3704 46.496C28.2274 46.3925 28.0595 46.3288 27.8839 46.3112C27.7083 46.2936 27.5311 46.3229 27.3704 46.396L23.3704 48.666C23.0491 48.8121 22.6948 48.8706 22.3435 48.8355C21.9922 48.8003 21.6565 48.6728 21.3704 48.466C20.3456 47.8081 19.5384 46.8617 19.0504 45.746C18.2304 43.956 18.4804 42.246 19.4804 41.676L24.0204 39.086L6.26043 28.856L6.19043 53.316L14.9604 58.376L24.5904 75.016C25.0657 75.8787 25.7543 76.6052 26.5904 77.126C26.8756 77.3345 27.2108 77.4637 27.5621 77.5006C27.9134 77.5375 28.2682 77.4807 28.5904 77.336C29.6704 76.716 29.7104 74.766 28.7104 72.906L31.4304 77.626C31.9086 78.4866 32.5966 79.2125 33.4304 79.736C33.7165 79.9428 34.0522 80.0703 34.4035 80.1055C34.7548 80.1406 35.1091 80.0821 35.4304 79.936C36.5504 79.306 36.5504 77.236 35.4304 75.326L38.3004 80.256C38.7725 81.1237 39.4616 81.8542 40.3004 82.376C40.5865 82.5828 40.9222 82.7103 41.2735 82.7455C41.6248 82.7806 41.9791 82.7221 42.3004 82.576C43.4104 81.936 43.4204 79.876 42.3004 77.956L45.1304 82.866C45.6086 83.7266 46.2966 84.4525 47.1304 84.976C47.4165 85.1828 47.7522 85.3103 48.1035 85.3455C48.4548 85.3806 48.8091 85.3221 49.1304 85.176C50.2504 84.546 50.2504 82.486 49.1304 80.566L29.0604 46.916Z" fill="#EDF2FB"/>
<path d="M57.6896 53.7663L60.3696 52.1763L31.4996 35.4163C31.3566 35.3128 31.1888 35.2491 31.0131 35.2315C30.8375 35.214 30.6603 35.2432 30.4996 35.3163L24.8896 38.5863C25.0503 38.5132 25.2275 38.484 25.4031 38.5015C25.5788 38.5191 25.7466 38.5828 25.8896 38.6863L57.0597 56.7563V55.1263C57.0319 54.8649 57.0748 54.6008 57.1839 54.3616C57.2929 54.1224 57.4641 53.9168 57.6796 53.7663H57.6896Z" fill="#C1D3FE"/>
<path d="M60.9 54.686C61.5156 55.0895 62.028 55.6317 62.3961 56.2691C62.7643 56.9064 62.978 57.6211 63.02 58.356L62.94 84.446C62.94 85.796 61.99 86.346 60.81 85.666L59.37 84.846C58.752 84.4426 58.238 83.8991 57.8696 83.2597C57.5012 82.6203 57.2889 81.9029 57.25 81.166V79.536L57.37 56.716V55.086C57.37 53.736 58.37 53.186 59.51 53.866L60.9 54.686Z" fill="#EDF2FB"/>
<path d="M66.2104 51.4562L64.8004 50.6462C64.5887 50.485 64.3364 50.3857 64.0716 50.3592C63.8068 50.3327 63.5399 50.3801 63.3004 50.4962L57.6904 53.7662C57.9312 53.6555 58.1971 53.6111 58.4608 53.6375C58.7245 53.6638 58.9763 53.76 59.1904 53.9162L60.6004 54.7262C61.2177 55.1294 61.7306 55.6731 62.0974 56.3128C62.4641 56.9524 62.6742 57.6698 62.7104 58.4062L62.6404 84.4062C62.6671 84.6675 62.6237 84.9312 62.5147 85.1702C62.4058 85.4092 62.2352 85.6149 62.0204 85.7662L67.6304 82.4862C67.8452 82.3349 68.0158 82.1292 68.1247 81.8902C68.2337 81.6512 68.2771 81.3875 68.2504 81.1262L68.3704 55.1262C68.3271 54.387 68.1087 53.6687 67.7331 53.0306C67.3575 52.3925 66.8356 51.8529 66.2104 51.4562Z" fill="#C1D3FE"/>
<path d="M43.37 12.9862L27.77 3.98621C26.99 3.52621 26.35 3.89621 26.35 4.79621L26.29 24.3562C26.316 24.8492 26.4581 25.329 26.7049 25.7566C26.9517 26.1841 27.2961 26.5472 27.71 26.8162L43.31 35.8162C44.1 36.2662 44.74 35.8962 44.74 34.9962V15.4362C44.7221 14.9485 44.5886 14.472 44.3504 14.0461C44.1122 13.6201 43.7762 13.2568 43.37 12.9862Z" fill="#E7CFBC"/>
<path d="M49.2698 9.25611L33.6698 0.256115C33.4492 0.108066 33.1934 0.0208589 32.9282 0.00330081C32.6631 -0.0142573 32.398 0.0384553 32.1598 0.156115L26.5098 3.45611C26.2942 3.60123 26.1207 3.80054 26.0066 4.03401C25.8925 4.26748 25.8419 4.52687 25.8598 4.78611L25.7998 24.3461C25.8235 24.9297 25.9877 25.499 26.2784 26.0056C26.5692 26.5122 26.9779 26.9412 27.4698 27.2561L43.0698 36.2561C43.3394 36.4173 43.6458 36.5068 43.9598 36.5161C44.177 36.5189 44.3911 36.4637 44.5798 36.3561L50.2198 33.0761C50.4406 32.9326 50.6191 32.7327 50.7369 32.4972C50.8547 32.2616 50.9074 31.9989 50.8898 31.7361V12.1761C50.8732 11.5953 50.7174 11.0269 50.4355 10.5188C50.1536 10.0107 49.7538 9.57763 49.2698 9.25611ZM27.9698 26.3761C27.635 26.1542 27.3555 25.8586 27.1527 25.5119C26.9499 25.1652 26.8292 24.7767 26.7998 24.3761L26.8598 4.82611C26.8598 4.58611 26.9198 4.39611 27.0298 4.33611C27.069 4.32444 27.1107 4.32444 27.1498 4.33611C27.285 4.34885 27.4152 4.3934 27.5298 4.46611L43.1298 13.4661C43.4656 13.6869 43.746 13.9823 43.9489 14.3292C44.1519 14.6761 44.2719 15.0652 44.2998 15.4661V35.0261C44.3106 35.1138 44.3009 35.2029 44.2714 35.2862C44.2419 35.3695 44.1934 35.4448 44.1298 35.5061C44.0431 35.5328 43.9512 35.5376 43.8622 35.5202C43.7733 35.5027 43.69 35.4635 43.6198 35.4061L27.9698 26.3761ZM49.8898 31.7161C49.9014 31.8054 49.8921 31.8961 49.8626 31.9812C49.8331 32.0662 49.7842 32.1432 49.7198 32.2061L45.2498 34.7961V15.4461C45.2254 14.864 45.0608 14.2964 44.77 13.7916C44.4793 13.2867 44.071 12.8594 43.5798 12.5461L28.1898 3.63611L32.6598 1.02611C32.7467 1.00197 32.8381 0.998435 32.9266 1.01579C33.0152 1.03315 33.0984 1.07093 33.1698 1.12611L48.7698 10.1261C49.103 10.3496 49.3814 10.6457 49.584 10.992C49.7866 11.3384 49.9083 11.7261 49.9398 12.1261L49.8898 31.7161Z" fill="#011627"/>
<path d="M31.2902 19.0661C31.4912 19.1975 31.6596 19.3729 31.7826 19.5791C31.9056 19.7853 31.98 20.0168 32.0002 20.2561C32.0002 20.7161 31.6802 20.8861 31.2902 20.6661L29.1602 19.4361C28.96 19.3063 28.7919 19.1326 28.6689 18.9281C28.5459 18.7236 28.4711 18.4938 28.4502 18.2561C28.4502 17.8161 28.7702 17.6261 29.1602 17.8561L31.2902 19.0661Z" fill="#011627"/>
<path d="M41.9202 28.4761C42.1289 28.6062 42.3027 28.7854 42.4265 28.998C42.5502 29.2106 42.6201 29.4503 42.6302 29.6961C42.6302 30.1461 42.3102 30.3261 41.9202 30.0961L34.1102 25.5961C33.9061 25.4617 33.7364 25.2813 33.6149 25.0694C33.4933 24.8575 33.4232 24.62 33.4102 24.3761C33.4102 23.9161 33.7302 23.7461 34.1202 23.9661L41.9202 28.4761Z" fill="#011627"/>
<path d="M41.9397 21.9459C42.1469 22.0801 42.3193 22.2616 42.4428 22.4755C42.5662 22.6893 42.6371 22.9294 42.6497 23.1759C42.6497 23.6259 42.3297 23.8059 41.9297 23.5759L34.1297 19.0759C33.9249 18.94 33.7548 18.7579 33.6332 18.5443C33.5116 18.3306 33.4419 18.0914 33.4297 17.8459C33.4297 17.4059 33.7497 17.2159 34.1397 17.4459L41.9397 21.9459Z" fill="#011627"/>
<path d="M31.2804 22.3259C31.4871 22.4607 31.6591 22.6424 31.7825 22.8561C31.9058 23.0698 31.9771 23.3095 31.9904 23.5559C31.9904 24.0059 31.6704 24.1859 31.2804 23.9559L29.1504 22.7259C28.944 22.5933 28.7719 22.4136 28.6485 22.2015C28.5251 21.9894 28.4537 21.751 28.4404 21.5059C28.4404 21.0459 28.7604 20.8759 29.1504 21.0959L31.2804 22.3259Z" fill="#011627"/>
<path d="M31.3 15.8059C31.5055 15.9418 31.6767 16.1237 31.7999 16.3372C31.9231 16.5507 31.995 16.7899 32.01 17.0359C32.01 17.4759 31.69 17.6659 31.3 17.4359L29.17 16.2559C28.9646 16.1221 28.7934 15.942 28.6701 15.7302C28.5468 15.5183 28.4749 15.2805 28.46 15.0359C28.46 14.5859 28.78 14.4059 29.17 14.6259L31.3 15.8059Z" fill="#011627"/>
<path d="M41.9299 25.2564C42.1358 25.3896 42.3074 25.5695 42.4308 25.7815C42.5542 25.9934 42.6258 26.2315 42.6399 26.4764C42.6399 26.9364 42.3199 27.1164 41.9299 26.8864L34.1199 22.3864C33.9145 22.251 33.7441 22.0691 33.6224 21.8553C33.5008 21.6415 33.4314 21.402 33.4199 21.1564C33.4199 20.7064 33.7399 20.5264 34.1299 20.7564L41.9299 25.2564Z" fill="#011627"/>
<path d="M40.5396 15.4259C40.746 15.5579 40.9174 15.7377 41.0393 15.9501C41.1611 16.1625 41.2299 16.4012 41.2396 16.6459C41.2396 17.0959 40.9196 17.2759 40.5296 17.0559L30.5996 11.3159C30.3943 11.1821 30.2231 11.0021 30.0998 10.7902C29.9765 10.5784 29.9045 10.3406 29.8896 10.0959C29.8896 9.64594 30.2096 9.46594 30.5996 9.68594L40.5396 15.4259Z" fill="#011627"/>
<path d="M23.8705 39.156L6.23047 28.936L11.8405 25.666L29.4805 35.886" fill="#C1D3FE"/>
<path d="M57.2697 79.536L49.4697 75.036L46.9097 76.606L44.9097 73.106L36.8197 59.106L36.6897 58.896L29.0797 46.896L28.9797 46.836L28.3697 46.496C28.2266 46.3925 28.0588 46.3288 27.8831 46.3112C27.7075 46.2937 27.5303 46.3229 27.3697 46.396L23.3697 48.666C23.0483 48.8121 22.694 48.8706 22.3427 48.8355C21.9914 48.8003 21.6557 48.6729 21.3697 48.466C20.3448 47.8081 19.5376 46.8617 19.0497 45.746C18.2297 43.956 18.4797 42.246 19.4797 41.676L24.0197 39.086L25.0197 38.516C25.1803 38.4429 25.3575 38.4137 25.5331 38.4312C25.7088 38.4488 25.8766 38.5125 26.0197 38.616L57.3697 56.716L57.2697 79.536Z" fill="#EDF2FB"/>
<path d="M66.79 50.9762L65.37 50.1562C65.0794 49.9573 64.7414 49.8387 64.3902 49.8124C64.039 49.786 63.6871 49.8529 63.37 50.0062L60.73 51.5462L31.9 34.9062C31.6806 34.7552 31.4245 34.6662 31.1587 34.6486C30.893 34.631 30.6274 34.6854 30.39 34.8062L29.63 35.2362L12.37 25.2562V23.9462C12.3302 23.1234 12.0943 22.322 11.682 21.6089C11.2698 20.8957 10.6931 20.2913 10 19.8462L8.58 19.0262C8.28935 18.8273 7.95135 18.7087 7.60016 18.6824C7.24897 18.656 6.89706 18.7229 6.58 18.8762L0.93 22.1662C0.644721 22.3629 0.415463 22.6305 0.264701 22.9425C0.113939 23.2545 0.0468465 23.6004 0.0699997 23.9462L0 51.6662C0.0357247 52.4899 0.269856 53.2928 0.682483 54.0067C1.09511 54.7205 1.67403 55.3241 2.37 55.7662L3.79 56.5862C4.15107 56.8103 4.56518 56.9345 4.99 56.9462C5.27367 56.9479 5.55287 56.8755 5.8 56.7362L8.45 55.1962L14.58 58.7462L24.16 75.2562C24.6828 76.2056 25.4447 77.0019 26.37 77.5662C26.7333 77.8186 27.157 77.9701 27.598 78.0052C28.0389 78.0404 28.4813 77.9579 28.88 77.7662C29.1871 77.5745 29.4437 77.3119 29.6282 77.0004C29.8127 76.6889 29.9196 76.3376 29.94 75.9762L31.04 77.8762C31.5585 78.8163 32.3089 79.6081 33.22 80.1762C33.5824 80.4305 34.0063 80.5833 34.4477 80.6184C34.8891 80.6536 35.3319 80.57 35.73 80.3762C36.2288 80.0762 36.5884 79.5907 36.73 79.0262C36.7712 78.8791 36.798 78.7284 36.81 78.5762L37.91 80.4762C38.4323 81.4168 39.1861 82.2084 40.1 82.7762C40.4605 83.0307 40.8828 83.1835 41.3226 83.2187C41.7624 83.2539 42.2037 83.1701 42.6 82.9762C42.8503 82.8342 43.0684 82.6417 43.2406 82.4111C43.4127 82.1804 43.5351 81.9166 43.6 81.6362C43.6405 81.4851 43.6706 81.3314 43.69 81.1762L44.79 83.0862C45.3088 84.0235 46.0594 84.812 46.97 85.3762C47.4322 85.658 47.959 85.8164 48.5 85.8362C48.8495 85.8417 49.1942 85.7555 49.5 85.5862C49.9507 85.2717 50.2624 84.7952 50.37 84.2562C50.6464 82.8735 50.37 81.4375 49.6 80.2562L47.6 76.7462L49.5 75.5862L56.79 79.7962V81.1362C56.8237 81.9608 57.0547 82.7653 57.4636 83.4822C57.8725 84.1991 58.4474 84.8074 59.14 85.2562L60.56 86.0762C60.9217 86.299 61.3354 86.4231 61.76 86.4362C62.041 86.4471 62.32 86.385 62.57 86.2562L68.21 82.9762C68.5002 82.7788 68.7333 82.5086 68.886 82.1927C69.0388 81.8767 69.1057 81.5262 69.08 81.1762L69.16 55.0962C69.1233 54.2699 68.8889 53.4646 68.4765 52.7477C68.0641 52.0308 67.4858 51.4233 66.79 50.9762ZM23.96 38.4962L7.25 28.8462L11.9 26.1562L28.63 35.8162L23.96 38.4962ZM7.09 19.7462C7.25411 19.6787 7.43323 19.6561 7.60897 19.6807C7.7847 19.7053 7.95073 19.7762 8.09 19.8862L9.51 20.7062C10.049 21.0661 10.4974 21.5459 10.8201 22.108C11.1428 22.6701 11.331 23.2992 11.37 23.9462V25.2562L6.74 27.9562V27.2562C6.70729 26.4263 6.47475 25.6166 6.06214 24.8959C5.64953 24.1751 5.06905 23.5646 4.37 23.1162L2.95 22.3062C2.89983 22.2736 2.84616 22.2468 2.79 22.2262L7.09 19.7462ZM5.68 54.9362C5.70051 55.1112 5.67746 55.2886 5.61292 55.4526C5.54837 55.6166 5.44431 55.7621 5.31 55.8762C5.1436 55.9338 4.96571 55.9503 4.79155 55.9242C4.6174 55.898 4.45217 55.8301 4.31 55.7262L2.89 54.9062C2.34752 54.5491 1.89595 54.0702 1.57129 53.5076C1.24663 52.9451 1.05785 52.3146 1.02 51.6662L1.09 23.9462C1.07205 23.7728 1.09633 23.5977 1.16076 23.4357C1.22519 23.2738 1.32786 23.1298 1.46 23.0162C1.56329 22.9794 1.67081 22.9559 1.78 22.9462C2.02842 22.9578 2.26958 23.0336 2.48 23.1662L3.9 23.9862C4.44346 24.3485 4.89467 24.8329 5.21762 25.4007C5.54057 25.9685 5.72631 26.6039 5.76 27.2562L5.68 54.9362ZM6.68 55.0862C6.68 55.0862 6.68 54.9962 6.68 54.9462V54.1762L7.46 54.6262L6.68 55.0862ZM49.42 83.9762C49.3533 84.28 49.1702 84.5457 48.91 84.7162C48.6572 84.8178 48.3822 84.8519 48.1122 84.8151C47.8422 84.7783 47.5864 84.6718 47.37 84.5062C46.6102 84.031 45.9839 83.3703 45.55 82.5862L42.72 77.6762C42.6912 77.6124 42.6493 77.5554 42.5971 77.5089C42.5449 77.4623 42.4835 77.4272 42.4168 77.4059C42.3502 77.3846 42.2798 77.3775 42.2103 77.385C42.1407 77.3926 42.0735 77.4147 42.0131 77.4498C41.9526 77.485 41.9002 77.5325 41.8592 77.5892C41.8182 77.6459 41.7895 77.7105 41.7751 77.779C41.7607 77.8475 41.7608 77.9182 41.7754 77.9866C41.79 78.055 41.8189 78.1196 41.86 78.1762C42.4713 79.1197 42.7134 80.2554 42.54 81.3662C42.5083 81.5159 42.4468 81.6576 42.3592 81.783C42.2716 81.9085 42.1596 82.0149 42.03 82.0962C41.7826 82.1966 41.5133 82.231 41.2485 82.1959C40.9838 82.1609 40.7327 82.0576 40.52 81.8962C39.7578 81.4196 39.1311 80.755 38.7 79.9662L35.88 75.0862C35.8472 75.0291 35.8034 74.979 35.7512 74.9387C35.699 74.8985 35.6394 74.869 35.5758 74.8518C35.5122 74.8346 35.4458 74.8302 35.3805 74.8386C35.3152 74.8471 35.2521 74.8683 35.195 74.9012C35.1379 74.934 35.0878 74.9778 35.0476 75.03C35.0073 75.0822 34.9778 75.1418 34.9606 75.2054C34.9435 75.269 34.939 75.3353 34.9474 75.4007C34.9559 75.466 34.9772 75.5291 35.01 75.5862C35.6183 76.5234 35.857 77.653 35.68 78.7562C35.6507 78.9081 35.5903 79.0522 35.5025 79.1796C35.4147 79.3069 35.3015 79.4147 35.17 79.4962C34.922 79.5937 34.6533 79.6266 34.3891 79.5916C34.1249 79.5566 33.874 79.4549 33.66 79.2962C32.9023 78.8142 32.2767 78.1508 31.84 77.3662L29.15 72.6562C29.1179 72.6003 29.0751 72.5513 29.024 72.512C28.9729 72.4727 28.9146 72.4439 28.8523 72.4272C28.7901 72.4105 28.7252 72.4062 28.6613 72.4146C28.5974 72.423 28.5358 72.4439 28.48 72.4762C28.4224 72.5066 28.3715 72.5482 28.3302 72.5985C28.2889 72.6488 28.2581 72.7069 28.2395 72.7692C28.2208 72.8316 28.2148 72.8971 28.2218 72.9618C28.2288 73.0265 28.2485 73.0892 28.28 73.1462C29.12 74.7162 29.16 76.4362 28.36 76.8962C28.1095 76.9892 27.8401 77.0196 27.5752 76.9847C27.3103 76.9499 27.0579 76.8508 26.84 76.6962C26.0801 76.2169 25.454 75.5529 25.02 74.7662L15.37 58.1262C15.3318 58.0477 15.2684 57.9844 15.19 57.9462L6.67 53.0262L6.73 29.7162L22.94 39.0762L19.2 41.2562C17.92 41.9962 17.66 43.9862 18.57 45.9762C19.0992 47.1848 19.9766 48.2083 21.09 48.9162C21.4508 49.1693 21.8724 49.3221 22.3116 49.359C22.7508 49.3959 23.192 49.3156 23.59 49.1262L27.59 46.8462C27.66 46.8462 27.84 46.8462 28.08 46.9562L28.7 47.3162L36.24 59.2062L46.48 76.8562L48.71 80.7262C49.3512 81.6799 49.6051 82.842 49.42 83.9762ZM56.78 78.6762L49.72 74.5962C49.6432 74.5494 49.555 74.5246 49.465 74.5246C49.375 74.5246 49.2868 74.5494 49.21 74.5962L47.08 75.8962L37.22 58.8562L29.48 46.6562C29.2254 46.3977 28.9186 46.1966 28.58 46.0662C28.3625 45.915 28.1081 45.8259 27.8439 45.8083C27.5796 45.7907 27.3156 45.8452 27.08 45.9662L23.08 48.2362C22.8312 48.3323 22.562 48.3635 22.2978 48.3268C22.0336 48.29 21.7831 48.1866 21.57 48.0262C20.6301 47.4298 19.8941 46.5612 19.46 45.5362C18.71 43.9062 18.98 42.5362 19.68 42.1062L25.23 38.9462C25.33 38.8862 25.52 38.9462 25.74 39.0462L56.82 57.0462L56.78 78.6762ZM56.84 55.0862V55.8462L26.37 38.2562L30.84 35.6562C30.9294 35.6348 31.0224 35.6336 31.1124 35.6526C31.2023 35.6717 31.2869 35.7104 31.36 35.7662L59.71 52.1262L57.71 53.2962C57.4213 53.4926 57.1892 53.7612 57.0365 54.0753C56.8839 54.3893 56.8161 54.7378 56.84 55.0862ZM62.44 84.4362C62.4673 84.6116 62.4474 84.7911 62.3824 84.9563C62.3174 85.1215 62.2096 85.2664 62.07 85.3762C61.9059 85.4437 61.7268 85.4663 61.551 85.4417C61.3753 85.4171 61.2093 85.3461 61.07 85.2362L59.65 84.4162C59.1084 84.0558 58.6577 83.5747 58.3332 83.0109C58.0087 82.447 57.8194 81.8156 57.78 81.1662L57.85 55.0862C57.8238 54.9099 57.8452 54.7297 57.912 54.5644C57.9788 54.3992 58.0886 54.2548 58.23 54.1462C58.3255 54.0963 58.4323 54.0722 58.54 54.0762C58.7887 54.0865 59.0302 54.1624 59.24 54.2962L60.66 55.1162C61.2009 55.475 61.6512 55.9543 61.9756 56.5165C62.3001 57.0786 62.4899 57.7084 62.53 58.3562L62.44 84.4362ZM68.08 81.1662C68.1073 81.3416 68.0874 81.5211 68.0224 81.6863C67.9574 81.8515 67.8496 81.9964 67.71 82.1062L63.43 84.5862L63.52 58.3662C63.4801 57.542 63.2443 56.7393 62.8321 56.0245C62.4199 55.3097 61.8433 54.7035 61.15 54.2562L59.58 53.3662L63.85 50.8862C64.0153 50.8254 64.1931 50.8064 64.3676 50.8308C64.542 50.8552 64.7077 50.9223 64.85 51.0262L66.27 51.8462C66.81 52.2083 67.2595 52.6897 67.5838 53.2532C67.908 53.8168 68.0983 54.4473 68.14 55.0962L68.08 81.1662Z" fill="#011627"/>
</g>
<defs>
<clipPath id="clip0">
<rect width="69.16" height="86.4373" fill="white"/>
</clipPath>
</defs>
</svg>
