<svg width="293" height="85" viewBox="0 0 293 85" fill="none" xmlns="http://www.w3.org/2000/svg">
<g clip-path="url(#clip0)">
<path d="M0 25.1172L52.1431 48.0988C104.808 71.3104 164.92 70.7092 217.11 46.4489L263 25.1172" stroke="#3167BC" stroke-width="2" stroke-linejoin="round" stroke-dasharray="15 7"/>
<path d="M263.772 11.2737C270.482 11.3009 277.298 12.3764 283.707 14.3051C279.489 19.5505 276.013 25.4975 273.497 31.6828C273.14 32.5133 274.185 35.5142 274.654 34.39C277.499 27.4477 281.603 20.7311 286.558 15.0934C286.586 15.02 286.636 14.9972 286.664 14.9238L286.692 14.8504L286.72 14.7769C286.953 13.9414 286.703 12.1663 286.042 11.9154C278.813 9.3813 270.891 8.01175 263.261 7.97164C262.393 7.93595 262.729 11.2557 263.772 11.2737Z" fill="#3167BC"/>
<path d="M253.186 16.0342C259.846 16.0842 266.713 17.1369 273.093 19.1391C268.876 24.3845 265.4 30.3315 262.861 36.4661C262.504 37.2966 263.549 40.2974 264.017 39.1733C266.863 32.231 270.967 25.5144 275.921 19.8767C275.972 19.8539 275.972 19.8539 275.949 19.8033C276 19.7805 276.028 19.7071 276.005 19.6564C276.334 18.8994 276.066 16.9496 275.355 16.7215C268.126 14.1874 260.204 12.8178 252.574 12.7777C251.779 12.7699 252.143 16.0162 253.186 16.0342Z" fill="#3167BC"/>
</g>
<defs>
<clipPath id="clip0">
<rect width="292.777" height="84.6173" fill="white" transform="matrix(1 0 0 -1 0 84.6172)"/>
</clipPath>
</defs>
</svg>
