<svg width="107" height="149" viewBox="0 0 107 149" fill="none" xmlns="http://www.w3.org/2000/svg">
<path d="M95.499 14.0874L92.9858 16.046C57.6275 43.6005 35.8534 85.0516 33.2302 129.802V129.802" stroke="#3167BC" stroke-width="2" stroke-linejoin="round" stroke-dasharray="15 7"/>
<path d="M33.4363 141.826L32.9113 142.35L32.6225 141.667C31.3334 138.617 29.5672 135.724 27.4743 133.191C27.4697 133.188 27.4605 133.181 27.4453 133.172C27.419 133.157 27.3841 133.14 27.3408 133.122C29.493 135.884 31.2887 139.047 32.5109 142.315C32.5159 142.324 32.5204 142.332 32.5244 142.34C32.6146 142.418 32.8126 142.529 33.0348 142.597C33.1474 142.631 33.2378 142.646 33.2962 142.646C33.2972 142.646 33.2982 142.646 33.2991 142.646C35.9989 140.17 38.3748 137.155 40.148 133.961C40.0879 133.926 40.0116 133.888 39.9228 133.854C39.7659 133.794 39.6185 133.763 39.5192 133.762C37.9018 136.713 35.8064 139.459 33.4363 141.826ZM33.3329 142.644C33.3329 142.644 33.3312 142.644 33.3282 142.645C33.3315 142.644 33.333 142.644 33.3329 142.644ZM40.276 134.056C40.276 134.056 40.2756 134.056 40.2748 134.055C40.2756 134.056 40.276 134.056 40.276 134.056ZM39.4545 133.767C39.4549 133.767 39.4588 133.766 39.4654 133.764C39.4574 133.765 39.4542 133.766 39.4545 133.767Z" fill="#8CC5F9" stroke="#3167BC"/>
<path d="M27.8621 127.36C27.8358 127.344 27.8009 127.327 27.7576 127.309C29.861 130.009 31.6238 133.09 32.8436 136.28L33.038 136.294L33.0185 136.567C33.0421 136.584 33.0702 136.602 33.1027 136.621C33.1961 136.676 33.3097 136.726 33.4241 136.763C33.5414 136.8 33.6379 136.816 33.7003 136.816C33.7025 136.816 33.7046 136.816 33.7067 136.816C36.4033 134.345 38.7774 131.336 40.5514 128.148C40.4926 128.117 40.4206 128.084 40.3387 128.054C40.1808 127.998 40.0342 127.971 39.9366 127.972C39.9365 127.972 39.9364 127.972 39.9364 127.972C38.3215 130.896 36.2225 133.673 33.8213 136.015L33.2969 136.527L33.0116 135.852C31.7229 132.803 29.9569 129.91 27.8909 127.378C27.8862 127.375 27.8771 127.368 27.8621 127.36ZM32.9767 136.764C32.9764 136.767 32.9763 136.769 32.9763 136.769L32.9767 136.764ZM32.5383 136.258C32.5351 136.258 32.5331 136.258 32.533 136.258L32.5383 136.258ZM33.7393 136.813C33.7392 136.813 33.7373 136.813 33.7337 136.814C33.7377 136.814 33.7395 136.813 33.7393 136.813ZM39.8762 127.977C39.8765 127.978 39.8802 127.977 39.8862 127.975C39.8789 127.976 39.8759 127.977 39.8762 127.977Z" fill="#8CC5F9" stroke="#3167BC"/>
</svg>
