<svg width="203" height="203" viewBox="0 0 203 203" fill="none" xmlns="http://www.w3.org/2000/svg">
<g clip-path="url(#clip0)">
<path d="M103.107 145.526L102.727 145.357L81.3693 139.563C81.1576 139.485 80.9253 139.485 80.7137 139.563L73.355 143.792C73.5155 143.76 73.6808 143.76 73.8413 143.792L95.1563 149.691C95.2972 149.73 95.4324 149.787 95.5581 149.861C96.0543 150.177 96.4519 150.626 96.706 151.157C96.9602 151.687 97.0606 152.279 96.996 152.863L91.2021 174.009C91.1583 174.215 91.0372 174.397 90.8637 174.517L98.3282 170.288C98.5148 170.154 98.6493 169.959 98.7088 169.738L104.482 148.592C104.57 148.003 104.488 147.401 104.244 146.857C104.001 146.314 103.606 145.851 103.107 145.526Z" fill="#11A537"/>
<path d="M41.4669 141.191C43.2346 142.301 44.6902 143.844 45.6961 145.674L55.0637 161.892C55.5693 162.805 56.2965 163.576 57.1783 164.134C57.4807 164.353 57.8357 164.487 58.2071 164.525C58.5785 164.562 58.9531 164.5 59.2929 164.345L62.6762 162.421C64.1775 161.131 65.2771 160.053 65.0022 159.884C64.0218 159.315 63.1944 158.517 62.5916 157.558L53.2029 141.339C52.1985 139.508 50.7426 137.965 48.9737 136.856C48.3688 136.418 47.6589 136.149 46.9161 136.074C46.1733 136 45.4241 136.124 44.7445 136.433L37.4492 140.662C38.1122 140.422 38.8233 140.344 39.5226 140.436C40.2218 140.528 40.8887 140.787 41.4669 141.191Z" fill="#11A537"/>
<path d="M81.8343 64.8543C82.7064 65.4196 83.4315 66.1842 83.9499 67.085C84.4683 67.9858 84.7651 68.9969 84.8158 70.035L84.5832 123.471C84.5832 125.374 83.2299 126.135 81.5805 125.183L54.6619 109.599C53.7906 109.031 53.0649 108.266 52.5434 107.366C52.0218 106.466 51.7189 105.456 51.6592 104.418L51.8072 50.9826C51.8072 49.0795 53.1817 48.2971 54.8311 49.2698L81.8343 64.8543Z" fill="#EDF2FB"/>
<path d="M93.7605 57.9186L66.7573 42.2918C66.4548 42.073 66.0999 41.9383 65.7285 41.9011C65.3571 41.864 64.9825 41.9258 64.6427 42.0803L52.6953 49.0585C53.0351 48.9039 53.4097 48.8421 53.7811 48.8792C54.1525 48.9164 54.5075 49.0512 54.8099 49.2699L81.8343 64.8544C82.7064 65.4197 83.4315 66.1843 83.9499 67.0851C84.4683 67.9859 84.7651 68.997 84.8158 70.0351L84.5832 123.471C84.6199 123.839 84.5591 124.211 84.407 124.549C84.2548 124.886 84.0166 125.178 83.7162 125.395L95.7271 118.417C96.0275 118.2 96.2657 117.908 96.4178 117.571C96.57 117.233 96.6307 116.861 96.5941 116.493L96.7421 63.0781C96.6815 62.0453 96.3803 61.0409 95.8626 60.1451C95.345 59.2493 94.6251 58.4868 93.7605 57.9186Z" fill="#C1D3FE"/>
<path d="M94.2893 57.0936L67.2861 41.4246C66.8222 41.1053 66.2806 40.9171 65.7187 40.8799C65.1567 40.8427 64.5951 40.9578 64.0931 41.2131C64.0931 41.2131 52.1457 48.149 52.1457 48.1701C51.6844 48.4728 51.312 48.8929 51.0667 49.3871C50.8214 49.8814 50.7122 50.432 50.7501 50.9825L50.6021 104.418C50.6622 105.641 51.0141 106.832 51.6284 107.892C52.2427 108.951 53.1017 109.848 54.1334 110.508L81.1366 126.092C81.7013 126.446 82.3526 126.636 83.0186 126.642C83.4779 126.648 83.9306 126.531 84.3297 126.304L96.2559 119.389C96.7173 119.082 97.0894 118.658 97.3344 118.16C97.5795 117.662 97.6889 117.109 97.6515 116.556L97.7995 63.1202C97.7336 61.9095 97.3809 60.7317 96.7707 59.6839C96.1604 58.6362 95.3099 57.7484 94.2893 57.0936ZM55.1907 108.689C54.4839 108.219 53.8936 107.594 53.4649 106.861C53.0362 106.128 52.7803 105.307 52.7166 104.46L52.8647 50.9825C52.8434 50.7971 52.8648 50.6093 52.927 50.4334C52.9893 50.2575 53.0909 50.0982 53.2241 49.9675C53.3074 49.946 53.3947 49.946 53.4779 49.9675C53.7711 49.9903 54.0543 50.0847 54.3026 50.2424L81.3058 65.7634C82.0087 66.2361 82.5949 66.8625 83.0198 67.5952C83.4448 68.3279 83.6975 69.1478 83.7587 69.9926L83.6107 123.428C83.6362 123.612 83.619 123.799 83.5603 123.975C83.5016 124.151 83.4031 124.311 83.2724 124.443C83.0885 124.494 82.8953 124.502 82.7081 124.465C82.5209 124.428 82.3448 124.348 82.1939 124.232L55.1907 108.689ZM95.5369 116.535C95.5625 116.718 95.5452 116.906 95.4866 117.082C95.4279 117.258 95.3293 117.418 95.1986 117.55L85.7253 123.048L85.8733 70.056C85.8375 68.8391 85.5095 67.6485 84.9169 66.5849C84.3244 65.5213 83.4848 64.6159 82.4688 63.9449L55.6982 48.6353L65.1504 43.1374C65.3344 43.088 65.5272 43.0813 65.7141 43.118C65.9011 43.1546 66.0771 43.2336 66.2288 43.3488L93.232 58.9545C93.9328 59.4294 94.5173 60.0564 94.942 60.7886C95.3667 61.5209 95.6207 62.3396 95.685 63.1836L95.5369 116.535Z" fill="#E1EBF2"/>
<path d="M123.936 58.0665C124.795 58.6472 125.507 59.4192 126.017 60.3218C126.527 61.2244 126.821 62.233 126.875 63.2684L126.664 147.725C126.664 149.628 125.31 150.389 123.661 149.438L96.6578 133.853C95.7905 133.283 95.0689 132.517 94.5511 131.617C94.0333 130.718 93.7337 129.709 93.6763 128.672L93.9089 44.216C93.9089 42.3128 95.2622 41.5304 96.9327 42.482L123.936 58.0665Z" fill="#EDF2FB"/>
<path d="M135.841 51.1517L108.838 35.5672C108.535 35.3484 108.18 35.2137 107.809 35.1765C107.438 35.1394 107.063 35.2012 106.723 35.3557L94.7969 42.2916C95.1366 42.137 95.5113 42.0752 95.8827 42.1123C96.2541 42.1495 96.609 42.2843 96.9115 42.503L123.915 58.0875C124.775 58.6638 125.49 59.4314 126.003 60.3303C126.517 61.2291 126.815 62.2347 126.875 63.2682L126.664 147.725C126.7 148.093 126.64 148.465 126.487 148.803C126.335 149.14 126.097 149.432 125.797 149.649L137.723 142.713C138.023 142.496 138.262 142.205 138.414 141.867C138.566 141.529 138.627 141.157 138.59 140.789L138.844 56.3324C138.784 55.294 138.481 54.2842 137.959 53.3843C137.438 52.4844 136.712 51.7197 135.841 51.1517Z" fill="#C1D3FE"/>
<path d="M136.369 50.2213L109.387 34.6369C108.921 34.3209 108.379 34.1365 107.817 34.103C107.255 34.0695 106.694 34.1882 106.194 34.4466L94.2469 41.3824C93.7885 41.6931 93.4188 42.1177 93.1742 42.6145C92.9295 43.1113 92.8182 43.6631 92.8513 44.2159L92.6187 128.672C92.6781 129.893 93.0276 131.082 93.638 132.141C94.2484 133.201 95.1022 134.099 96.1289 134.762L123.132 150.347C123.698 150.697 124.349 150.887 125.014 150.897C125.473 150.903 125.926 150.786 126.325 150.558L138.251 143.622C138.7 143.308 139.058 142.88 139.288 142.382C139.519 141.885 139.613 141.335 139.562 140.789L139.816 56.3325C139.769 55.1132 139.431 53.9229 138.832 52.8601C138.232 51.7973 137.388 50.8927 136.369 50.2213ZM97.2707 132.923C96.5622 132.456 95.9719 131.831 95.5462 131.097C95.1205 130.363 94.8712 129.54 94.8178 128.694L95.0504 44.2371C95.0276 44.0516 95.0481 43.8634 95.1105 43.6872C95.1729 43.511 95.2754 43.3518 95.4099 43.2221C95.4927 43.1974 95.5809 43.1974 95.6637 43.2221C95.9582 43.2383 96.243 43.3332 96.4883 43.497L123.407 58.9969C124.108 59.4718 124.692 60.0987 125.117 60.831C125.542 61.5633 125.796 62.382 125.86 63.226L125.606 147.725C125.675 147.909 125.676 148.111 125.609 148.295C125.542 148.48 125.411 148.634 125.241 148.731C125.07 148.828 124.87 148.86 124.678 148.823C124.485 148.786 124.312 148.682 124.189 148.528L97.2707 132.923ZM137.448 140.789C137.473 140.973 137.456 141.16 137.397 141.336C137.339 141.512 137.24 141.672 137.109 141.804L127.657 147.302L127.89 63.2683C127.853 62.0404 127.523 60.8392 126.927 59.765C126.331 58.6908 125.487 57.7749 124.464 57.0937L97.7782 41.763L107.252 36.2651C107.432 36.2141 107.622 36.2067 107.806 36.2435C107.989 36.2803 108.162 36.3601 108.309 36.4766L135.333 52.061C136.04 52.5314 136.63 53.1568 137.059 53.8897C137.488 54.6225 137.744 55.4435 137.807 56.2902L137.448 140.789Z" fill="#E1EBF2"/>
<path d="M166.016 49.5869C166.891 50.1484 167.619 50.9121 168.138 51.8137C168.657 52.7153 168.952 53.7284 168.997 54.7676L168.68 171.979C168.68 173.882 167.327 174.643 165.677 173.692L138.674 158.086C137.8 157.527 137.071 156.767 136.549 155.869C136.027 154.972 135.726 153.963 135.671 152.927L136.01 35.7152C136.01 33.8121 137.363 33.0297 139.012 33.9813L166.016 49.5869Z" fill="#EDF2FB"/>
<path d="M177.942 42.6512L150.939 27.0667C150.636 26.8479 150.281 26.7132 149.91 26.676C149.539 26.6389 149.164 26.7007 148.824 26.8552L136.898 33.8334C137.238 33.6788 137.612 33.617 137.984 33.6541C138.355 33.6913 138.71 33.8261 139.013 34.0448L166.016 49.6504C166.891 50.2119 167.619 50.9756 168.138 51.8772C168.657 52.7788 168.952 53.7919 168.997 54.8312L168.68 172.043C168.715 172.413 168.651 172.786 168.495 173.124C168.339 173.462 168.096 173.753 167.792 173.967L179.739 167.052C180.044 166.838 180.286 166.547 180.442 166.209C180.598 165.871 180.662 165.498 180.628 165.128L180.945 47.9165C180.91 46.8608 180.619 45.8294 180.096 44.9119C179.572 43.9943 178.833 43.2183 177.942 42.6512Z" fill="#C1D3FE"/>
<path d="M178.471 41.7418L151.467 26.1361C151.002 25.8202 150.459 25.6357 149.897 25.6022C149.335 25.5687 148.775 25.6874 148.274 25.9458L136.348 32.8817C135.885 33.1878 135.512 33.6115 135.267 34.1094C135.021 34.6074 134.913 35.1616 134.953 35.7152L134.614 152.927C134.674 154.15 135.026 155.341 135.641 156.4C136.255 157.46 137.114 158.357 138.146 159.017L165.149 174.601C165.718 174.945 166.366 175.134 167.031 175.151C167.484 175.159 167.93 175.042 168.321 174.812L180.247 167.877C180.705 167.566 181.075 167.141 181.32 166.645C181.564 166.148 181.676 165.596 181.643 165.043L181.96 47.8318C181.911 46.6108 181.569 45.4196 180.961 44.3593C180.354 43.2991 179.499 42.4011 178.471 41.7418ZM139.203 157.177C138.49 156.712 137.896 156.088 137.467 155.354C137.037 154.62 136.785 153.796 136.729 152.948L137.067 35.7363C137.044 35.5509 137.065 35.3626 137.127 35.1865C137.19 35.0103 137.292 34.8511 137.427 34.7213C137.509 34.6967 137.598 34.6967 137.68 34.7213C137.968 34.7382 138.246 34.8333 138.484 34.9962L165.487 50.5807C166.196 51.0475 166.786 51.6725 167.212 52.4064C167.637 53.1403 167.887 53.9631 167.94 54.8099L167.623 172.021C167.681 172.203 167.675 172.4 167.604 172.578C167.534 172.755 167.404 172.903 167.236 172.995C167.069 173.088 166.875 173.119 166.687 173.084C166.499 173.049 166.329 172.95 166.206 172.804L139.203 157.177ZM179.549 165.043C179.572 165.229 179.551 165.417 179.489 165.593C179.427 165.769 179.324 165.928 179.19 166.058L169.737 171.556L170.055 54.7676C170.011 53.5374 169.668 52.3365 169.057 51.2681C168.445 50.1998 167.583 49.2963 166.544 48.6353L139.88 33.2623L149.353 27.7644C149.564 27.6375 149.966 27.7644 150.41 27.9758L177.413 43.5603C178.121 44.0283 178.71 44.6535 179.136 45.3872C179.561 46.1209 179.811 46.9431 179.866 47.7895L179.549 165.043Z" fill="#E1EBF2"/>
<path d="M95.5789 149.861C96.075 150.177 96.4727 150.626 96.7268 151.156C96.981 151.687 97.0814 152.278 97.0168 152.863L91.2228 174.009C91.0325 174.728 90.4193 174.834 89.7638 174.474C89.3776 174.182 89.054 173.815 88.8122 173.396L85.0483 166.862C84.7985 166.403 84.4343 166.017 83.991 165.741C83.831 165.646 83.6484 165.596 83.4623 165.596C83.2763 165.596 83.0937 165.646 82.9337 165.741L61.3226 177.752C60.6431 178.061 59.8939 178.185 59.1511 178.11C58.4083 178.036 57.6984 177.766 57.0935 177.329C55.3302 176.222 53.8754 174.687 52.8643 172.867L43.5601 156.627C43.0591 155.711 42.3309 154.939 41.4456 154.386C41.1431 154.167 40.7882 154.032 40.4168 153.995C40.0454 153.958 39.6707 154.02 39.331 154.174L28.7581 160.159C28.2479 160.388 27.6864 160.48 27.1297 160.424C26.573 160.368 26.0408 160.167 25.5862 159.841C24.2694 159.011 23.1909 157.852 22.4566 156.479C20.6803 153.434 20.7015 150.135 22.4566 149.163L37.2587 140.704C37.9382 140.395 38.6874 140.272 39.4302 140.346C40.1731 140.42 40.883 140.69 41.4878 141.127C43.2556 142.238 44.7111 143.781 45.717 145.61L55.0846 161.829C55.5902 162.742 56.3174 163.513 57.1992 164.07C57.5016 164.289 57.8566 164.424 58.228 164.461C58.5994 164.498 58.974 164.436 59.3138 164.282L76.4631 154.576C77.0551 154.238 77.0551 153.159 76.4631 152.144L73.1643 146.435C72.3608 145.039 72.7414 143.665 73.841 143.94L95.156 149.691C95.3042 149.728 95.4465 149.785 95.5789 149.861Z" fill="#5AE069"/>
<path d="M103.614 144.616C103.415 144.498 103.202 144.406 102.98 144.342L81.6227 138.59C81.3804 138.52 81.1266 138.499 80.8762 138.528C80.6257 138.557 80.3835 138.636 80.1636 138.759L72.974 142.988C72.6203 143.093 72.3092 143.308 72.0859 143.601C71.781 144.122 71.631 144.719 71.6535 145.322C71.6759 145.925 71.87 146.509 72.2128 147.006L75.5538 152.779C75.871 153.329 75.8287 153.751 75.9344 153.751L66.6091 159.017C66.5184 158.999 66.425 158.999 66.3342 159.017C66.1538 159.068 65.9639 159.075 65.7801 159.038C65.5963 159.002 65.4239 158.922 65.2769 158.805C64.5516 158.341 63.9551 157.701 63.543 156.944L54.1542 140.726C53.0571 138.738 51.4703 137.064 49.5444 135.862C48.7739 135.324 47.8741 135.002 46.9375 134.927C46.0008 134.853 45.0614 135.03 44.2157 135.439L21.928 148.127C21.5126 148.378 21.1511 148.71 20.8644 149.102C20.5777 149.493 20.3714 149.938 20.2575 150.41C19.8397 152.657 20.2934 154.978 21.5262 156.902C22.3699 158.457 23.6008 159.768 25.0999 160.708C25.7125 161.132 26.4263 161.387 27.1689 161.446C27.9116 161.506 28.6568 161.368 29.329 161.047L39.9019 155.041C40.0845 155.001 40.2736 155.001 40.4562 155.041C40.6387 155.082 40.8104 155.161 40.9592 155.274C41.6843 155.73 42.2811 156.363 42.6932 157.114L51.9974 173.396C53.1079 175.38 54.7005 177.053 56.6283 178.259C57.6069 178.85 58.7212 179.178 59.8636 179.211C60.6025 179.223 61.3316 179.04 61.9782 178.682L83.3989 166.65C83.6853 166.834 83.9186 167.089 84.0756 167.391L87.8395 173.925C88.182 174.54 88.6772 175.057 89.2775 175.426C89.525 175.577 89.8011 175.676 90.0885 175.716C90.3759 175.756 90.6685 175.736 90.948 175.659C91.1345 175.632 91.3184 175.589 91.4978 175.532L98.92 171.281C99.3525 171.015 99.6636 170.59 99.7869 170.097L105.56 148.951C105.707 148.117 105.6 147.258 105.253 146.485C104.906 145.712 104.335 145.061 103.614 144.616ZM45.273 137.448C45.8026 137.251 46.3723 137.187 46.9325 137.261C47.4927 137.334 48.0264 137.544 48.4871 137.871C50.0897 138.899 51.4121 140.308 52.3357 141.973L61.7033 158.192C62.2484 159.161 63.0078 159.993 63.9236 160.624L58.8063 163.542C58.622 163.587 58.4301 163.591 58.2439 163.555C58.0577 163.518 57.8816 163.442 57.7279 163.331C57.009 162.865 56.4198 162.225 56.0151 161.47L46.6263 145.251C45.528 143.257 43.9326 141.582 41.9954 140.387C41.6836 140.213 41.3583 140.065 41.0227 139.943L45.273 137.448ZM85.8518 166.333C85.5164 165.707 85.02 165.181 84.4139 164.811C84.0925 164.625 83.7278 164.527 83.3566 164.527C82.9854 164.527 82.6208 164.625 82.2993 164.811L60.8997 176.843C60.3721 177.051 59.8002 177.121 59.2379 177.047C58.6756 176.973 58.1414 176.757 57.6856 176.42C56.0739 175.412 54.7486 174.007 53.837 172.339L44.406 156.099C43.8127 155.018 42.9447 154.114 41.8896 153.477C41.3207 153.133 40.6721 152.944 40.0077 152.927C39.5613 152.918 39.1215 153.035 38.7389 153.265L28.166 159.249C27.8141 159.371 27.438 159.406 27.0697 159.351C26.7014 159.296 26.352 159.152 26.0514 158.932C24.8779 158.198 23.9159 157.17 23.2602 155.951C22.3138 154.526 21.9365 152.798 22.2029 151.108C22.2431 150.903 22.3236 150.707 22.4397 150.533C22.5559 150.359 22.7053 150.209 22.8795 150.093L37.8085 141.635C38.3157 141.485 38.8497 141.449 39.3724 141.53C39.8951 141.61 40.3936 141.805 40.8324 142.1C42.4449 143.116 43.7699 144.528 44.6809 146.202L54.0696 162.421C54.6618 163.495 55.5213 164.399 56.5649 165.043C57.0273 165.357 57.5648 165.541 58.1222 165.578C58.6795 165.616 59.2367 165.504 59.7367 165.255L76.8648 155.57C77.0877 155.443 77.2829 155.273 77.439 155.07C77.5952 154.866 77.7091 154.634 77.7741 154.386C77.8806 153.925 77.8925 153.448 77.8089 152.983C77.7253 152.517 77.548 152.074 77.2878 151.679L74.0102 145.906C73.8464 145.636 73.7452 145.333 73.7141 145.018L94.86 150.706H95.008C95.304 150.906 95.5446 151.178 95.7073 151.496C95.87 151.814 95.9495 152.168 95.9384 152.525L90.229 173.502C89.9611 173.327 89.7427 173.087 89.5946 172.804L85.8518 166.333ZM97.8415 169.378L92.8088 172.296L98.0318 153.138C98.1589 152.322 98.0444 151.487 97.7025 150.736C97.3606 149.984 96.8061 149.349 96.1076 148.909C95.903 148.787 95.6824 148.695 95.452 148.634L76.2305 143.453L81.094 140.599L102.578 146.393C102.878 146.59 103.123 146.861 103.289 147.179C103.456 147.497 103.539 147.852 103.53 148.211L97.8415 169.378Z" fill="#E1EBF2"/>
</g>
<defs>
<clipPath id="clip0">
<rect width="203" height="203" fill="white"/>
</clipPath>
</defs>
</svg>
