<svg width="184" height="160" viewBox="0 0 184 160" fill="none" xmlns="http://www.w3.org/2000/svg">
<path d="M182.941 66.2671C182.908 66.6671 182.777 67.0505 182.561 67.3784C182.345 67.7063 182.053 67.967 181.713 68.1341L132.463 98.9162C131.538 99.4221 130.515 99.6858 129.477 99.6858C128.44 99.6858 127.417 99.4221 126.492 98.9162L92.0423 77.5372L91.894 129.516L126.344 150.872C127.273 151.377 128.299 151.64 129.34 151.64C130.381 151.64 131.407 151.377 132.336 150.872L181.565 120.113C181.905 119.946 182.197 119.685 182.413 119.357C182.628 119.03 182.76 118.646 182.793 118.246L182.941 66.2671Z" fill="#C1D3FE"/>
<path d="M148.618 40.1524L120.076 22.4391C119.613 22.187 119.102 22.0557 118.583 22.0557C118.065 22.0557 117.553 22.187 117.091 22.4391L115.608 23.3725L60.3873 57.8658L58.884 58.8221C58.717 58.9037 58.5727 59.0305 58.465 59.1902C58.3574 59.3498 58.2902 59.5368 58.2699 59.7328L58.1641 111.689C58.1805 111.892 58.2484 112.087 58.3604 112.251C58.4724 112.416 58.6242 112.544 58.7993 112.622L87.2991 130.359C87.7603 130.616 88.2723 130.75 88.7919 130.75C89.3115 130.75 89.8235 130.616 90.2846 130.359L91.788 129.425L92.042 77.5372L147.094 42.9529L148.597 42.0194C149.444 41.5185 149.444 40.6761 148.618 40.1524Z" fill="#EDF2FB"/>
<path d="M58.2701 59.7328C58.2903 59.5368 58.3575 59.3498 58.4652 59.1902C58.5728 59.0305 58.7172 58.9037 58.8841 58.822L60.3875 57.8658L25.8319 36.4185C25.4883 36.2545 25.1914 35.9952 24.9719 35.6671C24.7523 35.339 24.618 34.9539 24.5826 34.5515L24.4556 86.5078C24.4873 86.9142 24.62 87.304 24.8397 87.6364C25.0595 87.9689 25.3583 88.2317 25.7048 88.3975L58.1642 108.524L58.2701 59.7328Z" fill="#C1D3FE"/>
<path d="M60.3877 57.8658L25.8321 36.4185C24.1805 35.3939 24.1593 33.7319 25.8321 32.7073L75.1034 1.92514C76.0305 1.41371 77.0575 1.14697 78.0995 1.14697C79.1415 1.14697 80.1685 1.41371 81.0956 1.92514L115.651 23.3725L60.3877 57.8658Z" fill="#EDF2FB"/>
<path d="M147.094 42.9529L181.649 64.4002C182.008 64.537 182.319 64.7899 182.538 65.1243C182.758 65.4586 182.876 65.8579 182.876 66.2672C182.876 66.6765 182.758 67.0758 182.538 67.4102C182.319 67.7445 182.008 67.9974 181.649 68.1342L132.463 98.9164C131.538 99.4222 130.515 99.6859 129.477 99.6859C128.44 99.6859 127.417 99.4222 126.492 98.9164L92.042 77.5373" fill="#EDF2FB"/>
<path d="M182.221 63.4213L149.211 42.953C149.519 42.7623 149.778 42.4914 149.963 42.1651C150.148 41.8388 150.254 41.4677 150.27 41.086C150.25 40.6851 150.132 40.2971 149.927 39.9612C149.723 39.6253 149.439 39.3536 149.106 39.1735L120.606 21.4601C119.985 21.0975 119.29 20.9075 118.584 20.9075C117.877 20.9075 117.182 21.0975 116.562 21.4601L115.609 22.0521L81.5825 0.923532C80.493 0.316718 79.284 0 78.057 0C76.8301 0 75.6211 0.316718 74.5316 0.923532L25.2814 31.7057C24.7891 31.9703 24.3686 32.3671 24.0608 32.8577C23.7529 33.3484 23.568 33.9161 23.524 34.5061L23.397 86.5079C23.4235 87.1146 23.603 87.7021 23.9163 88.2074C24.2296 88.7128 24.6649 89.117 25.1756 89.3766L57.0844 109.185V111.689C57.1045 112.09 57.2228 112.478 57.4273 112.814C57.6318 113.15 57.9153 113.422 58.249 113.602L86.7912 131.315C87.4118 131.678 88.107 131.868 88.8133 131.868C89.5197 131.868 90.2148 131.678 90.8354 131.315L91.8094 130.723L125.92 151.852C127.008 152.464 128.218 152.784 129.446 152.784C130.674 152.784 131.883 152.464 132.971 151.852L182.094 121.092C182.597 120.829 183.024 120.427 183.333 119.926C183.642 119.426 183.821 118.846 183.852 118.246C183.852 118.246 184 67.3601 184 66.29C183.965 65.6858 183.782 65.1023 183.469 64.5986C183.157 64.0948 182.726 63.6887 182.221 63.4213ZM26.4036 33.6865L75.5903 2.90433C76.3583 2.50014 77.202 2.29002 78.057 2.29002C78.9121 2.29002 79.7558 2.50014 80.5238 2.90433L113.491 23.3954L60.3875 56.5681L26.4036 35.4396C25.959 35.1664 25.6837 34.8249 25.6837 34.5516C25.6837 34.2784 25.9167 33.9597 26.4036 33.6865ZM25.6626 51.3315L57.2538 70.8663V81.886L25.5779 62.3512L25.6626 51.3315ZM25.6626 64.9922L57.2538 84.5271V95.5467L25.5355 75.9891L25.6626 64.9922ZM58.3972 57.9114C58.0882 58.0972 57.8274 58.3634 57.6387 58.6856C57.4501 59.0078 57.3396 59.3757 57.3173 59.7556V68.2708L25.599 48.7132V37.6025L58.3972 57.9114ZM26.3401 87.5096C25.8955 87.2364 25.6202 86.8949 25.6202 86.6217V78.6074L57.1056 98.1422V106.566L26.3401 87.5096ZM91.513 76.5811C91.35 76.6767 91.2145 76.8185 91.1212 76.9911C91.0278 77.1637 90.9803 77.3605 90.9836 77.5601L90.7295 128.765L89.7555 129.38C89.4526 129.526 89.1243 129.602 88.7921 129.602C88.46 129.602 88.1317 129.526 87.8287 129.38L59.1806 111.689L59.4135 59.7784L117.62 23.3499C117.925 23.1979 118.258 23.1201 118.594 23.1222C118.924 23.1172 119.25 23.1952 119.547 23.3499L148.005 41.1088L91.513 76.5811ZM181.734 118.246C181.734 118.519 181.48 118.838 181.036 119.111L131.807 149.894C131.039 150.298 130.195 150.508 129.34 150.508C128.485 150.508 127.641 150.298 126.873 149.894L92.8469 128.765V120.341L125.941 140.832C127.029 141.431 128.234 141.744 129.456 141.744C130.679 141.744 131.883 141.431 132.971 140.832L181.671 110.141L181.734 118.246ZM181.734 107.545L131.934 139.011C131.169 139.414 130.329 139.624 129.478 139.624C128.626 139.624 127.786 139.414 127.021 139.011L92.8893 117.723V106.703L125.941 127.194C127.029 127.793 128.234 128.106 129.456 128.106C130.679 128.106 131.883 127.793 132.971 127.194L181.671 96.4802L181.734 107.545ZM181.734 93.8846L131.934 125.35C131.169 125.754 130.329 125.964 129.478 125.964C128.626 125.964 127.786 125.754 127.021 125.35L92.9104 104.085V93.065L125.92 113.556C127.008 114.155 128.213 114.468 129.435 114.468C130.657 114.468 131.862 114.155 132.95 113.556L181.798 82.8195L181.734 93.8846ZM181.734 80.2239L131.934 111.689C131.169 112.093 130.329 112.303 129.478 112.303C128.626 112.303 127.786 112.093 127.021 111.689L92.9528 90.4467V79.4271L125.941 99.9181C127.029 100.518 128.234 100.83 129.456 100.83C130.679 100.83 131.883 100.518 132.971 99.9181L181.861 69.3409L181.734 80.2239ZM181.057 67.2007L131.934 98.0284C131.169 98.4323 130.329 98.6423 129.478 98.6423C128.626 98.6423 127.786 98.4323 127.021 98.0284L94.0326 77.5373L147.094 44.2735L181.12 65.3793C181.565 65.6525 181.84 65.994 181.84 66.2672C181.84 66.5405 181.607 66.882 181.163 67.1552L181.057 67.2007Z" fill="#E1EBF2"/>
<path d="M47.9376 119.976C37.139 113.283 19.713 113.283 8.99906 119.976C-1.71486 126.67 -1.58782 137.53 9.1261 144.224C19.84 150.918 37.3507 150.918 48.0646 144.224C58.7786 137.53 58.715 126.67 47.9376 119.976Z" fill="#F7DA61"/>
<path d="M47.599 132.142C47.616 125.591 39.098 120.255 28.5735 120.223C18.049 120.192 9.50339 125.477 9.48637 132.028C9.46936 138.579 17.9874 143.916 28.5119 143.947C39.0364 143.979 47.5819 138.694 47.599 132.142Z" fill="#FFEC8D"/>
<path d="M56.0469 132.34C56.0469 136.643 53.3155 140.923 48.0644 144.224C37.3505 150.918 19.9245 150.918 9.12584 144.224C3.76888 140.9 0.995117 136.552 0.995117 132.18V141.287C0.995117 145.841 3.68418 150.189 9.10466 153.536C19.9033 160.185 37.3293 160.185 48.0432 153.536C53.3578 150.212 56.0469 145.841 56.0469 141.56V132.34Z" fill="#DBBE42"/>
<path d="M42.496 122.709C38.1554 120.341 33.3568 119.106 28.4895 119.106C23.6223 119.106 18.8236 120.341 14.4831 122.709C10.5659 125.168 8.40623 128.492 8.4274 132.18C8.44857 135.868 10.5448 139.01 14.589 141.583C18.8809 144.005 23.6756 145.212 28.5213 145.089C33.398 145.192 38.2175 143.946 42.5171 141.469C46.4978 139.01 48.6575 135.709 48.6575 132.18C48.6575 128.651 46.4555 125.168 42.496 122.709ZM41.522 139.511C37.5135 141.701 33.0809 142.842 28.5848 142.842C24.0887 142.842 19.6561 141.701 15.6477 139.511C12.3445 137.462 10.5448 134.821 10.5448 132.066C10.5448 129.311 12.3234 126.716 15.563 124.689C19.5418 122.391 24.0057 121.238 28.5213 121.343C33.0357 121.249 37.497 122.402 41.4796 124.689C44.7616 126.716 46.5825 129.357 46.5825 132.135C46.5825 134.912 44.7616 137.485 41.522 139.511Z" fill="#011627" fill-opacity="0.2"/>
<path d="M48.4667 118.998C37.3928 112.167 19.4587 112.167 8.4695 118.998C2.96432 122.435 0 127.08 0 132.066V141.424C0 146.433 3.07019 151.1 8.66006 154.538C14.7753 158.01 21.6069 159.764 28.521 159.638C35.4805 159.787 42.3602 158.024 48.5091 154.515C53.9931 151.1 56.9786 146.501 56.9786 141.56C56.9786 141.56 56.9786 132.18 56.9786 132.135C57.1056 127.126 54.0354 122.458 48.4667 118.998ZM54.9671 141.56C54.9671 145.659 52.3203 149.552 47.5139 152.535C37.0964 159.001 20.0515 159.001 9.63406 152.671C4.72175 149.643 2.03268 145.681 2.03268 141.515V139.01C3.7512 141.591 5.98722 143.723 8.57537 145.249C14.7083 148.761 21.5736 150.533 28.521 150.394C35.4834 150.546 42.3656 148.775 48.5091 145.249C51.0124 143.753 53.1805 141.686 54.8612 139.193L54.9671 141.56ZM47.5774 143.223C37.1599 149.734 20.1786 149.734 9.69758 143.223C4.80644 140.172 2.11737 136.21 2.0962 132.021C2.07503 127.831 4.72175 123.961 9.46467 120.956C15.3164 117.582 21.8835 115.903 28.521 116.083C35.1562 115.928 41.7175 117.605 47.5774 120.956C52.4686 124.006 55.1576 127.968 55.1576 132.135C55.1576 136.301 52.3415 140.217 47.5774 143.223Z" fill="#011627" fill-opacity="0.2"/>
<path d="M60.6417 106.316C49.8431 99.622 32.4171 99.622 21.7032 106.316C10.9892 113.009 11.1163 123.87 21.8302 130.563C32.5441 137.257 50.0548 137.257 60.7687 130.563C71.4827 123.87 71.4191 113.009 60.6417 106.316Z" fill="#F7DA61"/>
<path d="M60.2962 118.489C60.3132 111.938 51.7952 106.601 41.2707 106.57C30.7462 106.538 22.2007 111.823 22.1836 118.375C22.1666 124.926 30.6846 130.262 41.2091 130.294C51.7336 130.325 60.2792 125.04 60.2962 118.489Z" fill="#FFEC8D"/>
<path d="M68.7509 118.679C68.7509 122.982 66.0195 127.262 60.7684 130.564C50.0545 137.257 32.6285 137.257 21.8299 130.564C16.473 127.24 13.6992 122.891 13.6992 118.52V127.627C13.6992 132.021 16.4095 136.415 21.8299 139.762C32.6285 146.41 50.0545 146.41 60.7684 139.762C66.0619 136.552 68.7509 132.18 68.7509 127.9V118.679Z" fill="#DBBE42"/>
<path d="M55.2001 109.048C50.8595 106.68 46.0609 105.446 41.1936 105.446C36.3264 105.446 31.5277 106.68 27.1872 109.048C23.2701 111.507 21.1103 114.831 21.1315 118.405C21.1527 121.98 23.2489 125.236 27.2931 127.808C31.5752 130.27 36.3705 131.516 41.2254 131.429C46.1021 131.532 50.9216 130.285 55.2212 127.808C59.2019 125.35 61.3616 122.048 61.3616 118.519C61.3616 114.99 59.1596 111.507 55.2001 109.048ZM54.2261 125.85C50.2176 128.04 45.785 129.181 41.2889 129.181C36.7928 129.181 32.3602 128.04 28.3518 125.85C25.0486 123.801 23.2489 121.16 23.2489 118.405C23.2489 115.651 25.0275 113.055 28.2671 111.029C32.2459 108.73 36.7098 107.577 41.2254 107.682C45.7398 107.589 50.2012 108.741 54.1837 111.029C57.4657 113.055 59.2866 115.582 59.2866 118.474C59.2866 121.365 57.4657 123.824 54.2261 125.85Z" fill="#011627" fill-opacity="0.2"/>
<path d="M61.1708 105.337C50.097 98.5065 32.1628 98.5065 21.1736 105.337C15.6684 108.775 12.7041 113.419 12.7041 118.406V127.763C12.7041 132.772 15.7743 137.439 21.3642 140.877C27.4794 144.349 34.311 146.103 41.2251 145.977C48.1846 146.126 55.0643 144.363 61.2132 140.855C66.6972 137.439 69.6827 132.84 69.6827 127.9C69.6827 127.9 69.6827 118.519 69.6827 118.474C69.8097 113.465 66.7395 108.798 61.1708 105.337ZM67.6712 127.9C67.6712 131.998 65.0245 135.891 60.218 138.874C49.8005 145.34 32.7556 145.34 22.3382 139.01C17.4258 135.982 14.7368 132.021 14.7368 127.854V125.35C16.4553 127.93 18.6913 130.062 21.2795 131.588C27.4124 135.101 34.2777 136.872 41.2251 136.734C48.1875 136.886 55.0697 135.114 61.2132 131.588C63.7165 130.092 65.8847 128.025 67.5653 125.532L67.6712 127.9ZM60.2815 129.562C49.864 136.073 32.8827 136.073 22.4017 129.562C17.5105 126.511 14.8215 122.549 14.8003 118.36C14.7791 114.171 17.4682 110.277 22.2958 107.272C28.1118 103.929 34.6322 102.259 41.2251 102.423C47.8603 102.267 54.4216 103.945 60.2815 107.295C65.1727 110.346 67.8617 114.307 67.8617 118.474C67.8617 122.64 65.0456 126.556 60.2815 129.562Z" fill="#011627" fill-opacity="0.2"/>
<path d="M50.0548 90.3782C39.2562 83.6845 21.8302 83.6845 11.1162 90.3782C0.402323 97.072 0.529366 107.932 11.2433 114.626C21.9572 121.32 39.4679 121.32 50.1818 114.626C60.8958 107.932 60.8322 97.072 50.0548 90.3782Z" fill="#F7DA61"/>
<path d="M49.7005 102.552C49.7175 96.0011 41.1995 90.6647 30.675 90.6331C20.1505 90.6015 11.6049 95.8867 11.5879 102.438C11.5709 108.989 20.0889 114.325 30.6134 114.357C41.1379 114.389 49.6835 109.103 49.7005 102.552Z" fill="#FFEC8D"/>
<path d="M58.2939 102.136C58.2939 106.439 55.5625 110.72 50.3114 114.021C39.5975 120.715 22.1715 120.715 11.3729 114.021C6.01595 110.697 3.24219 106.348 3.24219 101.977V111.084C3.24219 115.638 5.93125 119.986 11.3517 123.333C22.1503 129.981 39.5763 129.981 50.2903 123.333C55.6049 120.009 58.2939 115.638 58.2939 111.357V102.25V102.136Z" fill="#DBBE42"/>
<path d="M44.6132 93.1105C40.2726 90.7424 35.474 89.5083 30.6067 89.5083C25.7395 89.5083 20.9408 90.7424 16.6003 93.1105C12.6831 95.5694 10.5234 98.8935 10.5446 102.582C10.5658 106.27 12.662 109.412 16.7062 111.985C20.9981 114.407 25.7928 115.614 30.6385 115.491C35.5152 115.594 40.3347 114.348 44.6343 111.871C48.615 109.412 50.7747 106.111 50.7747 102.582C50.7747 99.0529 48.5727 95.5694 44.6132 93.1105ZM43.6392 109.913C39.6307 112.103 35.1981 113.244 30.702 113.244C26.2059 113.244 21.7733 112.103 17.7648 109.913C14.4617 107.864 12.662 105.223 12.662 102.468C12.662 99.7132 14.4406 97.1176 17.6801 95.0913C21.659 92.7929 26.1229 91.64 30.6385 91.7444C35.1529 91.6512 39.6142 92.8035 43.5968 95.0913C46.8787 97.1176 48.6997 99.6449 48.6997 102.536C48.6997 105.428 46.8787 107.887 43.6392 109.913Z" fill="#011627" fill-opacity="0.2"/>
<path d="M50.8984 89.6677C39.8245 82.8373 21.8903 82.8373 10.9011 89.6677C5.39597 93.1056 2.43164 97.7503 2.43164 102.736V112.094C2.43164 117.103 5.50183 121.77 11.0917 125.208C17.207 128.68 24.0386 130.434 30.9527 130.308C37.9122 130.457 44.7919 128.694 50.9407 125.186C56.4247 121.77 59.4102 117.171 59.4102 112.231C59.4102 112.231 59.4102 102.85 59.4102 102.805C59.5373 97.7958 56.4671 93.1284 50.8984 89.6677ZM57.3987 112.231C57.3987 116.329 54.752 120.222 49.9455 123.205C39.5281 129.671 22.4832 129.671 12.0657 123.341C7.15339 120.313 4.46432 116.352 4.46432 112.185V109.681C6.18284 112.261 8.41886 114.393 11.007 115.919C17.14 119.432 24.0052 121.203 30.9527 121.065C37.915 121.217 44.7972 119.445 50.9407 115.919C53.444 114.423 55.6122 112.356 57.2928 109.863L57.3987 112.231ZM50.0091 113.893C39.5916 120.404 22.6102 120.404 12.1292 113.893C7.23808 110.842 4.54902 106.88 4.52784 102.691C4.50667 98.5016 7.15339 94.6311 11.8963 91.6257C17.748 88.2521 24.3151 86.573 30.9527 86.7534C37.5878 86.5978 44.1492 88.2754 50.0091 91.6257C54.9002 94.6766 57.5893 98.6382 57.5893 102.805C57.5893 106.971 54.7732 110.887 50.0091 113.893Z" fill="#011627" fill-opacity="0.2"/>
</svg>
