<svg width="72" height="88" viewBox="0 0 72 88" fill="none" xmlns="http://www.w3.org/2000/svg">
<g clip-path="url(#clip0)">
<path d="M64.9602 39.6742V33.5642C64.9602 31.9842 63.8302 31.3542 62.4602 32.1442L62.3302 32.2242C61.6363 32.7294 61.0655 33.3849 60.6603 34.1415C60.2551 34.8982 60.0261 35.7366 59.9902 36.5942V38.1142L65.7802 41.5242C65.4914 41.3166 65.2631 41.0358 65.119 40.7106C64.9749 40.3854 64.9201 40.0277 64.9602 39.6742Z" fill="#ABC4FF"/>
<path d="M6.47996 52.7639C5.70654 53.1613 4.84951 53.3686 3.97996 53.3686C3.11041 53.3686 2.25338 53.1613 1.47996 52.7639C1.28955 52.6544 1.11466 52.5199 0.959961 52.3639L2.02996 57.7239C2.12177 58.176 2.36705 58.5825 2.72426 58.8745C3.08146 59.1664 3.52862 59.3259 3.98996 59.3259C4.4513 59.3259 4.89846 59.1664 5.25566 58.8745C5.61287 58.5825 5.85815 58.176 5.94996 57.7239L7.04996 52.2539C6.8825 52.4475 6.69094 52.6189 6.47996 52.7639Z" fill="#F4914E"/>
<path d="M5.75004 20.5241C4.67288 20.864 3.5172 20.864 2.44004 20.5241C1.16004 20.1241 0.670039 19.4441 0.600039 18.7241L0.540039 51.3141C0.566619 51.6218 0.672789 51.9173 0.848116 52.1715C1.02344 52.4257 1.26189 52.6299 1.54004 52.7641C2.31346 53.1615 3.17049 53.3688 4.04004 53.3688C4.90959 53.3688 5.76662 53.1615 6.54004 52.7641C6.81488 52.6309 7.05105 52.4295 7.22609 52.1792C7.40113 51.9289 7.5092 51.638 7.54004 51.3341L7.63004 18.7341C7.54004 19.4041 7.00004 20.1141 5.75004 20.5241Z" fill="#FEC89A"/>
<path d="M70.6103 30.2842C70.6103 25.1042 66.9403 23.0142 62.4303 25.6242L62.2803 25.7042C57.7803 28.4042 54.2803 34.8542 54.2803 40.0142L54.2403 85.6942C54.2566 85.8694 54.2263 86.0459 54.1525 86.2056C54.0788 86.3654 53.9642 86.5029 53.8203 86.6042L59.4603 83.3242C59.6042 83.2229 59.7188 83.0854 59.7925 82.9256C59.8663 82.7659 59.8966 82.5894 59.8803 82.4142L59.9703 36.5942C60.0062 35.7366 60.2352 34.8982 60.6404 34.1415C61.0456 33.3848 61.6164 32.7294 62.3103 32.2242L62.4403 32.1442C63.8103 31.3542 64.9303 31.9842 64.9403 33.5642V39.6742C64.9403 41.4742 66.2203 42.1942 67.7803 41.2942C68.6053 40.7588 69.2918 40.0357 69.7837 39.1841C70.2756 38.3324 70.5589 37.3764 70.6103 36.3942V30.2842Z" fill="#C1D3FE"/>
<path d="M53.9902 86.4642C54.0225 86.4282 54.0495 86.3878 54.0702 86.3442C54.0733 86.3176 54.0733 86.2907 54.0702 86.2642C54.0962 86.2098 54.1163 86.1528 54.1302 86.0942V86.0042C54.141 85.9011 54.141 85.7972 54.1302 85.6942L54.1902 40.0142C54.1902 34.8542 57.6702 28.4042 62.1902 25.7042L62.3402 25.6242C64.6102 24.3142 66.6602 24.1942 68.1402 25.0542L26.9102 1.05415C25.4302 0.184155 23.3802 0.314154 21.1102 1.62415L20.9502 1.70415C16.4602 4.39415 12.9502 10.8542 12.9502 16.0142V61.9042C12.9878 62.4172 13.153 62.9128 13.4306 63.3458C13.7083 63.7789 14.0897 64.1358 14.5402 64.3842L52.8102 86.5242C52.9713 86.642 53.1656 86.7055 53.3652 86.7055C53.5648 86.7055 53.7591 86.642 53.9202 86.5242C53.9202 86.5242 53.9702 86.5242 53.9902 86.4642Z" fill="#EDF2FB"/>
<path d="M22.3802 41.6242C22.5861 41.7574 22.7577 41.9373 22.881 42.1493C23.0044 42.3612 23.076 42.5993 23.0902 42.8442C23.0902 43.2942 22.7702 43.4842 22.3802 43.2542L17.3802 40.3942C17.1716 40.2605 16.9977 40.0793 16.8725 39.8656C16.7474 39.6518 16.6746 39.4114 16.6602 39.1642C16.6602 38.7142 16.9802 38.5342 17.3802 38.7642L22.3802 41.6242Z" fill="#011627"/>
<path d="M35.8604 49.4042C36.0605 49.5434 36.2258 49.7267 36.3437 49.94C36.4616 50.1533 36.5289 50.3908 36.5404 50.6342C36.5404 51.0842 36.2204 51.2642 35.8204 51.0342L25.9004 45.3042C25.6956 45.1698 25.5248 44.9896 25.4016 44.7779C25.2784 44.5662 25.2061 44.3287 25.1904 44.0842C25.1904 43.6342 25.5104 43.4542 25.9004 43.6742L35.8604 49.4042Z" fill="#011627"/>
<path d="M41.5405 42.9043C41.7475 43.0363 41.92 43.2159 42.0435 43.4282C42.167 43.6404 42.238 43.8791 42.2505 44.1243C42.2505 44.5743 41.9305 44.7643 41.5405 44.5343L17.4405 30.6143C17.2349 30.4783 17.0637 30.2964 16.9405 30.083C16.8173 29.8695 16.7454 29.6303 16.7305 29.3843C16.7305 28.9243 17.0505 28.7543 17.4505 28.9843L41.5405 42.9043Z" fill="#011627"/>
<path d="M50.0902 42.9242C50.2958 43.0601 50.467 43.242 50.5902 43.4555C50.7134 43.6689 50.7853 43.9081 50.8002 44.1542C50.8002 44.5942 50.4802 44.7842 50.0902 44.5542L17.4602 25.7142C17.2569 25.5844 17.0861 25.4096 16.9613 25.2032C16.8364 24.9969 16.7608 24.7645 16.7402 24.5242C16.7402 24.0742 17.0702 23.8942 17.4602 24.1142L50.0902 42.9242Z" fill="#011627"/>
<path d="M32.3297 42.4639C32.5353 42.5999 32.7065 42.7818 32.8297 42.9952C32.9529 43.2087 33.0248 43.4479 33.0397 43.6939C33.0397 44.1439 32.7097 44.3239 32.3197 44.1039L17.4297 35.5239C17.22 35.39 17.0459 35.2072 16.9222 34.9913C16.7986 34.7753 16.7291 34.5326 16.7197 34.2839C16.7197 33.8439 17.0397 33.6539 17.4297 33.8839L32.3297 42.4639Z" fill="#011627"/>
<path d="M41.1596 62.6343C41.8798 63.1055 42.4794 63.7391 42.9101 64.4842C43.3408 65.2293 43.5907 66.0651 43.6396 66.9243V72.6243C43.6586 72.9915 43.7647 73.349 43.949 73.6671C44.1333 73.9853 44.3905 74.2551 44.6996 74.4543C45.2896 74.8043 45.7596 74.5343 45.7696 73.8543V69.3843C45.7696 68.0143 46.7696 67.4643 47.8996 68.1343C48.5265 68.5364 49.0492 69.0813 49.4247 69.7245C49.8001 70.3677 50.0177 71.0908 50.0596 71.8343V75.0843C50.0596 75.5343 49.7396 75.7143 49.3496 75.4943C49.1243 75.3712 48.9326 75.1947 48.7914 74.9802C48.6502 74.7658 48.5637 74.52 48.5396 74.2643V71.0143C48.5286 70.766 48.4584 70.524 48.3349 70.3083C48.2114 70.0926 48.0382 69.9095 47.8296 69.7743C47.4296 69.5443 47.1096 69.7743 47.1096 70.1843V74.6543C47.1096 76.2443 46.0096 76.8743 44.6396 76.1043C43.914 75.6357 43.31 75.0015 42.8771 74.254C42.4443 73.5065 42.1949 72.6669 42.1496 71.8043V66.1043C42.1293 65.7386 42.0238 65.3826 41.8415 65.0649C41.6592 64.7471 41.4051 64.4764 41.0996 64.2743C40.5096 63.9343 40.0296 64.2043 40.0296 64.8743V71.1143C40.0296 72.9143 38.7496 73.6343 37.1796 72.7343C36.3557 72.1978 35.6701 71.4744 35.1783 70.6229C34.6866 69.7715 34.4027 68.8161 34.3496 67.8343V66.8943C34.3496 66.4443 34.6796 66.2643 35.0696 66.4843C35.2731 66.6193 35.4424 66.7998 35.5639 67.0116C35.6854 67.2233 35.7558 67.4606 35.7696 67.7043V68.6543C35.7955 69.146 35.9377 69.6244 36.1846 70.0503C36.4314 70.4763 36.7759 70.8375 37.1896 71.1043C37.9696 71.5543 38.6096 71.1943 38.6096 70.2943V64.0543C38.6696 62.5243 39.7896 61.8443 41.1596 62.6343Z" fill="#011627"/>
<path d="M44.3901 49.4339C44.5965 49.5666 44.7686 49.7463 44.892 49.9584C45.0154 50.1705 45.0868 50.4089 45.1001 50.6539C45.1001 51.1039 44.7701 51.2939 44.3801 51.0639L36.5401 46.5239C36.3332 46.387 36.1612 46.2035 36.0379 45.9882C35.9147 45.7729 35.8435 45.5317 35.8301 45.2839C35.8301 44.8439 36.1501 44.6539 36.5501 44.8839L44.3901 49.4339Z" fill="#011627"/>
<path d="M28.0997 61.9941C28.0997 62.3941 28.1797 62.7941 27.9697 62.9941C27.7597 63.1941 27.3297 63.0641 26.9697 62.9141C26.8108 62.8303 26.6379 62.7761 26.4596 62.7541C26.3796 62.7541 26.2796 62.9541 26.1996 63.1041L26.1396 63.2041L26.9596 64.6141C27.3322 65.3013 27.8766 65.8802 28.5396 66.2941C28.7695 66.4612 29.0393 66.5648 29.3219 66.5947C29.6045 66.6245 29.89 66.5795 30.1497 66.4641C30.3597 66.3441 30.3597 65.9641 30.1497 65.6141L28.0597 61.9941" fill="#FF8D8D"/>
<path d="M28.2102 61.0239C28.1402 61.061 28.0814 61.1163 28.0402 61.1839C28.008 61.3893 28.008 61.5985 28.0402 61.8039V61.9939L30.1302 65.6139C30.3302 65.9639 30.3302 66.3439 30.1302 66.4639C29.8731 66.5756 29.5915 66.6186 29.3128 66.5888C29.0341 66.559 28.7679 66.4574 28.5402 66.2939C27.8685 65.8799 27.3169 65.2973 26.9402 64.6039L26.1202 63.1939C26.0414 63.3864 25.8908 63.5406 25.7002 63.6239L26.4302 64.8839C26.9312 65.7955 27.6577 66.5633 28.5402 67.1139C28.8436 67.3329 29.1996 67.4677 29.5719 67.5046C29.9443 67.5414 30.3197 67.4791 30.6602 67.3239C31.1402 67.0539 31.1402 66.1539 30.6602 65.3239L28.1802 61.0239" fill="#011627"/>
<path d="M19.8203 57.2144L17.7203 58.4144C17.5203 58.5344 17.5203 58.9144 17.7203 59.2644C18.1032 59.9591 18.6574 60.5443 19.3303 60.9644C19.5619 61.1279 19.832 61.2287 20.1142 61.2567C20.3964 61.2848 20.681 61.2392 20.9403 61.1244L21.7603 60.6544L21.7003 60.5244C21.6367 60.2992 21.5495 60.0813 21.4403 59.8744C21.2951 59.7107 21.1266 59.5692 20.9403 59.4544C20.5237 59.1858 20.1801 58.8182 19.9403 58.3844C19.782 58.0263 19.74 57.6276 19.8203 57.2444" fill="#FF8D8D"/>
<path d="M19.7198 56.1242L17.2298 57.5242C16.7398 57.8042 16.7398 58.7042 17.2298 59.5242C17.7292 60.4343 18.4563 61.1992 19.3398 61.7442C19.6412 61.9633 19.9956 62.0982 20.3664 62.1351C20.7372 62.172 21.1111 62.1096 21.4498 61.9542L22.1898 61.5442C22.0076 61.2587 21.8662 60.949 21.7698 60.6242L20.9498 61.0942C20.6905 61.209 20.4059 61.2546 20.1237 61.2266C19.8415 61.1986 19.5714 61.0978 19.3398 60.9342C18.6669 60.5142 18.1127 59.929 17.7298 59.2342C17.5298 58.8842 17.5298 58.5042 17.7298 58.3842L19.8298 57.1842V57.0242C19.8631 56.8357 19.8631 56.6428 19.8298 56.4542C19.7846 56.3291 19.7277 56.2086 19.6598 56.0942" fill="#011627"/>
<path d="M23.9597 59.9543C23.2869 59.519 22.7287 58.9285 22.3319 58.2323C21.9351 57.5362 21.7114 56.7549 21.6797 55.9543C21.6797 54.4943 22.6797 53.9543 23.9797 54.6343C24.6497 55.0733 25.2065 55.6645 25.6044 56.3596C26.0024 57.0548 26.2304 57.8342 26.2697 58.6343C26.2697 60.0843 25.2697 60.6343 23.9597 59.9443V59.9543ZM25.2697 53.3943C25.1218 53.3446 24.9648 53.3275 24.8097 53.3443C24.5241 53.3835 24.2335 53.331 23.9797 53.1943C23.6627 52.9729 23.3826 52.7029 23.1497 52.3943C23.0136 52.2155 22.8595 52.0513 22.6897 51.9043C22.5897 51.9043 22.4697 52.1043 22.3797 52.2543C22.2897 52.4043 22.1297 52.7243 21.8997 52.7843C21.6105 52.8019 21.3224 52.7359 21.0697 52.5943C20.8897 52.5143 20.6097 52.4043 20.5497 52.4543C20.5124 52.6593 20.5124 52.8693 20.5497 53.0743C20.6176 53.4042 20.6176 53.7444 20.5497 54.0743C20.4455 54.2959 20.2589 54.4681 20.0297 54.5543C19.8797 54.6243 19.6797 54.7243 19.6797 54.8443C19.76 55.0972 19.878 55.3366 20.0297 55.5543C20.2483 55.8857 20.4199 56.2458 20.5397 56.6243C20.6134 56.9536 20.6134 57.295 20.5397 57.6243C20.4914 57.8214 20.4914 58.0272 20.5397 58.2243C20.6881 58.4037 20.8635 58.5589 21.0597 58.6843C21.3726 58.8912 21.6496 59.1479 21.8797 59.4443C22.0853 59.7797 22.2403 60.1436 22.3397 60.5243C22.4056 60.774 22.5066 61.013 22.6397 61.2343C22.7941 61.2716 22.9552 61.2716 23.1097 61.2343C23.3941 61.1966 23.6833 61.2454 23.9397 61.3743C24.2542 61.6025 24.5338 61.8754 24.7697 62.1843C24.8971 62.367 25.0484 62.5318 25.2197 62.6743C25.3197 62.6743 25.4297 62.4743 25.5197 62.3243C25.6097 62.1743 25.7797 61.8643 26.0097 61.8043C26.2945 61.7856 26.5789 61.848 26.8297 61.9843C27.0197 62.0743 27.2997 62.1843 27.3497 62.1343C27.3997 62.0843 27.3497 61.7343 27.3497 61.5043C27.2747 61.1752 27.2747 60.8334 27.3497 60.5043C27.3957 60.3943 27.4638 60.2949 27.5498 60.2124C27.6358 60.1298 27.7379 60.0658 27.8497 60.0243C27.9997 59.9443 28.2097 59.8443 28.2097 59.7243C28.1265 59.4757 28.0087 59.24 27.8597 59.0243C27.6399 58.6972 27.4681 58.3402 27.3497 57.9643C27.2773 57.6349 27.2773 57.2937 27.3497 56.9643C27.388 56.7661 27.388 56.5625 27.3497 56.3643C27.2011 56.1851 27.0257 56.0299 26.8297 55.9043C26.5123 55.7031 26.2344 55.4455 26.0097 55.1443C25.7971 54.81 25.6353 54.4461 25.5297 54.0643C25.4593 53.8162 25.3586 53.5777 25.2297 53.3543" fill="#F7DA61"/>
<path d="M23.98 53.2043C24.2338 53.341 24.5244 53.3935 24.81 53.3543C24.9651 53.3376 25.1221 53.3546 25.27 53.4043C25.3989 53.6277 25.4996 53.8662 25.57 54.1143C25.6756 54.4961 25.8374 54.8601 26.05 55.1943C26.2747 55.4956 26.5526 55.7531 26.87 55.9543C27.066 56.08 27.2414 56.2351 27.39 56.4143C27.4283 56.6125 27.4283 56.8162 27.39 57.0143C27.3176 57.3437 27.3176 57.6849 27.39 58.0143C27.5084 58.3902 27.6802 58.7472 27.9 59.0743C28.049 59.2901 28.1668 59.5257 28.25 59.7743C28.25 59.8943 28.04 59.9943 27.89 60.0743C27.7782 60.1158 27.6761 60.1798 27.5901 60.2624C27.5041 60.345 27.436 60.4443 27.39 60.5543C27.315 60.8834 27.315 61.2252 27.39 61.5543C27.39 61.7843 27.47 62.1243 27.39 62.1843C27.31 62.2443 27.06 62.1243 26.87 62.0343C26.6192 61.898 26.3349 61.8356 26.05 61.8543C25.82 61.9143 25.68 62.1443 25.56 62.3743C25.44 62.6043 25.36 62.7443 25.26 62.7243C25.0888 62.5819 24.9374 62.417 24.81 62.2343C24.5742 61.9254 24.2945 61.6526 23.98 61.4243C23.7236 61.2954 23.4344 61.2467 23.15 61.2843C22.9956 61.3217 22.8344 61.3217 22.68 61.2843C22.5469 61.063 22.4459 60.824 22.38 60.5743C22.2744 60.1925 22.1126 59.8286 21.9 59.4943C21.6699 59.198 21.3929 58.9412 21.08 58.7343C20.8838 58.6089 20.7084 58.4537 20.56 58.2743C20.5117 58.0772 20.5117 57.8714 20.56 57.6743C20.6337 57.3451 20.6337 57.0036 20.56 56.6743C20.4504 56.2686 20.282 55.8812 20.06 55.5243C19.9083 55.3066 19.7903 55.0672 19.71 54.8143C19.71 54.6943 19.91 54.5943 20.06 54.5243C20.2892 54.4382 20.4758 54.266 20.58 54.0443C20.6479 53.7144 20.6479 53.3742 20.58 53.0443C20.5427 52.8393 20.5427 52.6293 20.58 52.4243C20.64 52.4243 20.92 52.4843 21.1 52.5643C21.3527 52.706 21.6408 52.7719 21.93 52.7543C22.16 52.6943 22.29 52.4543 22.41 52.2243C22.53 51.9943 22.62 51.8543 22.72 51.8743C22.8898 52.0214 23.044 52.1856 23.18 52.3643C23.4129 52.6729 23.693 52.9429 24.01 53.1643L23.98 53.2043ZM25.31 52.5543C25.062 52.4218 24.779 52.3694 24.5 52.4043C24.3351 52.4288 24.1666 52.4116 24.01 52.3543C23.8252 52.2025 23.6605 52.0278 23.52 51.8343C23.2999 51.5333 23.0292 51.2727 22.72 51.0643C22.6458 51.0184 22.5648 50.9847 22.48 50.9643C22.1 50.8843 21.92 51.2143 21.76 51.4943C21.6 51.7743 21.58 51.8143 21.49 51.8443C21.3183 51.8276 21.1517 51.7766 21 51.6943C20.63 51.5343 20.23 51.3643 20 51.5943C19.77 51.8243 19.84 52.3343 19.9 52.7843C19.9322 52.9897 19.9322 53.1989 19.9 53.4043C19.9 53.4943 19.71 53.5743 19.57 53.6443C19.43 53.7143 19 53.9343 19 54.4143C19.0545 54.9355 19.2403 55.4344 19.54 55.8643L19.69 56.1243C19.7579 56.2387 19.8148 56.3592 19.86 56.4843C19.8933 56.6729 19.8933 56.8658 19.86 57.0543V57.2143C19.7797 57.5975 19.8216 57.9963 19.98 58.3543C20.2198 58.7881 20.5634 59.1557 20.98 59.4243C21.1663 59.5392 21.3347 59.6807 21.48 59.8443C21.5892 60.0513 21.6763 60.2691 21.74 60.4943L21.8 60.6543C21.8964 60.9791 22.0378 61.2888 22.22 61.5743C22.2915 61.6778 22.3717 61.7748 22.46 61.8643C22.5311 61.9282 22.6081 61.9851 22.69 62.0343C22.938 62.1669 23.221 62.2193 23.5 62.1843C23.6608 62.1437 23.8292 62.1437 23.99 62.1843C24.1784 62.3354 24.3465 62.5102 24.49 62.7043C24.7099 63.0083 24.9806 63.2721 25.29 63.4843C25.3662 63.5261 25.4467 63.5596 25.53 63.5843C25.6087 63.6046 25.6913 63.6046 25.77 63.5843C25.9606 63.501 26.1112 63.3468 26.19 63.1543L26.25 63.0543C26.33 62.9043 26.43 62.7343 26.51 62.7043C26.6883 62.7263 26.8611 62.7805 27.02 62.8643C27.37 63.0143 27.78 63.1843 28.02 62.9443C28.26 62.7043 28.2 62.3543 28.15 61.9443V61.7543C28.1178 61.5489 28.1178 61.3397 28.15 61.1343C28.1912 61.0667 28.25 61.0114 28.32 60.9743L28.47 60.8943C28.6348 60.8456 28.7798 60.7456 28.8841 60.609C28.9883 60.4724 29.0465 60.3062 29.05 60.1343C28.9859 59.6197 28.7895 59.1304 28.48 58.7143C28.3501 58.5205 28.2428 58.3125 28.16 58.0943C28.122 57.9062 28.122 57.7124 28.16 57.5243C28.2728 57.092 28.2376 56.6343 28.06 56.2243C27.8281 55.7875 27.4826 55.4213 27.06 55.1643C26.8722 55.0435 26.7008 54.899 26.55 54.7343C26.445 54.5254 26.3581 54.308 26.29 54.0843C26.1488 53.5938 25.8915 53.1445 25.54 52.7743C25.4702 52.7019 25.3891 52.6411 25.3 52.5943" fill="#011627"/>
<path d="M23.9699 55.5241C23.0999 55.0141 22.3899 55.4241 22.3799 56.4341C22.4104 56.9812 22.5694 57.5135 22.8439 57.9878C23.1184 58.4621 23.5007 58.865 23.9599 59.1641C24.8399 59.6741 25.5599 59.2741 25.5599 58.2641C25.529 57.7145 25.3689 57.18 25.0926 56.7039C24.8164 56.2278 24.4317 55.8236 23.9699 55.5241Z" fill="#FFEC8D"/>
<path d="M23.9596 59.1344C23.5005 58.8353 23.1181 58.4323 22.8436 57.9581C22.5691 57.4838 22.4102 56.9515 22.3797 56.4044C22.3797 55.4044 23.0997 54.9844 23.9697 55.4944C24.4278 55.7961 24.8085 56.2013 25.0812 56.6772C25.354 57.1532 25.511 57.6866 25.5396 58.2344C25.5396 59.2344 24.8197 59.6444 23.9397 59.1344H23.9596ZM23.9397 54.6744C22.6697 53.9444 21.6396 54.5344 21.6396 55.9944C21.6714 56.795 21.8951 57.5763 22.2918 58.2724C22.6886 58.9685 23.2469 59.5591 23.9197 59.9944C25.1797 60.7244 26.2196 60.1344 26.2296 58.6844C26.1903 57.8843 25.9624 57.1049 25.5644 56.4097C25.1664 55.7145 24.6097 55.1233 23.9397 54.6844" fill="#011627"/>
<path d="M7.59004 18.524V16.994C7.58873 16.5361 7.49709 16.083 7.32037 15.6607C7.14364 15.2383 6.88531 14.8549 6.56017 14.5326C6.23503 14.2102 5.84948 13.9552 5.42561 13.7821C5.00174 13.6091 4.54788 13.5213 4.09004 13.524C3.62838 13.516 3.16973 13.5997 2.74067 13.7703C2.31161 13.9409 1.92065 14.1949 1.59046 14.5177C1.26027 14.8404 0.997409 15.2255 0.817099 15.6505C0.636788 16.0756 0.542617 16.5322 0.540039 16.994V18.524C0.540039 19.324 1.01004 20.094 2.40004 20.524C3.4772 20.8638 4.63288 20.8638 5.71004 20.524C7.13004 20.074 7.59004 19.254 7.59004 18.524Z" fill="#F4914E"/>
<path d="M8.09 16.9941C8.09 15.9333 7.66857 14.9159 6.91843 14.1657C6.16828 13.4156 5.15087 12.9941 4.09 12.9941C3.02913 12.9941 2.01172 13.4156 1.26157 14.1657C0.511427 14.9159 0.0900002 15.9333 0.0900002 16.9941V18.5241C0.0900002 18.5741 0 51.3341 0 51.3341C0.0150012 51.8071 0.207832 52.2571 0.54 52.5941L1.59 57.8241C1.70476 58.3893 2.01137 58.8974 2.45787 59.2623C2.90438 59.6273 3.46332 59.8266 4.04 59.8266C4.61668 59.8266 5.17562 59.6273 5.62213 59.2623C6.06863 58.8974 6.37524 58.3893 6.49 57.8241L7.54 52.5241C7.80755 52.2026 7.96213 51.8021 7.98 51.3841L8.09 18.5241V16.9941ZM1.09 16.9941C1.09 16.1985 1.40607 15.4354 1.96868 14.8728C2.53129 14.3102 3.29435 13.9941 4.09 13.9941C4.88565 13.9941 5.64871 14.3102 6.21132 14.8728C6.77393 15.4354 7.09 16.1985 7.09 16.9941V18.5241C7.09 19.1941 6.56 19.7341 5.6 20.0441C4.6229 20.3468 3.5771 20.3468 2.6 20.0441C1.08 19.5241 1.08 18.7741 1.08 18.5241L1.09 16.9941ZM5.54 57.6241C5.47115 57.9632 5.28718 58.2681 5.01928 58.4871C4.75137 58.706 4.41601 58.8256 4.07 58.8256C3.72399 58.8256 3.38863 58.706 3.12072 58.4871C2.85282 58.2681 2.66885 57.9632 2.6 57.6241L1.76 53.4041C2.49244 53.7141 3.27967 53.8738 4.075 53.8738C4.87033 53.8738 5.65756 53.7141 6.39 53.4041L5.54 57.6241ZM6.26 52.3241C5.56861 52.6677 4.80705 52.8465 4.035 52.8465C3.26295 52.8465 2.50139 52.6677 1.81 52.3241C1.60355 52.2393 1.42242 52.1027 1.28406 51.9276C1.14569 51.7524 1.05475 51.5446 1.02 51.3241L1.11 20.4041C1.47641 20.6713 1.88557 20.8742 2.32 21.0041C2.90649 21.1839 3.51658 21.2749 4.13 21.2741C4.74014 21.2748 5.34691 21.1838 5.93 21.0041C6.3523 20.8764 6.75088 20.6805 7.11 20.4241L7.03 51.3441C6.98937 51.5614 6.89482 51.765 6.75505 51.9362C6.61527 52.1074 6.43473 52.2408 6.23 52.3241H6.26Z" fill="#011627"/>
<path d="M71.11 30.2841C71.11 27.6141 70.18 25.6141 68.5 24.6241L27.26 0.624135C25.56 -0.375865 23.26 -0.165865 20.96 1.19413L20.8 1.28413C16.24 4.04414 12.54 10.6541 12.54 16.0541V61.9341C12.5669 62.5143 12.7326 63.0796 13.0232 63.5825C13.3138 64.0853 13.7208 64.5112 14.21 64.8241L52.54 86.9341C52.8112 87.1001 53.1221 87.1899 53.44 87.1941C53.6499 87.17 53.8553 87.1161 54.05 87.0341L59.69 83.7641C59.9091 83.617 60.0854 83.4148 60.2013 83.1777C60.3172 82.9407 60.3685 82.6773 60.35 82.4141L60.45 38.9841L65.54 41.9241C65.9376 42.12 66.3808 42.2048 66.8226 42.1696C67.2644 42.1344 67.6885 41.9805 68.05 41.7241C68.9527 41.1472 69.7035 40.362 70.2395 39.4344C70.7755 38.5069 71.0809 37.4643 71.13 36.3941L71.11 30.2841ZM14.76 63.9541C14.4242 63.7334 14.1439 63.438 13.9409 63.0911C13.738 62.7442 13.6179 62.3551 13.59 61.9541V16.0641C13.59 10.9741 17.04 4.74413 21.32 2.18413L21.47 2.10413C23.47 0.924135 25.39 0.724135 26.77 1.53413L65.54 24.0341C64.3683 24.1811 63.2405 24.5729 62.23 25.1841L62.07 25.2841C60.7005 26.1309 59.4806 27.1987 58.46 28.4441L58.37 28.5741L58.46 28.4641C55.6919 31.6854 54.083 35.7413 53.89 39.9841L53.74 85.6941C53.7532 85.7892 53.7417 85.886 53.7067 85.9753C53.6716 86.0646 53.6143 86.1434 53.54 86.2041C53.3723 86.1973 53.2083 86.1529 53.06 86.0741L14.76 63.9541ZM64.54 40.1741L60.54 37.8241V36.5941C60.5649 35.811 60.7679 35.0437 61.1335 34.3507C61.4991 33.6576 62.0177 33.0569 62.65 32.5941L62.76 32.5241C62.939 32.3885 63.1501 32.3016 63.3726 32.2718C63.5952 32.242 63.8217 32.2704 64.03 32.3541C64.1911 32.499 64.3131 32.6822 64.3848 32.8867C64.4565 33.0911 64.4755 33.3104 64.44 33.5241V39.6341C64.4296 39.8006 64.4296 39.9676 64.44 40.1341L64.54 40.1741ZM67.59 40.8641C67.376 41.0229 67.1251 41.1245 66.8609 41.1595C66.5967 41.1945 66.328 41.1617 66.08 41.0641C65.8717 40.9021 65.7088 40.689 65.6072 40.4454C65.5055 40.2019 65.4686 39.9362 65.5 39.6741V33.5641C65.5263 33.172 65.4474 32.7799 65.2716 32.4283C65.0959 32.0768 64.8295 31.7785 64.5 31.5641C64.1407 31.3864 63.7399 31.3092 63.3402 31.3409C62.9405 31.3726 62.5569 31.5119 62.23 31.7441L62.08 31.8241C61.3168 32.378 60.689 33.0977 60.2439 33.929C59.7988 34.7604 59.5479 35.6819 59.51 36.6241L59.41 82.4441C59.4221 82.5311 59.414 82.6196 59.3862 82.7029C59.3585 82.7861 59.3119 82.8618 59.25 82.9241L54.74 85.5241L54.8 40.0441C54.8 34.9541 58.25 28.7341 62.53 26.1641L62.68 26.0841C63.706 25.4419 64.8809 25.0767 66.09 25.0241C66.7482 25.014 67.3972 25.1797 67.97 25.5041C69.35 26.2941 70.11 28.0041 70.11 30.3141V36.4241C70.0523 37.3121 69.7904 38.1748 69.3446 38.9449C68.8989 39.715 68.2813 40.3718 67.54 40.8641H67.59Z" fill="#011627"/>
</g>
<defs>
<clipPath id="clip0">
<rect width="71.13" height="87.1941" fill="white"/>
</clipPath>
</defs>
</svg>
