<svg width="107" height="149" viewBox="0 0 107 149" fill="none" xmlns="http://www.w3.org/2000/svg">
<path d="M11.0517 14.0874L13.565 16.046C48.9232 43.6005 70.6974 85.0516 73.3206 129.802V129.802" stroke="#3167BC" stroke-width="2" stroke-linejoin="round" stroke-dasharray="15 7"/>
<path d="M73.1144 141.826L73.6394 142.35L73.9283 141.667C75.2174 138.617 76.9836 135.724 79.0765 133.191C79.0811 133.188 79.0903 133.181 79.1055 133.172C79.1318 133.157 79.1667 133.14 79.21 133.122C77.0577 135.884 75.2621 139.047 74.0399 142.315C74.0348 142.324 74.0304 142.332 74.0264 142.34C73.9362 142.418 73.7382 142.529 73.516 142.597C73.4034 142.631 73.313 142.646 73.2546 142.646C73.2536 142.646 73.2526 142.646 73.2516 142.646C70.5519 140.17 68.176 137.155 66.4028 133.961C66.4629 133.926 66.5392 133.888 66.628 133.854C66.7849 133.794 66.9323 133.763 67.0316 133.762C68.649 136.713 70.7443 139.459 73.1144 141.826ZM73.2178 142.644C73.2179 142.644 73.2196 142.644 73.2226 142.645C73.2193 142.644 73.2178 142.644 73.2178 142.644ZM66.2748 134.056C66.2748 134.056 66.2752 134.056 66.2759 134.055C66.2752 134.056 66.2748 134.056 66.2748 134.056ZM67.0963 133.767C67.0959 133.767 67.092 133.766 67.0854 133.764C67.0934 133.765 67.0966 133.766 67.0963 133.767Z" fill="#8CC5F9" stroke="#3167BC"/>
<path d="M78.6887 127.36C78.7149 127.344 78.7499 127.327 78.7931 127.309C76.6898 130.009 74.927 133.09 73.7072 136.28L73.5128 136.294L73.5323 136.567C73.5087 136.584 73.4806 136.602 73.4481 136.621C73.3547 136.676 73.241 136.726 73.1267 136.763C73.0094 136.8 72.9129 136.816 72.8504 136.816C72.8482 136.816 72.8461 136.816 72.8441 136.816C70.1475 134.345 67.7734 131.336 65.9994 128.148C66.0582 128.117 66.1302 128.084 66.212 128.054C66.3699 127.998 66.5165 127.971 66.6142 127.972C66.6143 127.972 66.6143 127.972 66.6144 127.972C68.2293 130.896 70.3283 133.673 72.7295 136.015L73.2539 136.527L73.5392 135.852C74.8279 132.803 76.5939 129.91 78.6599 127.378C78.6645 127.375 78.6737 127.368 78.6887 127.36ZM73.5741 136.764C73.5744 136.767 73.5745 136.769 73.5744 136.769L73.5741 136.764ZM74.0125 136.258C74.0157 136.258 74.0177 136.258 74.0178 136.258L74.0125 136.258ZM72.8114 136.813C72.8115 136.813 72.8135 136.813 72.817 136.814C72.8131 136.814 72.8113 136.813 72.8114 136.813ZM66.6746 127.977C66.6743 127.978 66.6706 127.977 66.6646 127.975C66.6719 127.976 66.6749 127.977 66.6746 127.977Z" fill="#8CC5F9" stroke="#3167BC"/>
</svg>
