<?xml version="1.0" standalone="no"?>
<!DOCTYPE svg PUBLIC "-//W3C//DTD SVG 20010904//EN"
 "http://www.w3.org/TR/2001/REC-SVG-20010904/DTD/svg10.dtd">
<svg version="1.0" xmlns="http://www.w3.org/2000/svg"
 width="622.000000pt" height="622.000000pt" viewBox="0 0 622.000000 622.000000"
 preserveAspectRatio="xMidYMid meet">
<metadata>
Created by potrace 1.11, written by Peter Selinger 2001-2013
</metadata>
<g transform="translate(0.000000,622.000000) scale(0.100000,-0.100000)"
fill="#000000" stroke="none">
<path d="M3461 4458 c-58 -16 -120 -62 -152 -114 -20 -34 -34 -73 -94 -269
-20 -66 -39 -127 -42 -135 -3 -8 -7 -19 -8 -25 -2 -5 -28 -91 -60 -190 -31
-99 -67 -214 -80 -255 -67 -218 -177 -570 -190 -605 -7 -22 -50 -159 -95 -305
-45 -146 -89 -273 -98 -282 -8 -10 -27 -18 -42 -18 -15 0 -34 8 -42 18 -9 9
-104 193 -211 407 -473 946 -547 1089 -578 1121 -101 104 -296 98 -388 -12
-21 -25 -96 -184 -212 -449 -99 -226 -185 -423 -193 -440 -8 -16 -58 -131
-111 -255 -54 -124 -101 -229 -105 -235 -4 -5 -11 -21 -15 -35 -4 -13 -22 -56
-40 -95 -17 -38 -42 -96 -55 -127 -18 -44 -29 -58 -44 -59 -12 0 -125 -1 -252
-2 -228 -2 -231 -2 -267 -27 -104 -70 -100 -242 8 -306 27 -17 59 -18 345 -19
188 -1 329 3 350 9 32 10 120 87 120 106 0 7 132 302 274 612 60 132 80 177
116 258 21 47 53 119 72 160 19 41 61 134 93 205 32 72 67 140 78 153 23 25
81 30 109 8 13 -10 557 -1093 663 -1321 94 -202 346 -251 494 -96 53 55 72 98
135 306 30 99 59 194 65 210 5 17 26 82 45 145 19 63 74 241 122 395 47 154
99 323 114 375 110 368 170 546 190 562 26 21 72 23 100 6 15 -10 52 -111 146
-398 69 -212 132 -403 139 -425 37 -109 187 -571 190 -584 2 -9 10 -34 18 -56
9 -22 43 -125 77 -230 35 -108 74 -210 91 -237 143 -222 441 -213 574 16 21
36 68 168 80 222 11 53 97 319 106 331 15 17 54 17 69 -1 6 -8 17 -37 25 -63
39 -142 146 -486 160 -516 24 -51 81 -107 134 -130 43 -19 67 -21 356 -21 171
-1 326 3 345 7 132 32 165 229 52 315 l-35 27 -266 2 c-146 1 -271 2 -276 2
-13 1 -9 -9 -125 351 -51 157 -96 294 -100 305 -5 11 -39 112 -75 225 -37 113
-75 219 -85 235 -64 104 -251 97 -309 -12 -6 -13 -70 -218 -142 -455 -71 -238
-134 -445 -140 -460 -6 -15 -23 -31 -39 -36 -48 -17 -65 5 -109 141 -22 67
-97 289 -166 492 -69 204 -150 442 -180 530 -198 586 -304 895 -318 920 -51
98 -199 155 -316 123z"/>
</g>
</svg>
