<svg width="100" height="100" viewBox="0 0 100 100" fill="none" xmlns="http://www.w3.org/2000/svg">
<path d="M82.7299 31.3099L40.1699 6.72991C39.9971 6.63123 39.807 6.56672 39.6099 6.53991C39.4531 6.52518 39.2957 6.56016 39.1599 6.63991L12.3799 22.1999C12.5406 22.1268 12.7177 22.0976 12.8934 22.1152C13.069 22.1327 13.2369 22.1965 13.3799 22.2999L55.9999 46.8699C56.4125 47.1394 56.7554 47.5029 57.0005 47.9305C57.2456 48.3581 57.3859 48.8377 57.4099 49.3299L57.2999 88.4499C57.3172 88.6242 57.2885 88.8 57.2165 88.9597C57.1446 89.1194 57.0319 89.2574 56.8899 89.3599L83.6199 73.7999C83.7619 73.6974 83.8746 73.5594 83.9465 73.3997C84.0185 73.24 84.0472 73.0642 84.0299 72.8899L84.1399 33.7599C84.1183 33.2684 83.979 32.7893 83.7336 32.363C83.4883 31.9366 83.144 31.5754 82.7299 31.3099Z" fill="#C1D3FE"/>
<path d="M24.0002 70.5299C24.2058 70.6659 24.377 70.8478 24.5002 71.0613C24.6234 71.2747 24.6953 71.5139 24.7102 71.7599V74.2099C24.7102 74.6499 24.3902 74.8399 23.9902 74.6099L16.1902 70.0999C15.9839 69.968 15.8125 69.7882 15.6906 69.5758C15.5687 69.3633 15.5 69.1246 15.4902 68.8799V66.4399C15.4902 65.9799 15.8102 65.7999 16.2002 66.0199L24.0002 70.5299Z" fill="#EDF2FB"/>
<path d="M26.8104 68.8899L19.0004 64.3899C18.9255 64.3428 18.8389 64.3179 18.7504 64.3179C18.662 64.3179 18.5753 64.3428 18.5004 64.3899L15.6904 65.9999C15.7668 65.957 15.8529 65.9344 15.9404 65.9344C16.028 65.9344 16.1141 65.957 16.1904 65.9999L24.0004 70.5299C24.206 70.6658 24.3772 70.8477 24.5004 71.0612C24.6236 71.2747 24.6955 71.5139 24.7104 71.7599V74.2099C24.7187 74.2968 24.7036 74.3843 24.6667 74.4634C24.6297 74.5426 24.5723 74.6104 24.5004 74.6599L27.3104 72.9999C27.3831 72.9511 27.4411 72.8835 27.4781 72.8041C27.5152 72.7248 27.5298 72.6369 27.5204 72.5499V70.1199C27.5071 69.8735 27.4358 69.6337 27.3125 69.42C27.1891 69.2063 27.0171 69.0247 26.8104 68.8899Z" fill="#C1D3FE"/>
<path d="M27.0596 68.46L19.2597 64C19.1121 63.9045 18.9419 63.8496 18.7664 63.8408C18.5908 63.8321 18.416 63.8697 18.2597 63.95L15.4396 65.59C15.2915 65.6848 15.1709 65.817 15.0902 65.9733C15.0094 66.1295 14.9713 66.3043 14.9796 66.48V68.93C14.9867 69.264 15.0774 69.591 15.2434 69.8809C15.4093 70.1709 15.6453 70.4147 15.9297 70.59L23.7296 75.09C23.9048 75.1965 24.1048 75.2551 24.3096 75.26C24.4613 75.2606 24.6102 75.219 24.7396 75.14L27.5596 73.5C27.7063 73.4061 27.8259 73.2755 27.9066 73.1211C27.9873 72.9668 28.0262 72.7941 28.0197 72.62V70.13C28.0078 69.7945 27.9142 69.467 27.7469 69.1759C27.5796 68.8848 27.3436 68.6391 27.0596 68.46ZM16.4297 69.67C16.3007 69.58 16.1935 69.4624 16.1157 69.3257C16.0378 69.1891 15.9914 69.0368 15.9796 68.88V66.48L23.7497 71C23.8788 71.093 23.9866 71.2125 24.0659 71.3504C24.1452 71.4884 24.1942 71.6416 24.2096 71.8V74.19L16.4297 69.67ZM25.1997 73.67V71.76C25.1818 71.4212 25.0814 71.0919 24.9071 70.8008C24.7328 70.5097 24.4899 70.2657 24.1997 70.09L16.8597 65.86L18.7096 64.86L26.5097 69.36C26.6415 69.4511 26.7519 69.5699 26.8331 69.708C26.9143 69.8462 26.9643 70.0005 26.9796 70.16V72.63L25.1997 73.67Z" fill="#011627"/>
<path d="M50.0002 84.9999C50.2071 85.1369 50.3791 85.3204 50.5024 85.5357C50.6257 85.751 50.6968 85.9922 50.7102 86.2399V88.6999C50.7102 89.1499 50.3902 89.3299 49.9902 89.0999L42.1902 84.5999C41.9856 84.4662 41.8155 84.2859 41.6939 84.0739C41.5722 83.8619 41.5024 83.6241 41.4902 83.3799V80.9299C41.4902 80.4799 41.8102 80.2999 42.2002 80.5199L50.0002 84.9999Z" fill="#EDF2FB"/>
<path d="M52.8097 83.3899L44.9997 78.8799C44.9234 78.837 44.8373 78.8145 44.7497 78.8145C44.6621 78.8145 44.576 78.837 44.4997 78.8799L41.6797 80.5199C41.756 80.477 41.8421 80.4545 41.9297 80.4545C42.0173 80.4545 42.1034 80.477 42.1797 80.5199L49.9997 84.9999C50.2066 85.1369 50.3785 85.3204 50.5018 85.5357C50.6251 85.751 50.6963 85.9922 50.7097 86.2399V88.6999C50.719 88.787 50.7044 88.8749 50.6674 88.9542C50.6304 89.0335 50.5724 89.1012 50.4997 89.1499L53.3197 87.5199C53.3924 87.4688 53.4502 87.3993 53.4871 87.3184C53.524 87.2376 53.5387 87.1483 53.5297 87.0599V84.6199C53.5168 84.3723 53.4447 84.1313 53.3194 83.9173C53.1942 83.7032 53.0193 83.5224 52.8097 83.3899Z" fill="#C1D3FE"/>
<path d="M53.0597 82.9999L45.2596 78.4999C45.1076 78.4122 44.9352 78.366 44.7596 78.366C44.5841 78.366 44.4117 78.4122 44.2596 78.4999L41.4396 79.9999C41.2915 80.0947 41.1709 80.2269 41.0902 80.3832C41.0094 80.5394 40.9713 80.7142 40.9796 80.8899V83.3299C40.992 83.6687 41.0902 83.9988 41.2652 84.2891C41.4401 84.5795 41.6859 84.8207 41.9796 84.9899L49.7796 89.4999C49.9555 89.6034 50.1556 89.6585 50.3597 89.6599C50.5098 89.6589 50.6574 89.6212 50.7897 89.5499L53.5597 87.9999C53.7063 87.906 53.8259 87.7754 53.9066 87.6211C53.9873 87.4667 54.0262 87.294 54.0197 87.1199V84.6199C53.9975 84.2936 53.8992 83.9771 53.7324 83.6957C53.5657 83.4143 53.3353 83.176 53.0597 82.9999ZM42.4297 84.1699C42.3007 84.0799 42.1935 83.9623 42.1157 83.8256C42.0378 83.689 41.9914 83.5368 41.9796 83.3799V80.9999L49.7397 85.4799C49.8702 85.5715 49.979 85.6906 50.0585 85.8289C50.138 85.9671 50.1862 86.1211 50.1997 86.2799V88.6699L42.4297 84.1699ZM51.1997 88.1699V86.2699C51.1818 85.9311 51.0814 85.6018 50.9071 85.3107C50.7328 85.0197 50.4899 84.7756 50.1997 84.5999L42.8597 80.3699L44.7096 79.3699L52.5096 83.8799C52.6415 83.971 52.7519 84.0898 52.8331 84.228C52.9143 84.3661 52.9643 84.5204 52.9796 84.6799V87.1399L51.1997 88.1699Z" fill="#011627"/>
<path d="M55.9996 46.8699C56.4139 47.1377 56.7581 47.5007 57.0034 47.9287C57.2487 48.3566 57.388 48.8371 57.4096 49.3299L57.2996 88.4499C57.2996 89.3499 56.6596 89.7199 55.8796 89.2599L13.2596 64.6899C12.8489 64.4208 12.5072 64.0588 12.2623 63.6332C12.0173 63.2076 11.876 62.7303 11.8496 62.2399L11.9996 23.1099C11.9996 22.2099 12.6396 21.8499 13.4196 22.2999L55.9996 46.8699Z" fill="#EDF2FB"/>
<path d="M82.9996 30.8699L40.4196 6.29989C40.1896 6.14866 39.9309 6.04653 39.6596 5.99989C39.3994 5.97902 39.1387 6.03464 38.9096 6.15989L12.1196 21.7699C11.9014 21.9154 11.7255 22.1159 11.6096 22.3512C11.4937 22.5865 11.4419 22.8482 11.4596 23.1099L11.3496 62.2399C11.3766 62.8164 11.5403 63.3782 11.8272 63.8789C12.1141 64.3797 12.516 64.805 12.9996 65.1199L55.5796 89.6999C55.8492 89.8611 56.1556 89.9506 56.4696 89.9599C56.6862 89.9578 56.8991 89.9029 57.0896 89.7999L83.8696 74.2299C84.0909 74.0874 84.2692 73.8875 84.3854 73.6514C84.5017 73.4154 84.5515 73.1521 84.5296 72.8899L84.6396 33.7599C84.6177 33.182 84.4573 32.6179 84.1719 32.115C83.8865 31.6121 83.4845 31.185 82.9996 30.8699ZM13.5096 64.2499C13.1782 64.0253 12.9018 63.7288 12.7009 63.3825C12.5001 63.0362 12.38 62.6491 12.3496 62.2499L12.4596 23.1299C12.4487 23.0407 12.4584 22.9501 12.4879 22.8652C12.5173 22.7803 12.5658 22.7032 12.6296 22.6399C12.6688 22.6282 12.7105 22.6282 12.7496 22.6399C12.8851 22.6511 13.0157 22.6957 13.1296 22.7699L55.6996 47.3099C56.0347 47.5306 56.3139 47.8262 56.5152 48.1733C56.7165 48.5204 56.8344 48.9095 56.8596 49.3099L56.7496 88.4399C56.7617 88.5268 56.7535 88.6154 56.7258 88.6986C56.698 88.7819 56.6514 88.8576 56.5896 88.9199C56.5027 88.944 56.4113 88.9476 56.3228 88.9302C56.2342 88.9129 56.151 88.8751 56.0796 88.8199L13.5096 64.2499ZM83.5096 72.8899C83.5209 72.9768 83.5124 73.0651 83.4847 73.1483C83.457 73.2314 83.4108 73.3072 83.3496 73.3699L57.7496 88.2499L57.8596 49.3299C57.8372 48.7499 57.6744 48.1839 57.3853 47.6806C57.0962 47.1772 56.6893 46.7515 56.1996 46.4399L13.7896 21.9999L39.4096 7.06989C39.4616 7.05308 39.5176 7.05308 39.5696 7.06989C39.6945 7.08642 39.8142 7.13085 39.9196 7.19989L82.4796 31.7399C82.8141 31.9612 83.0929 32.2569 83.2942 32.6039C83.4954 32.9508 83.6136 33.3396 83.6396 33.7399L83.5096 72.8899Z" fill="#011627"/>
<path d="M49.6097 79.2V81.05C49.6097 81.95 48.9697 82.32 48.1897 81.86L15.8797 63.22C15.4677 62.9499 15.1252 62.5863 14.8802 62.1588C14.6352 61.7313 14.4945 61.2521 14.4697 60.76L14.5497 31.42C14.5497 30.52 15.1897 30.15 15.9797 30.61L48.2697 49.25C48.6827 49.5167 49.0261 49.8782 49.2713 50.3043C49.5165 50.7304 49.6566 51.2089 49.6797 51.7V53.94L49.6097 79.2Z" fill="#EDF2FB"/>
<path d="M19.0001 41.66C18.2201 41.21 17.5801 41.57 17.5801 42.48V53.88C17.6068 54.3715 17.7493 54.8496 17.9961 55.2754C18.2429 55.7012 18.5869 56.0626 19.0001 56.33C19.7801 56.78 20.4201 56.43 20.4201 55.52V44.12C20.3934 43.6273 20.2509 43.1477 20.0041 42.7203C19.7574 42.2929 19.4134 41.9296 19.0001 41.66Z" fill="#FEC89A"/>
<path d="M19.6198 56.9999C19.304 56.9929 18.9962 56.8995 18.7298 56.7299C18.2407 56.4192 17.8336 55.9952 17.543 55.4939C17.2523 54.9927 17.0866 54.4288 17.0598 53.8499V42.4399C17.04 42.1769 17.0918 41.9134 17.2098 41.6774C17.3278 41.4415 17.5075 41.2419 17.7298 41.0999C17.9651 40.9797 18.2283 40.9246 18.4921 40.9404C18.7558 40.9562 19.0106 41.0424 19.2298 41.1899C19.7187 41.5057 20.1252 41.9335 20.4156 42.4379C20.7061 42.9422 20.872 43.5086 20.8998 44.0899V55.4999C20.9143 55.7623 20.8602 56.0239 20.7427 56.2589C20.6252 56.4939 20.4484 56.6942 20.2298 56.8399C20.0422 56.9414 19.833 56.9963 19.6198 56.9999ZM18.3898 41.9999C18.3471 41.9893 18.3025 41.9893 18.2598 41.9999C18.1978 42.0642 18.1512 42.1417 18.1234 42.2265C18.0957 42.3114 18.0876 42.4015 18.0998 42.4899V53.8999C18.1276 54.3009 18.2477 54.69 18.4507 55.0369C18.6536 55.3838 18.9339 55.6792 19.2698 55.8999C19.3415 55.9544 19.4248 55.9918 19.5132 56.0091C19.6016 56.0264 19.6928 56.0233 19.7798 55.9999C19.8798 55.9399 19.9398 55.7599 19.9498 55.5199V44.1099C19.9197 43.7095 19.7987 43.3213 19.5959 42.9747C19.3932 42.6281 19.1141 42.3324 18.7798 42.1099C18.6609 42.0416 18.5269 42.0038 18.3898 41.9999Z" fill="#011627"/>
<path d="M34.0001 45.27C28.1301 41.88 23.3501 44.61 23.3301 51.35C23.3101 58.09 28.0601 66.35 33.9301 69.73C39.8001 73.11 44.5901 70.4 44.6101 63.64C44.6301 56.88 39.9101 48.67 34.0001 45.27Z" fill="#F4914E"/>
<path d="M38.7397 71.69C36.9686 71.6222 35.2455 71.0949 33.7397 70.16C27.7397 66.69 22.8697 58.2599 22.8897 51.3499C22.8897 47.9099 24.0997 45.3499 26.2697 44.0899C28.4397 42.8299 31.2697 43.0899 34.2697 44.8399C40.2697 48.3099 45.1497 56.7399 45.1297 63.6399C45.1297 67.0799 43.9197 69.64 41.7597 70.91C40.8394 71.4316 39.7975 71.7007 38.7397 71.69ZM29.2597 44.3099C28.3733 44.2957 27.4994 44.5202 26.7297 44.9599C24.8897 46.0199 23.8697 48.2899 23.8597 51.3599C23.8597 57.9399 28.4897 65.99 34.2097 69.2899C36.9097 70.8499 39.4097 71.12 41.2697 70.05C43.1297 68.98 44.1297 66.7099 44.1397 63.6399C44.1397 57.0599 39.5097 49.0199 33.7797 45.7099C32.4215 44.8559 30.8629 44.3732 29.2597 44.3099Z" fill="#011627"/>
<path d="M34.0001 52.71C31.7001 51.39 29.8301 52.45 29.8301 55.09C29.9082 56.5339 30.3268 57.9389 31.0515 59.1902C31.7762 60.4415 32.7865 61.5037 34.0001 62.29C36.3001 63.62 38.1701 62.55 38.1801 59.9C38.1009 58.4566 37.6807 57.0524 36.9542 55.8027C36.2276 54.5529 35.2153 53.4931 34.0001 52.71Z" fill="#FEC89A"/>
<path d="M35.85 63.36C35.0993 63.3373 34.3679 63.1165 33.73 62.72C32.4415 61.891 31.3698 60.766 30.6044 59.4387C29.839 58.1115 29.4021 56.6204 29.33 55.09C29.2779 54.4896 29.3877 53.8863 29.648 53.3429C29.9083 52.7994 30.3096 52.3357 30.81 52C31.3581 51.7338 31.9677 51.6203 32.5748 51.6713C33.1819 51.7224 33.7641 51.9361 34.26 52.29C35.5416 53.124 36.6081 54.2488 37.3727 55.573C38.1373 56.8971 38.5784 58.3831 38.66 59.91C38.71 60.509 38.6003 61.1106 38.3421 61.6534C38.0838 62.1962 37.6863 62.6608 37.19 63C36.7829 63.236 36.3206 63.3602 35.85 63.36ZM32.15 52.64C31.8564 52.6344 31.5665 52.7069 31.31 52.85C30.9603 53.1041 30.6838 53.4459 30.5082 53.8409C30.3327 54.2359 30.2643 54.6701 30.31 55.1C30.3857 56.4534 30.778 57.7701 31.4553 58.9442C32.1327 60.1183 33.0762 61.117 34.21 61.86C34.5591 62.1188 34.9698 62.2817 35.4014 62.3326C35.8329 62.3834 36.2703 62.3205 36.67 62.15C37.0197 61.8959 37.2962 61.5541 37.4718 61.1591C37.6473 60.7641 37.7157 60.3298 37.67 59.9C37.5999 58.5466 37.2099 57.2292 36.5319 56.0559C35.854 54.8825 34.9074 53.8866 33.77 53.15C33.2843 52.8403 32.7255 52.6643 32.15 52.64Z" fill="#011627"/>
<path d="M53.1098 52.3L52.4998 52L49.7598 53.59V53.69L50.2798 53.99C50.6927 54.2568 51.0361 54.6182 51.2813 55.0443C51.5266 55.4704 51.6666 55.9489 51.6898 56.44L51.6298 78.8C51.6453 78.9727 51.6157 79.1464 51.5438 79.3042C51.4719 79.462 51.3603 79.5984 51.2198 79.7L54.0498 78C54.1918 77.8975 54.3045 77.7595 54.3764 77.5998C54.4484 77.4401 54.4771 77.2643 54.4598 77.09L54.5198 54.73C54.4927 54.2425 54.3509 53.7684 54.1058 53.3461C53.8608 52.9238 53.5195 52.5654 53.1098 52.3Z" fill="#C1D3FE"/>
<path d="M51.09 47.61L18.8 29C18.657 28.8966 18.4891 28.8328 18.3135 28.8153C18.1378 28.7977 17.9607 28.8269 17.8 28.9L15 30.51C15.1607 30.4369 15.3378 30.4077 15.5135 30.4253C15.6891 30.4428 15.857 30.5066 16 30.61L48.27 49.25C48.683 49.5168 49.0264 49.8782 49.2716 50.3043C49.5168 50.7304 49.6568 51.2089 49.68 51.7V53.59L52.5 52V50.06C52.4713 49.5702 52.329 49.0938 52.0842 48.6686C51.8395 48.2433 51.4991 47.8809 51.09 47.61Z" fill="#C1D3FE"/>
<path d="M50.2898 53.9401C50.7028 54.2069 51.0462 54.5683 51.2914 54.9944C51.5367 55.4205 51.6767 55.899 51.6998 56.3901L51.6398 78.7501C51.6398 79.6501 50.9998 80.0101 50.2198 79.5601L49.6098 79.2001L48.9998 78.8501C48.5865 78.5862 48.2426 78.2267 47.9972 77.8021C47.7519 77.3774 47.6121 76.9 47.5898 76.4101L47.6498 54.0501C47.6498 53.1401 48.2898 52.7801 49.0698 53.2301L49.6798 53.5901L50.2898 53.9401Z" fill="#EDF2FB"/>
<path d="M53.36 51.8701L53 51.6601V50.0601C52.976 49.4818 52.8125 48.9179 52.5234 48.4164C52.2344 47.9149 51.8284 47.4908 51.34 47.1801L19.05 28.5401C18.8306 28.3891 18.5745 28.3001 18.3087 28.2825C18.043 28.2649 17.7774 28.3194 17.54 28.4401C17.54 28.4401 14.71 30.0801 14.71 30.0901C14.4933 30.2348 14.3183 30.4337 14.2025 30.6671C14.0867 30.9004 14.0341 31.1601 14.05 31.4201L14 60.7601C14.0266 61.3392 14.1911 61.9036 14.4798 62.4063C14.7685 62.909 15.1732 63.3354 15.66 63.6501L47.93 82.3001C48.1961 82.4609 48.4992 82.5505 48.81 82.5601C49.0269 82.5606 49.2404 82.5055 49.43 82.4001C49.6501 82.2535 49.8279 82.0516 49.9455 81.8147C50.0631 81.5778 50.1163 81.3141 50.1 81.0501V80.0501C50.3359 80.171 50.5952 80.2393 50.86 80.2501C51.0742 80.2541 51.2853 80.1988 51.47 80.0901L54.3 78.4501C54.5271 78.3111 54.7122 78.113 54.8355 77.877C54.9588 77.641 55.0156 77.3759 55 77.1101V54.7501C54.9773 54.1738 54.8165 53.6114 54.5311 53.1102C54.2457 52.609 53.8441 52.1837 53.36 51.8701ZM18 29.3001C18.087 29.2767 18.1782 29.2736 18.2666 29.2909C18.355 29.3083 18.4383 29.3456 18.51 29.4001L50.84 48.0501C51.1751 48.2709 51.4543 48.5664 51.6556 48.9135C51.8569 49.2606 51.9748 49.6497 52 50.0501V51.6501L50.18 52.7101V51.7101C50.156 51.1318 49.9925 50.5679 49.7034 50.0664C49.4144 49.5649 49.0084 49.1408 48.52 48.8301L16.38 30.2701L18 29.3001ZM48.93 81.5301C48.83 81.5901 48.64 81.5301 48.43 81.4301L16.13 62.7901C15.7971 62.5672 15.5195 62.271 15.3184 61.9244C15.1174 61.5778 14.9982 61.1898 14.97 60.7901L15.05 31.4401C15.05 31.2001 15.12 31.0201 15.22 30.9601C15.3069 30.936 15.3983 30.9324 15.4868 30.9498C15.5754 30.9672 15.6586 31.0049 15.73 31.0601L48 49.6901C48.3351 49.9109 48.6143 50.2064 48.8156 50.5535C49.0169 50.9006 49.1348 51.2897 49.16 51.6901V52.6901C48.9493 52.5772 48.714 52.5181 48.475 52.5181C48.236 52.5181 48.0007 52.5772 47.79 52.6901C47.5786 52.834 47.4084 53.0304 47.2961 53.2602C47.1839 53.4899 47.1335 53.745 47.15 54.0001L47.09 76.3701C47.114 76.9484 47.2775 77.5124 47.5666 78.0138C47.8556 78.5153 48.2616 78.9394 48.75 79.2501L49.1 79.4501V81.0001C49.1 81.2801 49 81.4701 48.93 81.5301ZM51.14 78.7501C51.14 78.9801 51.08 79.1701 50.97 79.2201C50.8856 79.2464 50.796 79.252 50.709 79.2363C50.6219 79.2206 50.54 79.1842 50.47 79.1301L49.25 78.4201C48.9144 78.2 48.6348 77.9045 48.4334 77.5573C48.2321 77.2101 48.1145 76.8207 48.09 76.4201L48.15 54.0601C48.15 53.8201 48.21 53.6301 48.31 53.5801C48.3495 53.5711 48.3905 53.5711 48.43 53.5801C48.5696 53.5863 48.7046 53.6313 48.82 53.7101L50.04 54.4101C50.3729 54.6331 50.6505 54.9292 50.8516 55.2758C51.0526 55.6224 51.1718 56.0104 51.2 56.4101L51.14 78.7501ZM54 77.1101C54.0125 77.1979 54.0035 77.2874 53.9739 77.371C53.9443 77.4546 53.8949 77.5297 53.83 77.5901L52.18 78.5901L52.24 56.4301C52.2162 55.8763 52.0648 55.3356 51.7977 54.8499C51.5306 54.3642 51.1549 53.9468 50.7 53.6301L52.54 52.5601L52.9 52.7701C53.2329 52.9931 53.5105 53.2892 53.7116 53.6358C53.9126 53.9824 54.0318 54.3704 54.06 54.7701L54 77.1101Z" fill="#011627"/>
</svg>
