<svg width="65" height="86" viewBox="0 0 65 86" fill="none" xmlns="http://www.w3.org/2000/svg">
<path d="M46.62 23.231L7.59996 0.711048C7.36647 0.558871 7.08633 0.495041 6.80996 0.531048C6.7359 0.545514 6.66487 0.572573 6.59996 0.611048L0.959961 3.89105C1.12064 3.81798 1.2978 3.78874 1.47344 3.8063C1.64907 3.82386 1.81693 3.88761 1.95996 3.99105L40.96 26.511C41.3829 26.7817 41.7346 27.1501 41.9852 27.5852C42.2358 28.0204 42.3781 28.5094 42.4 29.011L42.32 57.531C42.338 57.7079 42.3087 57.8863 42.2348 58.0481C42.161 58.2098 42.0454 58.3489 41.9 58.451L47.54 55.171C47.6838 55.0697 47.7984 54.9322 47.8722 54.7725C47.9459 54.6127 47.9762 54.4363 47.96 54.261L48.04 25.731C48.0195 25.2314 47.8799 24.7438 47.6329 24.309C47.3859 23.8741 47.0386 23.5046 46.62 23.231Z" fill="#C1D3FE"/>
<path d="M40.98 26.5109L1.96996 4.01087C1.18996 3.56087 0.549963 3.92087 0.539963 4.82087L0.459961 33.3509C0.48822 33.8419 0.631446 34.3195 0.878096 34.745C1.12475 35.1706 1.46792 35.5323 1.87996 35.8009L40.88 58.3309C41.67 58.7809 42.31 58.4209 42.31 57.5109L42.4 29.0109C42.3803 28.511 42.2411 28.0232 41.994 27.5882C41.7469 27.1532 41.3992 26.7838 40.98 26.5109Z" fill="#EDF2FB"/>
<path d="M37.75 27.891L5.23 9.14099C4.44 8.68099 3.81 9.05099 3.8 9.95099L3.75 32.011C3.77632 32.5 3.91775 32.9759 4.16277 33.3999C4.40779 33.8239 4.74947 34.184 5.16 34.451L37.64 53.161C38.42 53.611 39.06 53.251 39.06 52.351L39.12 30.351C39.102 29.8619 38.9685 29.384 38.7304 28.9565C38.4923 28.5289 38.1563 28.1638 37.75 27.891Z" fill="#EDF2FB"/>
<path d="M38.2802 53.8509C37.9653 53.8478 37.6573 53.7578 37.3902 53.5909L4.90023 34.8409C4.42133 34.532 4.02162 34.115 3.7333 33.6235C3.44498 33.1319 3.27609 32.5796 3.24023 32.0109L3.30023 10.0109C3.28076 9.74645 3.33266 9.48166 3.45053 9.24418C3.56839 9.0067 3.74788 8.80523 3.97023 8.66085C4.20722 8.54506 4.47039 8.49337 4.73356 8.51091C4.99674 8.52846 5.25072 8.61463 5.47023 8.76085L37.9602 27.4609C38.448 27.7721 38.8536 28.1964 39.1425 28.6978C39.4315 29.1991 39.5954 29.7627 39.6202 30.3409L39.5602 52.3409C39.58 52.6039 39.5282 52.8674 39.4102 53.1033C39.2922 53.3393 39.1126 53.5389 38.8902 53.6809C38.7066 53.793 38.4954 53.8519 38.2802 53.8509ZM4.59023 9.44085C4.55109 9.42918 4.50938 9.42918 4.47023 9.44085C4.40663 9.5022 4.35816 9.57751 4.32865 9.66081C4.29915 9.74412 4.28942 9.83314 4.30023 9.92085L4.24023 31.9209C4.26697 32.3209 4.38552 32.7095 4.58669 33.0563C4.78787 33.4032 5.06625 33.699 5.40023 33.9209L37.8902 52.7309C37.9482 52.8033 38.03 52.8528 38.1211 52.8704C38.2122 52.8879 38.3066 52.8724 38.3873 52.8266C38.468 52.7809 38.5298 52.7078 38.5615 52.6206C38.5932 52.5334 38.5927 52.4378 38.5602 52.3509L38.6202 30.3509C38.5965 29.95 38.4793 29.5604 38.2778 29.213C38.0764 28.8657 37.7964 28.5704 37.4602 28.3509L4.97023 9.57085C4.8556 9.49813 4.72539 9.45359 4.59023 9.44085Z" fill="#011627"/>
<path d="M11.8401 31.731C12.0447 31.8647 12.2148 32.045 12.3365 32.257C12.4581 32.469 12.5279 32.7068 12.5401 32.951V34.591C12.5401 35.041 12.2201 35.221 11.8301 35.001L6.83012 32.131C6.62453 31.995 6.45337 31.8131 6.33015 31.5997C6.20693 31.3862 6.13503 31.147 6.12012 30.901V29.271C6.12012 28.821 6.44012 28.641 6.83012 28.861L11.8401 31.731Z" fill="#C1D3FE"/>
<path d="M12.1504 35.591C11.9495 35.5898 11.7526 35.5345 11.5804 35.431L6.58043 32.561C6.29037 32.3876 6.04743 32.1455 5.87304 31.856C5.69865 31.5665 5.59816 31.2385 5.58043 30.901V29.271C5.56559 29.0949 5.60125 28.9182 5.68324 28.7616C5.76523 28.605 5.89015 28.475 6.04336 28.3868C6.19658 28.2987 6.37174 28.256 6.54833 28.2639C6.72492 28.2717 6.89562 28.3297 7.04043 28.431L12.0404 31.301C12.3198 31.4793 12.5521 31.7224 12.7175 32.0097C12.8829 32.2969 12.9765 32.6199 12.9904 32.951V34.591C12.9988 34.7667 12.9607 34.9415 12.8799 35.0978C12.7992 35.2541 12.6786 35.3862 12.5304 35.481C12.4132 35.5448 12.2836 35.5824 12.1504 35.591ZM6.67043 29.321V30.911C6.68608 31.0666 6.73531 31.2169 6.81474 31.3516C6.89416 31.4862 7.00187 31.6021 7.13043 31.691L12.0504 34.531V32.951C12.0367 32.7947 11.9894 32.6432 11.9117 32.5069C11.8341 32.3705 11.7279 32.2526 11.6004 32.161L6.67043 29.321Z" fill="#011627"/>
<path d="M19.0697 35.911C19.2712 36.0464 19.4378 36.2274 19.556 36.4395C19.6741 36.6515 19.7405 36.8884 19.7497 37.131V38.771C19.7497 39.211 19.4397 39.401 19.0397 39.171L15.1397 36.911C14.9341 36.775 14.7629 36.5931 14.6397 36.3797C14.5165 36.1662 14.4446 35.927 14.4297 35.681V34.011C14.4297 33.561 14.7497 33.381 15.1397 33.601L19.0697 35.911Z" fill="#C1D3FE"/>
<path d="M19.38 39.771C19.1785 39.7644 18.9822 39.7058 18.81 39.601L14.89 37.341C14.5963 37.1717 14.3504 36.9306 14.1755 36.6402C14.0006 36.3499 13.9023 36.0198 13.89 35.681V34.011C13.8752 33.8349 13.9108 33.6582 13.9928 33.5016C14.0748 33.345 14.1997 33.215 14.3529 33.1268C14.5061 33.0387 14.6813 32.996 14.8579 33.0038C15.0345 33.0117 15.2052 33.0697 15.35 33.171L19.27 35.431C19.5601 35.6045 19.803 35.8466 19.9774 36.1361C20.1518 36.4256 20.2523 36.7535 20.27 37.091V38.731C20.2794 38.9058 20.2428 39.0799 20.1639 39.2361C20.0849 39.3923 19.9663 39.525 19.82 39.621C19.6872 39.7049 19.5364 39.7563 19.38 39.771ZM14.95 34.101V35.681C14.9622 35.8389 15.0099 35.9919 15.0895 36.1287C15.1692 36.2655 15.2787 36.3825 15.41 36.471L19.29 38.711V37.131C19.2778 36.9732 19.2301 36.8201 19.1505 36.6833C19.0708 36.5465 18.9613 36.4295 18.83 36.341L14.95 34.101Z" fill="#011627"/>
<path d="M27.44 40.7409C27.6526 40.8789 27.8284 41.0667 27.9521 41.288C28.0758 41.5093 28.1438 41.7574 28.15 42.0109V43.6509C28.15 44.1009 27.84 44.2809 27.44 44.0509L22.44 41.1909C22.2315 41.0478 22.0601 40.857 21.9401 40.6344C21.8201 40.4118 21.7549 40.1637 21.75 39.9109V38.2809C21.75 37.8309 22.07 37.6509 22.47 37.8809L27.44 40.7409Z" fill="#C1D3FE"/>
<path d="M27.7503 44.6009C27.5496 44.5983 27.3531 44.5431 27.1803 44.4409L22.1803 41.5709C21.8866 41.4017 21.6407 41.1605 21.4658 40.8701C21.2909 40.5798 21.1926 40.2497 21.1803 39.9109V38.2809C21.141 38.0851 21.1658 37.8818 21.251 37.7012C21.3362 37.5206 21.4773 37.3722 21.6534 37.278C21.8295 37.1837 22.0312 37.1487 22.2288 37.1781C22.4263 37.2074 22.6092 37.2996 22.7503 37.4409L27.7503 40.3109C28.0426 40.4793 28.2876 40.7189 28.4624 41.0074C28.6372 41.2959 28.7363 41.6239 28.7503 41.9609V43.6009C28.7587 43.7766 28.7205 43.9514 28.6398 44.1077C28.559 44.2639 28.4385 44.3961 28.2903 44.4909C28.1265 44.5838 27.9374 44.6223 27.7503 44.6009ZM22.2703 38.3309V39.9109C22.2838 40.0698 22.332 40.2238 22.4114 40.362C22.4909 40.5002 22.5998 40.6193 22.7303 40.7109L27.6403 43.5409V41.9609C27.6267 41.8034 27.5784 41.6509 27.4989 41.5143C27.4194 41.3777 27.3105 41.2605 27.1803 41.1709L22.2703 38.3309Z" fill="#011627"/>
<path d="M13.3 16.2509C13.507 16.383 13.6795 16.5626 13.803 16.7748C13.9265 16.987 13.9975 17.2257 14.01 17.4709V22.3609C14.01 22.8109 13.7 23.0009 13.3 22.7709L6.91996 19.0809C6.71349 18.9483 6.54146 18.7685 6.41802 18.5565C6.29459 18.3444 6.22328 18.106 6.20996 17.8609V12.9709C6.20996 12.5209 6.52996 12.3409 6.91996 12.5609L13.3 16.2509Z" fill="#C1D3FE"/>
<path d="M13.6004 23.3709C13.3989 23.3643 13.2026 23.3058 13.0304 23.2009L6.65039 19.5209C6.36033 19.3475 6.11739 19.1054 5.943 18.8159C5.76861 18.5264 5.66812 18.1984 5.65039 17.8609L5.75039 13.0109C5.73336 12.8342 5.76783 12.6563 5.84965 12.4987C5.93146 12.3412 6.05712 12.2106 6.21147 12.1229C6.36582 12.0351 6.54226 11.9939 6.71951 12.0042C6.89676 12.0145 7.06724 12.0759 7.21039 12.1809L13.5504 15.8109C13.8405 15.9844 14.0834 16.2265 14.2578 16.516C14.4322 16.8055 14.5327 17.1334 14.5504 17.4709V22.3709C14.558 22.544 14.5206 22.7161 14.4417 22.8704C14.3628 23.0247 14.2452 23.1558 14.1004 23.2509C13.9499 23.341 13.7754 23.3829 13.6004 23.3709ZM6.75039 13.0109V17.8509C6.76395 18.0084 6.81224 18.1609 6.89178 18.2975C6.97131 18.4341 7.08012 18.5514 7.21039 18.6409L13.5404 22.3009V17.4609C13.5282 17.3031 13.4805 17.15 13.4009 17.0132C13.3212 16.8764 13.2117 16.7594 13.0804 16.6709L6.75039 13.0109Z" fill="#011627"/>
<path d="M33.5196 28.741C34.0348 29.0757 34.4636 29.5272 34.7712 30.059C35.0788 30.5907 35.2564 31.1876 35.2896 31.8011C35.2896 32.9211 34.4796 33.3811 33.5096 32.8011L22.8596 26.671C22.3457 26.3359 21.9184 25.884 21.6125 25.3522C21.3066 24.8204 21.1309 24.2238 21.0996 23.6111C21.0996 22.4811 21.8996 22.0311 22.8796 22.6111L33.5196 28.741Z" fill="#C1D3FE"/>
<path d="M34.2997 33.551C33.9465 33.5359 33.6028 33.4328 33.2997 33.251L22.6097 27.101C22.0221 26.7186 21.5342 26.2016 21.1863 25.5929C20.8385 24.9842 20.6408 24.3014 20.6097 23.601C20.5712 23.2908 20.6256 22.9762 20.766 22.6969C20.9064 22.4177 21.1265 22.1863 21.3984 22.0322C21.6703 21.878 21.9819 21.808 22.2936 21.8309C22.6053 21.8539 22.9032 21.9687 23.1497 22.161L33.7497 28.301C34.3367 28.6841 34.8241 29.2012 35.1719 29.8097C35.5196 30.4183 35.7177 31.1008 35.7497 31.801C35.7713 32.1074 35.7114 32.414 35.5762 32.6898C35.441 32.9655 35.2351 33.2006 34.9797 33.371C34.7707 33.4848 34.5375 33.5465 34.2997 33.551ZM22.0797 22.851C22.0067 22.8508 21.9347 22.8679 21.8697 22.901C21.7696 22.9883 21.6919 23.0984 21.6432 23.2219C21.5945 23.3455 21.5761 23.4789 21.5897 23.611C21.624 24.1367 21.779 24.6474 22.0426 25.1035C22.3062 25.5596 22.6714 25.9488 23.1097 26.241L33.7497 32.381C33.8434 32.4726 33.9646 32.531 34.0947 32.5472C34.2248 32.5634 34.3566 32.5366 34.4699 32.4708C34.5833 32.4051 34.6721 32.304 34.7226 32.183C34.7731 32.0621 34.7826 31.9279 34.7497 31.801C34.7153 31.2754 34.5603 30.7647 34.2967 30.3086C34.0331 29.8525 33.668 29.4632 33.2297 29.171L22.6297 23.011C22.4621 22.9137 22.2733 22.8588 22.0797 22.851Z" fill="#011627"/>
<path d="M46.87 22.801L7.85 0.280972C7.52777 0.0615471 7.13721 -0.0343164 6.75 0.0109716C6.62285 0.0366308 6.50107 0.0839891 6.39 0.150971L0.75 3.46097C0.529199 3.60452 0.350699 3.80438 0.232922 4.03993C0.115144 4.27549 0.0623544 4.5382 0.0799999 4.80097L0 33.331C0.0267861 33.9098 0.192518 34.4737 0.483191 34.975C0.773863 35.4762 1.18093 35.9002 1.67 36.211L40.67 58.741C40.9396 58.9022 41.246 58.9917 41.56 59.001C41.7772 59.0038 41.9913 58.9486 42.18 58.841L47.75 55.561C47.9708 55.4174 48.1493 55.2176 48.2671 54.982C48.3849 54.7465 48.4376 54.4837 48.42 54.221L48.5 25.691C48.4776 25.1144 48.318 24.5514 48.0345 24.0488C47.751 23.5462 47.3518 23.1185 46.87 22.801ZM2.13 35.351C1.79573 35.1285 1.5166 34.8328 1.31386 34.4862C1.11111 34.1396 0.990088 33.7514 0.959999 33.351L1.04 4.82097C1.02996 4.7333 1.04005 4.6445 1.06951 4.56132C1.09897 4.47814 1.14702 4.40278 1.21 4.34097C1.24935 4.33081 1.29065 4.33081 1.33 4.34097C1.46548 4.35214 1.59607 4.39681 1.71 4.47097L40.75 26.941C41.0848 27.1629 41.3643 27.4585 41.5671 27.8052C41.7699 28.1519 41.8906 28.5404 41.92 28.941L41.84 57.461C41.84 57.701 41.77 57.891 41.67 57.941C41.5833 57.9676 41.4914 57.9725 41.4024 57.955C41.3135 57.9376 41.2302 57.8984 41.16 57.841L2.13 35.351ZM47.46 54.221C47.47 54.3086 47.46 54.3974 47.4305 54.4806C47.401 54.5638 47.353 54.6392 47.29 54.701L42.82 57.301L42.9 29.011C42.8731 28.4308 42.7075 27.8655 42.4169 27.3626C42.1263 26.8598 41.7193 26.434 41.23 26.121L2.38 3.65097L6.91 1.01097C7.06595 1.00073 7.22084 1.04297 7.35 1.13097L46.35 23.661C46.6843 23.8834 46.9634 24.1792 47.1661 24.5258C47.3689 24.8723 47.4899 25.2606 47.52 25.661L47.46 54.221Z" fill="#011627"/>
<path d="M60.6205 47.231L21.6205 24.711C21.387 24.5589 21.1068 24.495 20.8305 24.531C20.7564 24.5455 20.6854 24.5726 20.6205 24.611L14.9805 27.891C15.1411 27.818 15.3183 27.7887 15.4939 27.8063C15.6696 27.8239 15.8374 27.8876 15.9805 27.991L54.9805 50.511C55.3997 50.784 55.7474 51.1534 55.9945 51.5884C56.2416 52.0233 56.3808 52.5112 56.4005 53.011L56.3205 81.531C56.3386 81.7079 56.3092 81.8864 56.2353 82.0481C56.1615 82.2098 56.0459 82.3489 55.9005 82.451L61.5405 79.1711C61.6844 79.0697 61.799 78.9322 61.8727 78.7725C61.9464 78.6127 61.9767 78.4363 61.9605 78.261L62.0405 49.731C62.02 49.2314 61.8804 48.7438 61.6334 48.309C61.3864 47.8741 61.0391 47.5046 60.6205 47.231Z" fill="#C1D3FE"/>
<path d="M54.98 50.5109L15.97 28.0109C15.19 27.5609 14.55 27.9209 14.54 28.8209L14.46 57.3509C14.4882 57.8419 14.6314 58.3195 14.8781 58.745C15.1247 59.1706 15.4679 59.5323 15.88 59.8009L54.88 82.3309C55.67 82.7809 56.31 82.4209 56.31 81.5109L56.4 53.0109C56.3803 52.511 56.2411 52.0232 55.994 51.5882C55.7469 51.1532 55.3992 50.7838 54.98 50.5109Z" fill="#EDF2FB"/>
<path d="M51.75 51.891L19.23 33.141C18.44 32.681 17.81 33.051 17.8 33.951L17.75 56.011C17.7763 56.5 17.9178 56.9759 18.1628 57.3999C18.4078 57.8239 18.7495 58.184 19.16 58.451L51.64 77.161C52.42 77.611 53.06 77.251 53.06 76.351L53.12 54.351C53.102 53.8619 52.9685 53.384 52.7304 52.9565C52.4923 52.5289 52.1563 52.1638 51.75 51.891Z" fill="#EDF2FB"/>
<path d="M52.2802 77.8508C51.9653 77.8478 51.6573 77.7578 51.3902 77.5909L18.9002 58.8409C18.4213 58.532 18.0216 58.115 17.7333 57.6235C17.445 57.132 17.2761 56.5796 17.2402 56.0109L17.3002 34.0109C17.2808 33.7464 17.3327 33.4817 17.4505 33.2442C17.5684 33.0067 17.7479 32.8052 17.9702 32.6609C18.2072 32.5451 18.4704 32.4934 18.7336 32.5109C18.9967 32.5285 19.2507 32.6146 19.4702 32.7609L51.9602 51.4609C52.448 51.7722 52.8536 52.1964 53.1425 52.6978C53.4315 53.1991 53.5954 53.7627 53.6202 54.3409L53.5602 76.3409C53.58 76.6039 53.5282 76.8674 53.4102 77.1033C53.2922 77.3393 53.1125 77.5389 52.8902 77.6809C52.7066 77.793 52.4954 77.8519 52.2802 77.8508ZM18.5902 33.4409C18.5511 33.4292 18.5094 33.4292 18.4702 33.4409C18.4066 33.5022 18.3582 33.5775 18.3287 33.6608C18.2991 33.7441 18.2894 33.8331 18.3002 33.9209L18.2402 55.9209C18.267 56.3209 18.3855 56.7095 18.5867 57.0563C18.7879 57.4032 19.0662 57.699 19.4002 57.9209L51.8902 76.7309C51.9482 76.8033 52.03 76.8528 52.1211 76.8704C52.2122 76.8879 52.3066 76.8724 52.3873 76.8266C52.468 76.7809 52.5298 76.7078 52.5615 76.6206C52.5932 76.5334 52.5927 76.4378 52.5602 76.3508L52.6202 54.3509C52.5965 53.95 52.4793 53.5604 52.2778 53.213C52.0764 52.8657 51.7964 52.5704 51.4602 52.3509L18.9702 33.5709C18.8556 33.4981 18.7254 33.4536 18.5902 33.4409Z" fill="#011627"/>
<path d="M25.8401 55.731C26.0447 55.8647 26.2148 56.045 26.3365 56.257C26.4581 56.469 26.5279 56.7068 26.5401 56.951V58.591C26.5401 59.041 26.2201 59.221 25.8301 59.001L20.8301 56.131C20.6245 55.995 20.4534 55.8131 20.3302 55.5997C20.2069 55.3862 20.135 55.147 20.1201 54.901V53.271C20.1201 52.821 20.4401 52.641 20.8301 52.861L25.8401 55.731Z" fill="#C1D3FE"/>
<path d="M26.1504 59.591C25.9495 59.5898 25.7526 59.5345 25.5804 59.431L20.5804 56.561C20.2904 56.3876 20.0474 56.1455 19.873 55.856C19.6986 55.5665 19.5982 55.2385 19.5804 54.901V53.271C19.5656 53.0949 19.6013 52.9182 19.6832 52.7616C19.7652 52.605 19.8901 52.475 20.0434 52.3868C20.1966 52.2987 20.3717 52.256 20.5483 52.2639C20.7249 52.2717 20.8956 52.3297 21.0404 52.431L26.0404 55.301C26.3198 55.4793 26.5521 55.7224 26.7175 56.0097C26.8829 56.2969 26.9765 56.6199 26.9904 56.951V58.591C26.9988 58.7667 26.9607 58.9415 26.8799 59.0978C26.7992 59.2541 26.6786 59.3862 26.5304 59.481C26.4132 59.5448 26.2836 59.5824 26.1504 59.591ZM20.6704 53.321V54.911C20.6861 55.0666 20.7353 55.2169 20.8147 55.3516C20.8942 55.4862 21.0019 55.6021 21.1304 55.691L26.0504 58.531V56.951C26.0367 56.7947 25.9894 56.6432 25.9117 56.5069C25.8341 56.3705 25.7279 56.2526 25.6004 56.161L20.6704 53.321Z" fill="#011627"/>
<path d="M33.0697 59.911C33.2712 60.0464 33.4378 60.2274 33.556 60.4395C33.6741 60.6515 33.7405 60.8884 33.7497 61.131V62.771C33.7497 63.211 33.4397 63.401 33.0397 63.171L29.1397 60.911C28.9341 60.775 28.7629 60.5931 28.6397 60.3797C28.5165 60.1662 28.4446 59.927 28.4297 59.681V58.011C28.4297 57.561 28.7497 57.381 29.1397 57.601L33.0697 59.911Z" fill="#C1D3FE"/>
<path d="M33.38 63.771C33.1785 63.7644 32.9822 63.7058 32.81 63.601L28.89 61.341C28.5963 61.1717 28.3504 60.9306 28.1755 60.6402C28.0006 60.3499 27.9023 60.0198 27.89 59.681V58.011C27.8752 57.8349 27.9108 57.6582 27.9928 57.5016C28.0748 57.345 28.1997 57.215 28.3529 57.1268C28.5061 57.0387 28.6813 56.996 28.8579 57.0038C29.0345 57.0117 29.2052 57.0697 29.35 57.171L33.27 59.431C33.5601 59.6045 33.803 59.8466 33.9774 60.1361C34.1518 60.4256 34.2523 60.7535 34.27 61.091V62.731C34.2794 62.9058 34.2428 63.0799 34.1639 63.2361C34.0849 63.3923 33.9663 63.525 33.82 63.621C33.6872 63.7049 33.5364 63.7563 33.38 63.771ZM28.95 58.101V59.681C28.9622 59.8389 29.0099 59.9919 29.0895 60.1287C29.1692 60.2655 29.2787 60.3825 29.41 60.471L33.29 62.711V61.131C33.2778 60.9732 33.2301 60.8201 33.1505 60.6833C33.0708 60.5465 32.9613 60.4295 32.83 60.341L28.95 58.101Z" fill="#011627"/>
<path d="M41.44 64.7409C41.6526 64.8789 41.8284 65.0667 41.9521 65.288C42.0758 65.5093 42.1438 65.7574 42.15 66.0109V67.6509C42.15 68.1009 41.84 68.2809 41.44 68.0509L36.44 65.1909C36.2315 65.0478 36.0601 64.857 35.9401 64.6344C35.8201 64.4117 35.7549 64.1637 35.75 63.9109V62.2809C35.75 61.8309 36.07 61.6509 36.47 61.8809L41.44 64.7409Z" fill="#C1D3FE"/>
<path d="M41.7503 68.6009C41.5496 68.5982 41.3531 68.5431 41.1803 68.4409L36.1803 65.5709C35.8866 65.4016 35.6407 65.1605 35.4658 64.8701C35.2909 64.5798 35.1926 64.2497 35.1803 63.9109V62.2809C35.141 62.0851 35.1658 61.8818 35.251 61.7012C35.3362 61.5206 35.4773 61.3722 35.6534 61.278C35.8295 61.1837 36.0312 61.1487 36.2288 61.1781C36.4263 61.2074 36.6092 61.2996 36.7503 61.4409L41.7503 64.3109C42.0426 64.4793 42.2876 64.7189 42.4624 65.0074C42.6372 65.2959 42.7363 65.6239 42.7503 65.9609V67.6009C42.7587 67.7766 42.7205 67.9514 42.6398 68.1077C42.559 68.2639 42.4385 68.3961 42.2903 68.4909C42.1265 68.5838 41.9374 68.6223 41.7503 68.6009ZM36.2703 62.3309V63.9109C36.2838 64.0698 36.332 64.2238 36.4114 64.362C36.4909 64.5002 36.5998 64.6193 36.7303 64.7109L41.6403 67.5409V65.9609C41.6267 65.8034 41.5784 65.6509 41.4989 65.5143C41.4194 65.3777 41.3105 65.2605 41.1803 65.1709L36.2703 62.3309Z" fill="#011627"/>
<path d="M27.3 40.2509C27.507 40.383 27.6795 40.5626 27.803 40.7748C27.9265 40.987 27.9974 41.2257 28.01 41.4709V46.3609C28.01 46.8109 27.7 47.0009 27.3 46.7709L20.92 43.0809C20.7135 42.9483 20.5415 42.7685 20.418 42.5565C20.2946 42.3444 20.2233 42.106 20.21 41.8609V36.9709C20.21 36.5209 20.53 36.3409 20.92 36.5609L27.3 40.2509Z" fill="#C1D3FE"/>
<path d="M27.6004 47.3709C27.3989 47.3643 27.2026 47.3058 27.0304 47.2009L20.6504 43.5209C20.3603 43.3475 20.1174 43.1054 19.943 42.8159C19.7686 42.5264 19.6681 42.1984 19.6504 41.8609L19.7504 37.0109C19.7334 36.8342 19.7678 36.6563 19.8496 36.4987C19.9315 36.3412 20.0571 36.2106 20.2115 36.1229C20.3658 36.0351 20.5423 35.9939 20.7195 36.0042C20.8968 36.0145 21.0672 36.0759 21.2104 36.1809L27.5504 39.8109C27.8405 39.9844 28.0834 40.2265 28.2578 40.516C28.4322 40.8055 28.5327 41.1334 28.5504 41.4709V46.3709C28.558 46.544 28.5206 46.7161 28.4417 46.8704C28.3628 47.0247 28.2452 47.1558 28.1004 47.2509C27.9499 47.341 27.7754 47.3829 27.6004 47.3709ZM20.7504 37.0109V41.8509C20.764 42.0084 20.8122 42.1609 20.8918 42.2975C20.9713 42.4341 21.0801 42.5514 21.2104 42.6409L27.5404 46.3009V41.4609C27.5282 41.3031 27.4805 41.15 27.4009 41.0132C27.3212 40.8764 27.2117 40.7594 27.0804 40.6709L20.7504 37.0109Z" fill="#011627"/>
<path d="M47.5196 52.7411C48.0348 53.0757 48.4636 53.5272 48.7712 54.059C49.0788 54.5907 49.2564 55.1876 49.2896 55.8011C49.2896 56.9211 48.4796 57.3811 47.5096 56.8011L36.8596 50.6711C36.3457 50.3359 35.9184 49.884 35.6125 49.3522C35.3066 48.8204 35.1309 48.2238 35.0996 47.6111C35.0996 46.4811 35.8996 46.0311 36.8796 46.6111L47.5196 52.7411Z" fill="#C1D3FE"/>
<path d="M48.2997 57.551C47.9465 57.5359 47.6028 57.4328 47.2997 57.251L36.6097 51.101C36.0221 50.7186 35.5342 50.2016 35.1863 49.5929C34.8385 48.9842 34.6408 48.3014 34.6097 47.601C34.5712 47.2908 34.6256 46.9762 34.766 46.6969C34.9064 46.4177 35.1265 46.1863 35.3984 46.0322C35.6703 45.878 35.9819 45.808 36.2936 45.8309C36.6053 45.8539 36.9032 45.9687 37.1497 46.161L47.7497 52.301C48.3367 52.6841 48.8241 53.2012 49.1719 53.8097C49.5196 54.4183 49.7177 55.1008 49.7497 55.801C49.7713 56.1074 49.7115 56.414 49.5762 56.6898C49.441 56.9655 49.2351 57.2006 48.9797 57.371C48.7708 57.4848 48.5375 57.5465 48.2997 57.551ZM36.0797 46.851C36.0106 46.8348 35.9387 46.8348 35.8697 46.851C35.7696 46.9383 35.6919 47.0484 35.6432 47.1719C35.5945 47.2955 35.5761 47.4289 35.5897 47.561C35.624 48.0867 35.779 48.5974 36.0426 49.0535C36.3062 49.5096 36.6714 49.8988 37.1097 50.191L47.7497 56.381C47.8434 56.4726 47.9646 56.531 48.0947 56.5472C48.2248 56.5634 48.3566 56.5366 48.4699 56.4708C48.5833 56.4051 48.6721 56.304 48.7226 56.183C48.7731 56.0621 48.7826 55.9279 48.7497 55.801C48.7153 55.2754 48.5603 54.7647 48.2967 54.3086C48.0331 53.8525 47.668 53.4632 47.2297 53.171L36.6297 47.011C36.4621 46.9137 36.2733 46.8588 36.0797 46.851Z" fill="#011627"/>
<path d="M60.87 46.8011L21.87 24.2811C21.5424 24.0569 21.1438 23.9608 20.75 24.0111C20.6229 24.0368 20.5011 24.0841 20.39 24.1511L14.75 27.4611C14.5292 27.6046 14.3507 27.8045 14.2329 28.0401C14.1151 28.2756 14.0624 28.5383 14.08 28.8011L14 57.3311C14.0268 57.9099 14.1925 58.4738 14.4832 58.9751C14.7739 59.4764 15.1809 59.9003 15.67 60.2111L54.67 82.7411C54.9396 82.9023 55.246 82.9918 55.56 83.0011C55.7772 83.0039 55.9913 82.9487 56.18 82.8411L61.75 79.5611C61.9708 79.4176 62.1493 79.2177 62.2671 78.9821C62.3849 78.7466 62.4376 78.4839 62.42 78.2211L62.5 49.6911C62.4776 49.1145 62.318 48.5516 62.0345 48.049C61.751 47.5464 61.3518 47.1186 60.87 46.8011ZM16.13 59.3511C15.7957 59.1286 15.5166 58.8329 15.3139 58.4863C15.1111 58.1397 14.9901 57.7515 14.96 57.3511L15.04 28.8211C15.03 28.7334 15.04 28.6446 15.0695 28.5614C15.099 28.4783 15.147 28.4029 15.21 28.3411C15.2494 28.3309 15.2906 28.3309 15.33 28.3411C15.4655 28.3523 15.5961 28.3969 15.71 28.4711L54.75 50.9411C55.0848 51.163 55.3643 51.4586 55.5671 51.8053C55.7699 52.152 55.8906 52.5405 55.92 52.9411L55.84 81.4611C55.84 81.7011 55.77 81.8911 55.67 81.9411C55.5833 81.9678 55.4914 81.9726 55.4024 81.9551C55.3135 81.9377 55.2302 81.8985 55.16 81.8411L16.13 59.3511ZM61.46 78.2211C61.47 78.3088 61.46 78.3976 61.4305 78.4807C61.401 78.5639 61.353 78.6393 61.29 78.7011L56.82 81.3011L56.9 53.0111C56.8731 52.4309 56.7075 51.8656 56.4169 51.3628C56.1263 50.8599 55.7193 50.4341 55.23 50.1211L16.38 27.6511L20.91 25.0111C21.0659 25.0009 21.2208 25.0431 21.35 25.1311L60.35 47.6611C60.6843 47.8835 60.9634 48.1793 61.1661 48.5259C61.3689 48.8724 61.4899 49.2607 61.52 49.6611L61.46 78.2211Z" fill="#011627"/>
<path d="M47.97 59.7711C48.2392 59.9238 48.4936 60.1012 48.73 60.3011C48.9249 60.4845 49.0902 60.697 49.22 60.9311C50.8 63.6011 52.36 65.4111 53.92 66.3111C54.3333 66.5503 54.7774 66.7319 55.24 66.8511C55.3729 66.8835 55.5007 66.934 55.62 67.0011C55.7626 67.0831 55.8909 67.1878 56 67.3111C57.1317 68.5582 57.7961 70.1591 57.88 71.8411V80.6111C57.9356 81.0614 57.8512 81.518 57.6383 81.9188C57.4254 82.3195 57.0943 82.645 56.69 82.8511L50.05 85.3811C49.6866 85.483 49.3051 85.5026 48.9332 85.4386C48.5613 85.3746 48.2083 85.2286 47.9 85.0111C47.0322 84.4931 46.2963 83.7812 45.75 82.9311L39.15 72.7611C38.4222 71.6933 38.0098 70.4423 37.96 69.1511V60.3711C37.96 58.8811 38.73 57.9811 39.88 58.0211C40.0107 58.0395 40.1364 58.0837 40.25 58.1511C40.3809 58.2255 40.5019 58.3162 40.61 58.4211C41.028 58.7999 41.4837 59.135 41.97 59.4211C42.6679 59.8637 43.4751 60.1037 44.3015 60.1143C45.1278 60.1249 45.9409 59.9056 46.65 59.4811C46.7303 59.4455 46.8171 59.4271 46.905 59.4271C46.9928 59.4271 47.0796 59.4455 47.16 59.4811C47.4413 59.5426 47.7135 59.6401 47.97 59.7711Z" fill="#5AE069"/>
<path d="M61.6404 64.0109C61.5285 63.8906 61.4006 63.7863 61.2604 63.7009C61.1403 63.6355 61.0127 63.5851 60.8803 63.5509C60.4123 63.439 59.9639 63.257 59.5504 63.0109C58.0004 62.1109 56.4404 60.3109 54.8604 57.6309C54.7305 57.3999 54.5652 57.1906 54.3704 57.0109C54.1316 56.8113 53.8775 56.6307 53.6104 56.4709C53.3691 56.3324 53.1144 56.2185 52.8503 56.1309C52.77 56.0954 52.6832 56.077 52.5954 56.077C52.5075 56.077 52.4207 56.0954 52.3403 56.1309C51.6313 56.5555 50.8182 56.7747 49.9919 56.7641C49.1655 56.7536 48.3583 56.5136 47.6604 56.0709C47.1741 55.7849 46.7184 55.4498 46.3004 55.0709C46.1877 54.9745 46.0673 54.8876 45.9403 54.8109C45.8314 54.7342 45.7033 54.6892 45.5704 54.6809C45.2221 54.6464 44.8719 54.7234 44.5704 54.9009L40.1104 57.4909C40.2468 57.5269 40.3779 57.5807 40.5004 57.6509C40.6556 57.7452 40.8028 57.8523 40.9403 57.9709C41.3343 58.3294 41.7631 58.6477 42.2204 58.9209C42.8458 59.3159 43.5686 59.5297 44.3083 59.5385C45.048 59.5473 45.7756 59.3508 46.4104 58.9709C46.5443 58.895 46.6927 58.8478 46.8459 58.8323C46.9991 58.8168 47.1539 58.8334 47.3004 58.8809C47.6025 58.9778 47.8939 59.1052 48.1703 59.2609C48.4624 59.435 48.74 59.6323 49.0004 59.8509C49.2393 60.0671 49.4419 60.3203 49.6003 60.6009C51.1403 63.2109 52.6604 64.9609 54.1204 65.8009C54.4888 66.0257 54.8904 66.1911 55.3103 66.2909C55.4899 66.3349 55.6619 66.4057 55.8204 66.5009C56.0065 66.6079 56.1751 66.7428 56.3204 66.9009C57.532 68.243 58.2391 69.9647 58.3204 71.7709V80.5509C58.3435 81.0482 58.2652 81.5449 58.0903 82.0109L62.5303 79.4309C62.8702 79.1982 63.142 78.8791 63.3178 78.5065C63.4935 78.1339 63.5669 77.7213 63.5303 77.3109V68.5309C63.4415 66.8511 62.7736 65.254 61.6404 64.0109Z" fill="#11A537"/>
<path d="M62.0097 63.701C61.8674 63.537 61.6984 63.3984 61.5097 63.291C61.3509 63.1987 61.1789 63.1312 60.9997 63.091C60.5802 62.9804 60.1768 62.8157 59.7997 62.601C58.3497 61.761 56.7997 60.011 55.2897 57.401C55.1315 57.1173 54.9289 56.8607 54.6897 56.641C54.4299 56.4246 54.1522 56.2306 53.8597 56.061C53.5856 55.898 53.2937 55.7672 52.9897 55.671C52.8426 55.6249 52.6874 55.61 52.5342 55.6272C52.381 55.6444 52.233 55.6934 52.0997 55.771C51.4641 56.1494 50.7359 56.3441 49.9962 56.3335C49.2565 56.3229 48.5343 56.1074 47.9097 55.711C47.4525 55.4416 47.0236 55.1266 46.6297 54.771C46.493 54.6483 46.3457 54.5379 46.1897 54.441C46.0037 54.3315 45.795 54.2664 45.5797 54.251C45.1558 54.2165 44.732 54.3181 44.3697 54.541L38.7497 57.831C38.6119 57.9121 38.4843 58.0094 38.3697 58.121C38.0897 58.4222 37.8729 58.7766 37.7321 59.163C37.5913 59.5494 37.5292 59.9602 37.5497 60.371V69.141C37.5808 70.5176 37.9965 71.8582 38.7497 73.011L45.3497 83.181C45.926 84.1055 46.7101 84.8828 47.6397 85.451C48.1648 85.7722 48.7644 85.9514 49.3797 85.971C49.6557 85.97 49.9295 85.9227 50.1897 85.831L56.8197 83.301C56.9297 83.301 62.8197 79.871 62.8197 79.871C63.2299 79.5919 63.5583 79.2085 63.771 78.7603C63.9837 78.312 64.073 77.8152 64.0297 77.321V68.541C63.9385 66.7421 63.2244 65.031 62.0097 63.701ZM49.8397 84.911C49.5527 84.9881 49.2521 85.0003 48.9597 84.9467C48.6674 84.8931 48.3907 84.775 48.1497 84.601C47.3423 84.1172 46.6578 83.4533 46.1497 82.661L39.5897 72.481C38.9182 71.496 38.5371 70.3421 38.4897 69.151V60.371C38.4579 59.8145 38.6404 59.267 38.9997 58.841C39.2204 58.6307 39.515 58.5157 39.8197 58.521C39.8943 58.5272 39.9663 58.5512 40.0297 58.591C40.1314 58.645 40.2256 58.7123 40.3097 58.791C40.7482 59.1975 41.2312 59.5531 41.7497 59.851C42.5225 60.3406 43.4164 60.6056 44.3312 60.6162C45.246 60.6268 46.1458 60.3826 46.9297 59.911C46.9471 59.9035 46.9658 59.8997 46.9847 59.8997C47.0036 59.8997 47.0223 59.9035 47.0397 59.911C47.2688 59.9896 47.4898 60.09 47.6997 60.211C47.9418 60.3518 48.1695 60.5159 48.3797 60.701C48.5383 60.8394 48.6704 61.0054 48.7697 61.191C50.3997 63.951 52.0397 65.821 53.6497 66.751C54.105 67.0201 54.5967 67.2222 55.1097 67.351C55.1928 67.3721 55.2733 67.4023 55.3497 67.441C55.444 67.4968 55.5285 67.5677 55.5997 67.651C56.6517 68.8071 57.2732 70.2903 57.3597 71.851V80.621C57.3597 81.541 57.0397 82.181 56.4897 82.391L49.8397 84.911ZM62.9897 77.341C63.0229 77.6567 62.9751 77.9757 62.8509 78.2679C62.7266 78.56 62.5301 78.8158 62.2797 79.011L58.2797 81.331C58.3242 81.0901 58.3477 80.8459 58.3497 80.601V71.821C58.2684 70.0147 57.5613 68.293 56.3497 66.951C56.2045 66.7929 56.0359 66.6579 55.8497 66.551C55.6912 66.4557 55.5193 66.3849 55.3397 66.341C54.9198 66.2411 54.5182 66.0758 54.1497 65.851C52.6897 65.011 51.1497 63.261 49.6297 60.651C49.4713 60.3704 49.2687 60.1171 49.0297 59.901C48.7693 59.6823 48.4918 59.485 48.1997 59.311C47.9233 59.1552 47.6318 59.0279 47.3297 58.931C47.1832 58.8834 47.0285 58.8668 46.8753 58.8823C46.722 58.8978 46.5737 58.945 46.4397 59.021C45.8109 59.4029 45.089 59.6041 44.3533 59.6023C43.6176 59.6006 42.8966 59.3959 42.2697 59.011C41.8102 58.7219 41.3814 58.3869 40.9897 58.011C40.8997 57.9322 40.8027 57.8619 40.6997 57.801L44.8697 55.371C45.0705 55.2572 45.2991 55.2018 45.5297 55.211C45.5853 55.2287 45.639 55.2521 45.6897 55.281C45.7883 55.3399 45.882 55.4068 45.9697 55.481C46.4125 55.8851 46.895 56.2436 47.4097 56.551C48.1853 57.0331 49.0782 57.2935 49.9913 57.3041C50.9045 57.3147 51.8031 57.075 52.5897 56.611C52.606 56.6002 52.6252 56.5945 52.6447 56.5945C52.6643 56.5945 52.6834 56.6002 52.6997 56.611C52.9303 56.6815 53.1518 56.7789 53.3597 56.901C53.6002 57.0442 53.8277 57.2081 54.0397 57.391C54.2005 57.5312 54.3328 57.7009 54.4297 57.891C56.0497 60.641 57.6897 62.511 59.2997 63.441C59.7593 63.7086 60.2541 63.9105 60.7697 64.041C60.8528 64.0621 60.9333 64.0923 61.0097 64.131C61.1017 64.1899 61.1858 64.2605 61.2597 64.341C62.3082 65.4993 62.9292 66.9812 63.0197 68.541L62.9897 77.341Z" fill="#011627"/>
</svg>
